<svg width="351" height="187" viewBox="0 0 351 187" fill="none" xmlns="http://www.w3.org/2000/svg">
<path d="M195.915 119.731C198.888 115.9 207.25 120.123 203.902 111.516C200.553 102.91 212.155 102.035 215.728 103.682C216.785 104.17 217.823 104.929 218.807 105.879C218.919 104.935 218.979 103.975 218.979 103.001C218.979 101.569 218.853 100.166 218.612 98.8021C211.407 96.5614 210.041 90.7355 206.294 93.0846C202.462 95.4873 197.227 90.5644 197.673 87.0557C198.011 84.3923 199.635 80.9145 198.836 79.3093C197.582 79.1074 196.297 79 194.986 79C191.873 79 188.898 79.5937 186.169 80.6728C187.74 85.5311 189.021 88.0482 185.098 91.007C180.271 94.648 176.44 92.2114 176.44 97.7409C176.44 103.271 180.08 105.571 176.44 109.02C175.409 109.998 173.932 110.589 172.322 110.89C173.078 113.062 174.136 115.093 175.447 116.929C180.709 112.859 186.858 118.889 188.533 121.914C189.261 123.228 189.118 124.7 188.612 126.142C190.642 126.7 192.779 127 194.987 127C195.48 127 195.968 126.983 196.454 126.954C195.044 124.032 194.617 121.403 195.914 119.731H195.915ZM190.936 116.249C188.152 116.849 187.55 109.118 185.853 105.659C184.155 102.199 181.814 99.6664 183.815 97.5361C185.817 95.4058 187.847 97.5361 191.262 94.828C194.915 91.9329 198.148 94.9284 198.754 97.6862C199.359 100.444 197.049 103.437 196.546 104.907C196.212 105.886 196.156 107.491 196.376 109.72C196.707 113.064 193.719 115.649 190.935 116.249H190.936Z" fill="#78E6FF"/>
<path d="M197.675 87.0557C197.23 90.5644 202.464 95.4873 206.296 93.0846C210.043 90.7345 211.409 96.5604 218.614 98.8021C216.85 88.7971 208.889 80.9324 198.839 79.3103C199.639 80.9155 198.014 84.3934 197.676 87.0567L197.675 87.0557Z" fill="#009664"/>
<path d="M196.377 109.721C196.156 107.492 196.213 105.887 196.547 104.908C197.049 103.438 199.36 100.445 198.755 97.6872C198.149 94.9294 194.916 91.9339 191.263 94.829C187.847 97.5371 185.817 95.4068 183.816 97.5371C181.815 99.6674 184.157 102.2 185.854 105.66C187.551 109.12 188.154 116.85 190.937 116.25C193.72 115.65 196.71 113.065 196.378 109.721H196.377Z" fill="#009664"/>
<path d="M188.535 121.914C186.86 118.889 180.711 112.86 175.449 116.93C178.608 121.356 183.233 124.662 188.615 126.142C189.121 124.7 189.263 123.228 188.536 121.914H188.535Z" fill="#009664"/>
<path d="M176.441 97.741C176.441 92.2104 180.273 94.648 185.099 91.007C189.022 88.0473 187.741 85.5311 186.17 80.6729C177.282 84.1875 170.994 92.8598 170.994 103C170.994 105.764 171.462 108.418 172.322 110.89C173.932 110.59 175.409 109.998 176.44 109.02C180.08 105.571 176.44 103.271 176.44 97.741H176.441Z" fill="#009664"/>
<path d="M203.9 111.516C207.248 120.124 198.885 115.9 195.913 119.731C194.617 121.402 195.044 124.031 196.453 126.954C208.061 126.253 217.441 117.298 218.806 105.879C217.822 104.929 216.784 104.169 215.727 103.682C212.154 102.035 200.553 102.908 203.901 111.516H203.9Z" fill="#009664"/>
<path d="M139.375 92.72V113.776H124.143V128H97.3752C97.6739 124.864 97.8979 120.123 98.0472 113.776H44.8472V91.152C62.2445 77.7867 77.7752 62.9653 91.4392 46.688H124.143V92.72H139.375ZM98.6072 68.864C93.4552 74.1653 89.0125 78.608 85.2792 82.192C81.5459 85.7013 77.3272 89.2107 72.6232 92.72H98.2712L98.6072 68.864ZM195.244 129.12C179.191 129.12 167.356 125.424 159.74 118.032C152.124 110.64 148.316 100.373 148.316 87.232C148.316 74.1653 152.124 63.9733 159.74 56.656C167.431 49.264 179.265 45.568 195.244 45.568C211.223 45.568 223.02 49.264 230.636 56.656C238.252 63.9733 242.06 74.1653 242.06 87.232C242.06 100.373 238.252 110.64 230.636 118.032C223.02 125.424 211.223 129.12 195.244 129.12ZM195.356 109.52C202.225 109.52 207.228 107.429 210.364 103.248C213.5 98.992 215.068 93.6533 215.068 87.232C215.068 80.8853 213.5 75.6213 210.364 71.44C207.228 67.184 202.225 65.056 195.356 65.056C188.263 65.056 183.111 67.184 179.9 71.44C176.764 75.6213 175.196 80.8853 175.196 87.232C175.196 93.5787 176.764 98.88 179.9 103.136C183.111 107.392 188.263 109.52 195.356 109.52ZM289.547 78.944H309.483V100.784H289.547V120.832H267.707V100.784H247.659V78.944H267.707V58.896H289.547V78.944Z" fill="#78E6FF"/>
</svg>
