<svg width="352" height="187" viewBox="0 0 352 187" fill="none" xmlns="http://www.w3.org/2000/svg">
<path d="M60.6212 107.28C67.3412 107.131 72.3065 106.981 75.5172 106.832V128H16.2692V106.832C24.3332 107.131 30.4185 107.28 34.5252 107.28V68.64C31.8372 74.5387 26.3492 78.3467 18.0612 80.064C17.8372 71.2533 17.0159 63.2267 15.5972 55.984C21.5705 55.1627 25.7145 54.1547 28.0292 52.96C30.4185 51.6907 32.2479 50.3093 33.5172 48.816C34.8612 47.3227 35.7572 46.3147 36.2052 45.792V45.568H60.6212V107.28ZM122.791 129.12C106.737 129.12 94.9028 125.424 87.2868 118.032C79.6708 110.64 75.8628 100.373 75.8628 87.232C75.8628 74.1653 79.6708 63.9733 87.2868 56.656C94.9775 49.264 106.812 45.568 122.791 45.568C138.769 45.568 150.567 49.264 158.183 56.656C165.799 63.9733 169.607 74.1653 169.607 87.232C169.607 100.373 165.799 110.64 158.183 118.032C150.567 125.424 138.769 129.12 122.791 129.12ZM122.903 109.52C129.772 109.52 134.775 107.429 137.911 103.248C141.047 98.992 142.615 93.6533 142.615 87.232C142.615 80.8853 141.047 75.6213 137.911 71.44C134.775 67.184 129.772 65.056 122.903 65.056C115.809 65.056 110.657 67.184 107.447 71.44C104.311 75.6213 102.743 80.8853 102.743 87.232C102.743 93.5787 104.311 98.88 107.447 103.136C110.657 107.392 115.809 109.52 122.903 109.52ZM225.494 129.12C209.441 129.12 197.606 125.424 189.99 118.032C182.374 110.64 178.566 100.373 178.566 87.232C178.566 74.1653 182.374 63.9733 189.99 56.656C197.681 49.264 209.515 45.568 225.494 45.568C241.473 45.568 253.27 49.264 260.886 56.656C268.502 63.9733 272.31 74.1653 272.31 87.232C272.31 100.373 268.502 110.64 260.886 118.032C253.27 125.424 241.473 129.12 225.494 129.12ZM225.606 109.52C232.475 109.52 237.478 107.429 240.614 103.248C243.75 98.992 245.318 93.6533 245.318 87.232C245.318 80.8853 243.75 75.6213 240.614 71.44C237.478 67.184 232.475 65.056 225.606 65.056C218.513 65.056 213.361 67.184 210.15 71.44C207.014 75.6213 205.446 80.8853 205.446 87.232C205.446 93.5787 207.014 98.88 210.15 103.136C213.361 107.392 218.513 109.52 225.606 109.52ZM319.797 78.944H339.733V100.784H319.797V120.832H297.957V100.784H277.909V78.944H297.957V58.896H319.797V78.944Z" fill="#201A17"/>
<rect x="194.625" y="111.731" width="12.8456" height="23.6854" transform="rotate(37.026 194.625 111.731)" fill="#201A17"/>
<path d="M220.455 78.2808C215.383 81.0512 213.512 87.44 216.279 92.5175C219.047 97.5949 225.428 99.4682 230.5 96.6977C235.572 93.9273 237.443 87.5386 234.676 82.4611C231.908 77.3836 225.527 75.5103 220.455 78.2808Z" fill="black"/>
<path d="M228.925 78.1671C226.739 79.3601 225.931 82.1157 227.128 84.3045C228.319 86.4932 231.072 87.3017 233.258 86.1038C235.445 84.9108 236.252 82.1552 235.056 79.9664C233.864 77.7777 231.111 76.9692 228.925 78.1671Z" fill="#F6F3F0"/>
</svg>
