<svg width="223" height="159" viewBox="0 0 223 159" fill="none" xmlns="http://www.w3.org/2000/svg">
<path d="M67.9526 86.784C70.6406 86.2613 73.2912 86 75.9046 86C80.4592 86 84.1552 86.784 86.9926 88.352C89.9046 89.8453 91.9952 91.7867 93.2646 94.176C94.5339 96.4907 95.1686 98.9173 95.1686 101.456C95.1686 107.355 93.2272 112.395 89.3446 116.576C85.4619 120.683 80.1979 123.819 73.5526 125.984C66.9072 128.075 59.5152 129.12 51.3766 129.12C27.7819 129.12 12.5126 120.907 5.56856 104.48L11.8406 102.912C16.4699 101.792 20.3899 100.747 23.6006 99.776C26.8859 98.7307 29.7606 97.5733 32.2246 96.304C33.7179 100.037 35.8459 102.725 38.6086 104.368C41.4459 105.936 45.3286 106.72 50.2566 106.72C55.4832 106.72 59.7392 106.123 63.0246 104.928C66.3099 103.733 67.9526 101.941 67.9526 99.552C67.9526 98.2827 67.3179 97.312 66.0486 96.64C64.7792 95.968 62.7632 95.52 60.0006 95.296C57.2379 94.9973 53.3552 94.848 48.3526 94.848H39.8406V75.248H44.9926C50.6672 75.248 55.2966 75.024 58.8806 74.576C62.4646 74.0533 64.2566 72.9707 64.2566 71.328C64.2566 69.4613 63.2859 67.968 61.3446 66.848C59.4779 65.6533 56.5286 65.056 52.4966 65.056C47.2699 65.056 43.0139 66.1387 39.7286 68.304C36.5179 70.4693 34.0166 73.6053 32.2246 77.712C24.2352 74.5013 15.7232 72.224 6.68856 70.88C10.2726 62.816 15.7606 56.5813 23.1526 52.176C30.6192 47.7707 40.2139 45.568 51.9366 45.568C59.5526 45.568 66.3846 46.576 72.4326 48.592C78.5552 50.5333 83.3339 53.2587 86.7686 56.768C90.2779 60.2773 92.0326 64.1973 92.0326 68.528C92.0326 71.0667 91.4352 73.344 90.2406 75.36C89.0459 77.3013 86.6939 79.2427 83.1846 81.184C79.6752 83.0507 74.5979 84.9173 67.9526 86.784ZM208.833 46.688L217.569 128H188.561L186.769 69.984L175.569 128H146.225L134.801 70.432L133.121 128H104.113L112.849 46.688H150.929L160.673 99.664L169.185 46.688H208.833Z" fill="#FF8714"/>
<path d="M23.5014 52.0953C24.4002 35.4047 38.6608 22.6015 55.3514 23.5003C72.042 24.3991 84.8452 38.6596 83.9464 55.3503L23.5014 52.0953Z" fill="#FF8C14"/>
<path d="M64.9222 36.4198C65.8411 36.4692 66.6261 35.7644 66.6756 34.8455C66.7251 33.9266 66.0203 33.1415 65.1014 33.092C64.1824 33.0426 63.3974 33.7474 63.3479 34.6663C63.2984 35.5852 64.0032 36.3703 64.9222 36.4198Z" fill="#8C3C00"/>
<path d="M72.6136 44.2909C73.5325 44.3403 74.3175 43.6355 74.367 42.7166C74.4165 41.7977 73.7117 41.0126 72.7928 40.9631C71.8738 40.9136 71.0888 41.6185 71.0393 42.5374C70.9898 43.4563 71.6946 44.2414 72.6136 44.2909Z" fill="#8C3C00"/>
<path d="M63.3577 45.6117C64.2766 45.6611 65.0617 44.9563 65.1112 44.0374C65.1607 43.1185 64.4558 42.3334 63.5369 42.2839C62.618 42.2345 61.8329 42.9393 61.7834 43.8582C61.734 44.7771 62.4388 45.5622 63.3577 45.6117Z" fill="#8C3C00"/>
<path d="M68.6662 8.99715C62.7257 8.67725 57.3805 11.7072 54.4594 16.4452C56.4042 18.4598 57.8133 20.98 58.4643 23.7788C65.4634 22.5979 70.9855 16.768 71.4987 9.41693C70.5848 9.19824 69.6347 9.0493 68.6597 8.9968L68.6662 8.99715Z" fill="#00641E"/>
<path d="M44.0248 11.6661C42.8484 11.6028 41.6972 11.6777 40.5793 11.8587C42.1189 18.4925 47.8802 23.5937 55.0231 23.9783C56.1995 24.0417 57.3507 23.9668 58.4686 23.7858C56.929 17.152 51.1677 12.0508 44.0248 11.6661V11.6661Z" fill="#00961E"/>
</svg>
