<svg width="360" height="203" viewBox="0 0 360 203" fill="none" xmlns="http://www.w3.org/2000/svg">
<path d="M274.743 17.5349C275.353 18.8236 276.321 19.8264 277.469 20.484L271.569 23.2783C268.356 24.7996 266.971 28.6241 268.455 31.846C268.458 31.8509 268.461 31.8558 268.463 31.8607L271.277 37.8053C271.935 36.6241 272.951 35.628 274.266 35.0068C277.619 33.4202 281.62 34.8495 283.207 38.202C284.794 41.5546 283.364 45.5563 280.012 47.1429C278.697 47.7641 277.282 47.921 275.951 47.6828L278.765 53.6274C278.778 53.6495 278.785 53.672 278.795 53.6955C280.331 56.9228 284.192 58.2965 287.424 56.7675L293.368 53.9537C293.128 55.2857 293.283 56.6985 293.908 58.0142C295.495 61.3667 299.496 62.796 302.849 61.2094C306.202 59.6228 307.631 55.621 306.044 52.2685C305.423 50.9538 304.426 49.9351 303.246 49.2796L309.19 46.4659C312.427 44.934 313.81 41.0676 312.276 37.8326L309.481 31.9261C308.824 33.0806 307.819 34.0505 306.528 34.6612C303.175 36.2478 299.173 34.8185 297.587 31.466C296 28.1134 297.43 24.1117 300.782 22.5251C302.073 21.9144 303.463 21.7528 304.771 21.9747L301.976 16.0682C300.444 12.8317 296.578 11.4483 293.343 12.9826L287.442 15.7769C287.662 14.4705 287.501 13.0873 286.889 11.8C285.302 8.44749 281.301 7.0182 277.948 8.60478C274.596 10.1914 273.166 14.1931 274.753 17.5457L274.743 17.5349Z" fill="#6D85D9"/>
<path d="M237.557 75.9822C243.485 58.8844 251.553 57.8923 267.82 49.9729L267.907 49.929C267.88 49.9448 267.851 49.9581 267.823 49.9715L281.354 54.6629C283.075 55.2585 284.953 54.3469 285.549 52.6262C286.145 50.9056 285.233 49.0271 283.512 48.4314L276.21 45.8996L285.319 41.4811L285.309 41.4639L303.237 32.7669C304.803 32.0082 305.486 30.1838 304.763 28.6951C304.04 27.2064 302.186 26.6132 300.62 27.3719L282.708 36.0627L282.095 34.8022L299.902 26.1628C301.469 25.4041 302.152 23.5797 301.429 22.091C300.706 20.6023 298.85 20.0067 297.285 20.7678L279.478 29.4072L278.866 28.1467L296.547 19.5678C298.113 18.8091 298.798 16.9871 298.073 15.496C297.35 14.0073 295.496 13.4141 293.93 14.1728L276.246 22.7531L275.633 21.4926L293.4 12.8737C294.966 12.115 295.649 10.2906 294.925 8.79945C294.202 7.31075 292.348 6.71755 290.781 7.47625L273.015 16.0951L273.003 16.1023L259.964 22.4255C239.087 32.5552 218.5 51.1104 212 70.6104L235.896 80.5566L237.553 75.9812L237.557 75.9822Z" fill="#FFC88C"/>
<path d="M32.9436 124.01C57.2102 122.666 76.0262 121.173 89.3916 119.53C88.1222 123.413 87.1516 127.52 86.4796 131.85C85.8076 136.181 85.4716 140.101 85.4716 143.61H5.39156L5.27956 141.258C5.27956 133.941 7.40756 127.594 11.6636 122.218C15.9942 116.842 22.0049 111.877 29.6956 107.322C31.9356 105.978 35.4449 104.261 40.2236 102.17C46.4209 99.4824 51.1996 97.1303 54.5596 95.1143C57.9196 93.0237 59.5996 90.9703 59.5996 88.9543C59.5996 86.4157 58.5542 84.3997 56.4636 82.9063C54.3729 81.413 51.1249 80.6663 46.7196 80.6663C41.8662 80.6663 38.1702 81.8983 35.6316 84.3623C33.1676 86.8263 31.9356 89.9623 31.9356 93.7703C31.9356 94.965 32.0476 96.197 32.2716 97.4663C22.8636 96.2717 13.7169 95.4503 4.83156 95.0023C4.83156 88.6557 6.47423 82.9437 9.75956 77.8664C13.1196 72.7143 18.1222 68.645 24.7676 65.6583C31.4876 62.6717 39.7009 61.1783 49.4076 61.1783C58.2929 61.1783 65.6849 62.4103 71.5836 64.8744C77.5569 67.2637 81.9249 70.325 84.6876 74.0583C87.5249 77.717 88.9436 81.4877 88.9436 85.3703C88.9436 89.8503 87.9356 93.6957 85.9196 96.9063C83.9782 100.117 81.1409 102.992 77.4076 105.53C73.7489 107.994 68.8209 110.682 62.6236 113.594C61.7276 114.042 60.2716 114.565 58.2556 115.162C56.2396 115.685 54.9702 116.021 54.4476 116.17C49.1462 117.738 44.9276 119.045 41.7916 120.09C38.6556 121.136 35.7062 122.442 32.9436 124.01ZM149.643 86.3783C158.155 86.3783 165.286 87.573 171.035 89.9623C176.859 92.277 181.19 95.4503 184.027 99.4823C186.939 103.44 188.395 107.882 188.395 112.81C188.395 124.01 184.475 132.149 176.635 137.226C168.87 142.229 158.454 144.73 145.387 144.73C134.411 144.73 124.742 142.901 116.379 139.242C108.091 135.509 102.081 129.274 98.3472 120.538C102.454 119.941 106.934 118.97 111.787 117.626C116.715 116.282 121.158 114.901 125.115 113.482C126.683 116.693 128.886 119.045 131.723 120.538C134.561 121.957 138.369 122.666 143.147 122.666C148.225 122.666 152.406 121.845 155.691 120.202C159.051 118.56 160.731 116.282 160.731 113.37C160.731 110.384 159.275 107.882 156.363 105.866C153.451 103.85 149.009 102.842 143.035 102.842C139.153 102.842 135.606 103.552 132.395 104.97C129.185 106.314 126.87 108.256 125.451 110.794H99.5792C101.371 103.104 102.939 94.8157 104.283 85.9303C105.702 77.045 106.561 69.1677 106.859 62.2984H185.483V84.0264C177.195 83.5037 169.355 83.205 161.963 83.1303C154.646 82.981 144.379 82.9063 131.163 82.9063L130.043 89.1783C135.718 87.3117 142.251 86.3783 149.643 86.3783ZM244.26 144.73C228.206 144.73 216.372 141.034 208.756 133.642C201.14 126.25 197.332 115.984 197.332 102.842C197.332 89.7757 201.14 79.5837 208.756 72.2663C216.446 64.8743 228.281 61.1783 244.26 61.1783C260.238 61.1783 272.036 64.8743 279.652 72.2663C287.268 79.5837 291.076 89.7757 291.076 102.842C291.076 115.984 287.268 126.25 279.652 133.642C272.036 141.034 260.238 144.73 244.26 144.73ZM244.372 125.13C251.241 125.13 256.244 123.04 259.38 118.858C262.516 114.602 264.084 109.264 264.084 102.842C264.084 96.4957 262.516 91.2317 259.38 87.0504C256.244 82.7943 251.241 80.6663 244.372 80.6663C237.278 80.6663 232.126 82.7943 228.916 87.0504C225.78 91.2317 224.212 96.4957 224.212 102.842C224.212 109.189 225.78 114.49 228.916 118.746C232.126 123.002 237.278 125.13 244.372 125.13ZM338.563 94.5543H358.499V116.394H338.563V136.442H316.723V116.394H296.675V94.5543H316.723V74.5063H338.563V94.5543Z" fill="#6D85D9"/>
</svg>
