<svg width="272" height="58" viewBox="0 0 272 58" fill="none" xmlns="http://www.w3.org/2000/svg">
<g clip-path="url(#clip0_3920_3353)">
<path d="M269.656 29.9707C270.103 30.4158 270.459 30.9447 270.702 31.5271C270.945 32.1096 271.071 32.7342 271.072 33.3653C271.074 33.9965 270.951 34.6218 270.711 35.2055C270.471 35.7892 270.119 36.32 269.674 36.7674C269.229 37.2149 268.7 37.5703 268.117 37.8133C267.535 38.0564 266.91 38.1823 266.279 38.184C265.648 38.1856 265.023 38.0629 264.439 37.8229C263.855 37.5829 263.324 37.2303 262.877 36.7852C262.212 36.1137 261.759 35.2611 261.576 34.3338C261.392 33.4066 261.486 32.4459 261.846 31.5717C262.205 30.6975 262.814 29.9486 263.597 29.4185C264.379 28.8885 265.301 28.6008 266.246 28.5915C266.878 28.5775 267.507 28.6926 268.093 28.9297C268.679 29.1669 269.211 29.5211 269.656 29.9707Z" fill="#201A17"/>
<path d="M241.306 19.436C225.621 19.436 225.621 36.8617 225.621 36.8617H257.007C257.007 36.8617 257.007 19.436 241.306 19.436ZM233.275 32.317C233.347 30.733 233.692 29.1732 234.293 27.7061C234.969 26.065 235.992 24.5894 237.291 23.3802C237.578 23.3583 237.863 23.3192 238.146 23.2632C238.612 23.1864 239.083 23.1489 239.556 23.1512C241.384 23.1023 243.189 23.5773 244.757 24.5202C246.246 25.4585 247.427 26.8119 248.156 28.4135C248.724 29.6482 249.088 30.9663 249.235 32.317H233.275Z" fill="#201A17"/>
<path d="M12.2499 55.7277L20.1688 52.0379V3.77116H9.79688L0.982232 13.3594L0 13.0286L2.6108 0H46.6229L48.9946 13.3594L48.0938 13.6851L39.274 3.77116H28.3321V52.2822L36.0932 55.7277V56.8728H12.2499V55.7277Z" fill="#201A17"/>
<path d="M12.0887 55.7379L20.0381 52.0532V3.78643H9.63056L0.78029 13.3696L-0.207031 13.0438L2.41904 0H46.589L48.9657 13.3543L48.0598 13.6851L39.1891 3.78643H28.2319V52.2975L36.0134 55.7379V56.888H12.0938L12.0887 55.7379Z" fill="#201A17"/>
<path d="M77.49 37.6302C77.49 49.1015 69.3777 57.7075 58.563 57.7075C48.3182 57.7075 40.7148 49.8394 40.7148 39.101C40.7148 27.9606 48.8577 19.436 59.4841 19.436C70.2785 19.436 77.49 26.729 77.49 37.6302ZM53.8096 23.7772C50.2827 27.2226 48.3997 32.0626 48.3997 37.7931C48.3997 47.2184 53.2345 54.0177 59.9523 54.0177C65.9373 54.0177 69.9528 48.2007 69.9528 39.5133C69.9528 29.6808 64.8635 23.4515 56.8428 23.4515C55.8244 23.4747 54.8097 23.5837 53.8096 23.7772Z" fill="#201A17"/>
<path d="M78.8828 56.1501L84.537 53.2798V25.991L79.7836 23.2886V22.5506L91.092 19.4971L91.6009 19.9093L91.2701 27.6908C93.7333 23.5939 96.9294 19.5785 101.449 19.5785C104.4 19.5785 106.365 21.3801 106.365 24.0876C106.365 26.8714 104.563 28.7596 101.942 28.7596C99.7285 28.7596 98.4969 27.3651 97.7641 25.3956C94.2168 26.2353 91.606 28.9428 91.606 32.7954V53.2798L98.2221 56.1501V56.8881H78.8828V56.1501Z" fill="#201A17"/>
<path d="M121.788 12.1432V20.4998H134.572V25.1717H121.788V45.4933C121.788 49.9209 123.92 52.3791 127.773 52.3791C129.858 52.3501 131.897 51.7556 133.671 50.6589L134.002 51.3968L129.33 57.051C127.965 57.4167 126.56 57.6082 125.147 57.621C118.266 57.621 114.744 54.0178 114.744 46.9691V25.1717H110.479L110.316 24.3524L120.887 11.6292L121.788 12.1432Z" fill="#201A17"/>
<path d="M173.799 37.6302C173.799 49.1015 165.687 57.7075 154.867 57.7075C144.623 57.7075 137.004 49.8394 137.004 39.101C137.004 27.9606 145.116 19.436 155.768 19.436C166.588 19.436 173.799 26.729 173.799 37.6302ZM150.134 23.7772C146.572 27.2226 144.709 32.0626 144.709 37.7931C144.709 47.2184 149.544 54.0177 156.262 54.0177C162.242 54.0177 166.257 48.2007 166.257 39.5133C166.257 29.6808 161.168 23.4515 153.147 23.4515C152.136 23.4764 151.128 23.5854 150.134 23.7772Z" fill="#201A17"/>
<path d="M189.321 20.0925C188.314 23.0201 187.789 26.0914 187.764 29.1871V53.2798L193.662 56.1501V56.8881H174.832V56.1501L180.731 53.2798V27.1412L175.977 24.2708V23.5329L188.929 19.5989L189.321 20.0925Z" fill="#201A17"/>
<path d="M220.876 20.581L221.039 30.8258L220.53 30.9072C216.265 24.0265 213.242 22.632 209.873 22.632C206.433 22.632 204.056 24.7644 204.056 27.6297C204.056 34.8412 221.1 35.0855 221.1 45.9053C221.1 52.6232 215.283 57.6107 207.333 57.6107C204.137 57.6107 200.285 56.7099 198.32 55.4019L196.926 44.6636L197.501 44.5007C201.842 51.5494 204.875 54.2518 208.728 54.2518C212.25 54.2518 214.545 51.7936 214.545 48.4347C214.545 39.6659 198.32 41.7169 198.32 30.1591C198.32 23.6855 203.318 19.4258 210.942 19.4258C214.284 19.47 217.613 19.8572 220.876 20.581Z" fill="#201A17"/>
</g>
<defs>
<clipPath id="clip0_3920_3353">
<rect width="271.04" height="57.6209" fill="white"/>
</clipPath>
</defs>
</svg>
