<svg width="351" height="187" viewBox="0 0 351 187" fill="none" xmlns="http://www.w3.org/2000/svg">
<path d="M131.953 86.784C134.641 86.2613 137.291 86 139.905 86C144.459 86 148.155 86.784 150.993 88.352C153.905 89.8453 155.995 91.7867 157.265 94.176C158.534 96.4907 159.169 98.9173 159.169 101.456C159.169 107.355 157.227 112.395 153.345 116.576C149.462 120.683 144.198 123.819 137.553 125.984C130.907 128.075 123.515 129.12 115.377 129.12C91.7819 129.12 76.5126 120.907 69.5686 104.48L75.8406 102.912C80.4699 101.792 84.3899 100.747 87.6006 99.776C90.8859 98.7307 93.7606 97.5733 96.2246 96.304C97.7179 100.037 99.8459 102.725 102.609 104.368C105.446 105.936 109.329 106.72 114.257 106.72C119.483 106.72 123.739 106.123 127.025 104.928C130.31 103.733 131.953 101.941 131.953 99.552C131.953 98.2827 131.318 97.312 130.049 96.64C128.779 95.968 126.763 95.52 124.001 95.296C121.238 94.9973 117.355 94.848 112.353 94.848H103.841V75.248H108.993C114.667 75.248 119.297 75.024 122.881 74.576C126.465 74.0533 128.257 72.9707 128.257 71.328C128.257 69.4613 127.286 67.968 125.345 66.848C123.478 65.6533 120.529 65.056 116.497 65.056C111.27 65.056 107.014 66.1387 103.729 68.304C100.518 70.4693 98.0166 73.6053 96.2246 77.712C88.2352 74.5013 79.7232 72.224 70.6886 70.88C74.2726 62.816 79.7606 56.5813 87.1526 52.176C94.6192 47.7707 104.214 45.568 115.937 45.568C123.553 45.568 130.385 46.576 136.433 48.592C142.555 50.5333 147.334 53.2587 150.769 56.768C154.278 60.2773 156.033 64.1973 156.033 68.528C156.033 71.0667 155.435 73.344 154.241 75.36C153.046 77.3013 150.694 79.2427 147.185 81.184C143.675 83.0507 138.598 84.9173 131.953 86.784ZM272.833 46.688L281.569 128H252.561L250.769 69.984L239.569 128H210.225L198.801 70.432L197.121 128H168.113L176.849 46.688H214.929L224.673 99.664L233.185 46.688H272.833Z" fill="#6D85D9"/>
<path d="M263.884 65.769C279.979 67.1771 294.164 55.3144 295.568 39.2729C296.971 23.2314 285.062 9.08569 268.967 7.67756C252.872 6.26944 238.686 18.1321 237.283 34.1737C235.88 50.2152 247.789 64.3609 263.884 65.769Z" fill="white"/>
<path d="M253.997 44.9899C253.39 44.9368 252.942 44.4044 252.995 43.7997L254.428 27.4246C254.481 26.82 255.015 26.3735 255.621 26.4266C256.228 26.4797 256.676 27.0121 256.623 27.6167L255.191 43.9918C255.138 44.5964 254.604 45.0429 253.997 44.9899Z" fill="black"/>
<path d="M257.872 45.3285C257.265 45.2754 256.817 44.743 256.87 44.1384L258.303 27.7633C258.356 27.1586 258.89 26.7122 259.496 26.7652C260.103 26.8183 260.551 27.3507 260.498 27.9553L259.066 44.3304C259.013 44.9351 258.479 45.3816 257.872 45.3285Z" fill="black"/>
<path d="M261.743 45.6673C261.137 45.6143 260.688 45.0819 260.741 44.4772L262.174 28.1021C262.227 27.4975 262.761 27.051 263.367 27.1041C263.974 27.1572 264.422 27.6896 264.369 28.2942L262.937 44.6693C262.884 45.2739 262.35 45.7204 261.743 45.6673Z" fill="black"/>
<path d="M265.616 46.0065C265.01 45.9534 264.561 45.421 264.614 44.8163L266.047 28.4412C266.1 27.8366 266.634 27.3901 267.24 27.4432C267.847 27.4963 268.295 28.0287 268.242 28.6333L266.81 45.0084C266.757 45.613 266.223 46.0595 265.616 46.0065Z" fill="black"/>
<path d="M269.491 46.3451C268.885 46.292 268.436 45.7596 268.489 45.155L269.922 28.7799C269.975 28.1752 270.509 27.7288 271.115 27.7818C271.722 27.8349 272.17 28.3673 272.117 28.9719L270.685 45.347C270.632 45.9517 270.098 46.3982 269.491 46.3451Z" fill="black"/>
<path d="M273.362 46.6842C272.756 46.6311 272.307 46.0987 272.36 45.4941L273.793 29.119C273.846 28.5144 274.38 28.0679 274.986 28.1209C275.593 28.174 276.041 28.7064 275.988 29.3111L274.556 45.6862C274.503 46.2908 273.969 46.7373 273.362 46.6842Z" fill="black"/>
<path d="M277.237 47.0233C276.631 46.9702 276.182 46.4378 276.235 45.8332L277.668 29.4581C277.721 28.8535 278.255 28.407 278.861 28.4601C279.468 28.5131 279.916 29.0455 279.863 29.6502L278.431 46.0253C278.378 46.6299 277.844 47.0764 277.237 47.0233Z" fill="black"/>
<path d="M284.796 30.6084L283.352 30.4821L283.734 26.1154L279.353 25.7321L279.479 24.2925L285.304 24.8022L284.796 30.6084Z" fill="black"/>
<path d="M250.85 27.6389L249.406 27.5126L249.914 21.7063L255.742 22.2162L255.616 23.6558L251.232 23.2722L250.85 27.6389Z" fill="black"/>
<path d="M253.384 49.155L247.556 48.6451L248.064 42.8389L249.509 42.9652L249.127 47.3319L253.51 47.7154L253.384 49.155Z" fill="black"/>
<path d="M282.947 51.7412L277.121 51.2316L277.247 49.792L281.628 50.1753L282.01 45.8086L283.455 45.935L282.947 51.7412Z" fill="black"/>
</svg>
