<?xml version="1.0" encoding="UTF-8" standalone="no"?>
<!-- Generator: Adobe Illustrator 14.0.0, SVG Export Plug-In . SVG Version: 6.00 Build 43363)  -->

<svg
   xmlns:dc="http://purl.org/dc/elements/1.1/"
   xmlns:cc="http://creativecommons.org/ns#"
   xmlns:rdf="http://www.w3.org/1999/02/22-rdf-syntax-ns#"
   xmlns:svg="http://www.w3.org/2000/svg"
   xmlns="http://www.w3.org/2000/svg"
   xmlns:sodipodi="http://sodipodi.sourceforge.net/DTD/sodipodi-0.dtd"
   xmlns:inkscape="http://www.inkscape.org/namespaces/inkscape"
   version="1.1"
   id="Layer_1"
   x="0px"
   y="0px"
   width="393"
   height="470"
   viewBox="0 0 393 470"
   enable-background="new 0 0 612 792"
   xml:space="preserve">
<polygon
   style="fill:#ef3e42;fill-rule:evenodd"
   id="polygon7-7"
   points="231.898,484.252 231.898,447.656 231.898,447.656 231.898,447.656 378.857,447.656 378.857,484.252 "
   clip-rule="evenodd"
   transform="matrix(2.6741845,0,0,2.6741845,-620.13804,-824.97918)" /><path
   style="fill:#ffffff;fill-rule:evenodd"
   id="path9-4"
   d="m 85.359966,398.49767 c 0.834346,1.6981 1.267564,3.54062 1.211406,5.80833 l -53.448926,0.0214 c -1.631252,0 -4.187773,0.93062 -5.126411,3.06194 -1.165945,2.64744 0.176496,5.69334 2.829287,6.86731 1.053629,0.4653 2.925558,0.40112 2.925558,0.40112 h 38.885317 c 6.958228,0.49205 13.159661,4.96062 15.553057,12.31997 2.083189,6.40467 1.008167,11.737 -3.230415,16.96503 -4.899106,6.04366 -11.600613,6.11586 -18.98671,6.11051 l -43.02228,-0.0535 c -4.669127,-0.005 -8.600178,-4.59693 -9.263376,-9.32221 l -0.02942,-2.38805 56.799679,0.0535 c 1.898671,0.005 4.337527,-2.61803 4.401708,-5.30559 0.0722,-2.89881 -1.930761,-5.6559 -4.832252,-5.6559 H 29.11117 c -7.078567,0 -14.290842,-6.64267 -15.454113,-14.94869 -0.941313,-6.7122 1.267564,-11.7985 6.482224,-16.13335 3.936399,-3.27588 6.926138,-4.20917 12.429609,-4.21452 l 37.842385,-0.0481 c 5.851116,-0.10964 12.210326,0.89852 14.948691,6.46083 l 0,0 0,0 z"
   clip-rule="evenodd" /><path
   style="fill:#ffffff;fill-rule:evenodd"
   id="path11-0"
   d="m 173.82734,392.28554 c 9.14571,0.005 16.5639,9.41313 16.3152,19.25145 -0.238,9.49603 -8.51995,18.26468 -16.11196,18.26468 h -31.91372 c -4.6718,-0.5696 -8.25521,-3.95512 -10.1004,-7.87547 -0.62843,-1.52964 -0.66319,-3.68235 -0.84236,-5.28687 l 1.64997,0.0374 h 38.57778 c 1.66335,0 3.25181,-1.52428 4.0407,-3.43632 0.72203,-1.74892 0.67389,-3.17159 -0.20324,-4.8483 -0.97073,-1.85856 -2.72232,-3.02985 -4.4445,-3.02985 h -43.01693 l -0.4038,0.40113 v 38.09643 c 0,3.54062 -3.09403,6.1533 -6.74429,6.08377 -3.19565,-0.0615 -6.18272,-2.65279 -6.18272,-6.02226 v -40.78132 c 0,-3.37482 1.28094,-5.35906 3.67968,-7.6348 2.50838,-2.37735 5.81368,-3.27587 8.23916,-3.27587 l 47.46143,0.0562 0,0 0,0 z"
   clip-rule="evenodd" /><path
   style="fill:#ffffff;fill-rule:evenodd"
   id="path13-9"
   d="m 243.09139,407.6621 c 4.23858,5.89123 8.90236,11.57387 12.94573,17.69508 H 227.5009 l 14.19724,-17.77263 c 0,0 0.38776,-0.59635 0.75145,-0.56426 0.35031,0.0321 0.6418,0.64181 0.6418,0.64181 l 0,0 0,0 0,0 z m 11.66212,-6.60524 c 7.3647,10.23678 22.2305,29.43742 29.76367,40.2652 0.94666,2.44955 -0.1658,5.0756 -1.41464,7.06787 -2.02971,1.89599 -5.36174,2.29712 -7.67491,1.2114 -3.64224,-3.25448 -6.16934,-7.2925 -9.08688,-10.90532 l -49.08198,-0.10429 -5.80031,7.86477 c -1.83449,2.48165 -4.15835,4.18243 -7.73374,3.54597 -1.85856,-0.37706 -3.62352,-1.93878 -4.24126,-3.63422 -0.94933,-2.18748 -0.84771,-4.26265 0.40113,-6.26294 l 31.10879,-41.19848 c 2.61,-3.90699 5.42592,-6.69616 10.30096,-6.66942 7.65886,0.0963 8.18033,2.02436 13.45917,8.81946 l 0,0 0,0 z"
   clip-rule="evenodd" /><path
   style="fill:#ffffff;fill-rule:evenodd"
   id="path15-4"
   d="m 365.10908,392.28554 c 6.74964,0.005 13.06339,5.11839 15.59585,12.48844 2.71697,7.89687 0.20858,14.88986 -5.90193,20.5832 -1.35849,1.27023 -3.83745,2.83196 -3.83745,2.83196 l 8.4317,12.07662 c 0.77016,1.10176 1.01886,3.29459 0.30218,5.19059 -0.66587,1.75961 -1.5537,2.79452 -3.2839,3.53527 -2.3506,1.01351 -5.45801,0.0722 -6.45815,-1.15525 0,0 -8.06534,-9.82495 -12.52856,-15.40865 -0.78888,-0.82632 -1.19268,-1.58312 -2.02168,-2.42281 l -21.49777,0.10429 c -5.33232,0.0267 -11.62735,-6.34584 -11.62735,-11.42144 v -1.96285 l 40.03789,-0.0481 c 1.49487,-0.005 3.17693,-1.40394 3.99523,-3.23309 0.73807,-1.65532 0.72738,-2.98706 0,-4.64773 -0.86911,-1.97889 -2.84801,-3.39086 -4.40171,-3.38552 l -43.54375,0.12569 -0.12836,0.43322 v 38.80242 c 0,2.58593 -3.56468,5.91262 -7.05984,5.58369 -3.22507,-0.30753 -5.86984,-3.5941 -5.86716,-5.88053 l 0.0508,-41.13163 c 0.005,-4.28404 1.25151,-5.95006 3.95511,-8.30334 2.63675,-2.29713 5.02212,-2.80522 8.51728,-2.80522 l 47.27156,0.0508 0,0 0,0 z"
   clip-rule="evenodd" /><path
   style="fill:#008348;fill-rule:evenodd"
   id="path17-8"
   d="m 96.594216,214.74643 c -5.225357,6.87533 -10.557681,13.61427 -15.986275,20.20079 l 97.709349,-0.19789 c -0.57495,12.97514 2.47897,28.80631 -3.56468,39.94162 -6.07575,12.21567 -20.33718,18.27537 -33.52091,18.54279 -39.40143,-3.65026 -65.605765,-38.05364 -80.591895,-70.60649 -1.120483,-2.56989 -2.142022,-5.19862 -3.06729,-7.88082 C 44.094625,175.66322 51.365733,125.53296 77.043253,93.536341 115.20119,43.232257 182.57994,22.913803 245.3591,42.18665 c 38.29165,11.921515 72.33936,41.511366 89.15196,79.16656 12.1301,28.4346 12.50181,62.70962 2.63942,93.39857 -6.3191,19.66595 -16.84469,37.8611 -31.16762,52.09846 -17.69775,14.88986 -36.77004,30.58197 -61.33777,25.67217 -13.40301,-3.11275 -23.0274,-12.38415 -26.38885,-24.96084 -2.87742,-10.95346 -2.16609,-21.47103 -0.71133,-32.80689 l 99.70162,-0.17115 -2.70895,-3.39354 c -4.62634,-5.41523 -9.16978,-10.8973 -13.61695,-16.43821 h -0.003 C 256.98378,160.03529 221.83162,99.366063 197.57142,35.771282 172.10249,98.662753 137.54133,160.89103 96.594216,214.74643 l 0,0 0,0 0,0 z m -77.778657,0 c 15.520967,58.21432 62.677537,105.94317 120.988131,122.70228 73.43311,23.07554 156.5013,-1.52429 203.9761,-57.77308 15.28296,-18.52675 26.3006,-41.01664 32.40309,-64.9292 C 386.4357,174.59087 382.83892,130.41869 362.32258,94.245 347.64131,68.719909 326.07134,44.654923 301.69882,29.342542 246.92885,-6.6840714 165.64433,-9.534752 108.42213,20.785152 49.777267,50.714625 9.3115076,113.28252 13.566135,181.25494 c 0.564253,11.44284 2.358631,22.65034 5.249424,33.49149 l 0,0 z"
   clip-rule="evenodd" /></svg>