<svg width="526" height="526" viewBox="0 0 526 526" fill="none" xmlns="http://www.w3.org/2000/svg">
<rect width="526" height="526" fill="white"/>
<path d="M11 327.68H146.68V192H11V327.68ZM188.79 261.563C188.794 261.626 188.798 261.688 188.802 261.751C188.806 261.825 188.81 261.895 188.813 261.969C188.817 262.075 188.825 262.18 188.837 262.286C188.849 262.344 188.856 262.403 188.868 262.461C188.888 262.618 188.911 262.778 188.946 262.93C188.974 263.051 189.009 263.172 189.044 263.29C189.071 263.379 189.099 263.465 189.13 263.551C189.138 263.579 189.145 263.61 189.153 263.637C189.208 263.782 189.263 263.922 189.329 264.063C189.392 264.2 189.462 264.336 189.536 264.469C189.56 264.524 189.587 264.579 189.614 264.633C189.669 264.719 189.728 264.801 189.79 264.883C189.856 264.993 189.927 265.098 189.997 265.2C190.013 265.219 190.024 265.235 190.04 265.254C190.099 265.336 190.161 265.415 190.228 265.497C190.29 265.571 190.356 265.645 190.423 265.715C190.462 265.758 190.501 265.805 190.544 265.848C190.56 265.864 190.571 265.876 190.587 265.891L219.974 295.301C222.368 297.707 226.263 297.707 228.657 295.301C231.048 292.911 231.048 289.032 228.657 286.637L209.712 267.684H316.282L297.337 286.637C294.947 289.028 294.947 292.907 297.337 295.301C299.732 297.707 303.627 297.707 306.021 295.301L335.291 266.012C335.33 265.973 335.373 265.934 335.412 265.891C335.432 265.872 335.447 265.856 335.467 265.836C335.568 265.731 335.666 265.622 335.764 265.508C335.873 265.379 335.975 265.243 336.068 265.102C336.135 265.012 336.201 264.922 336.264 264.829C336.295 264.778 336.322 264.727 336.35 264.676C336.373 264.641 336.393 264.602 336.416 264.567C336.479 264.454 336.537 264.336 336.592 264.215C336.643 264.114 336.689 264.012 336.732 263.911C336.756 263.856 336.775 263.801 336.799 263.747C336.803 263.731 336.807 263.719 336.811 263.704C336.861 263.575 336.908 263.442 336.951 263.309C336.955 263.293 336.959 263.282 336.963 263.266C336.994 263.153 337.025 263.04 337.049 262.926C337.061 262.872 337.072 262.817 337.08 262.762C337.104 262.649 337.127 262.536 337.147 262.422V262.368C337.166 262.215 337.182 262.063 337.189 261.907C337.193 261.852 337.197 261.797 337.201 261.743C337.201 261.622 337.197 261.5 337.189 261.383V261.231L337.178 261.043C337.17 260.934 337.158 260.825 337.147 260.715C337.143 260.696 337.139 260.68 337.135 260.661C337.111 260.508 337.084 260.352 337.049 260.2C337.022 260.079 336.986 259.957 336.951 259.84C336.939 259.797 336.932 259.754 336.92 259.707C336.9 259.649 336.877 259.59 336.854 259.532C336.85 259.516 336.846 259.504 336.842 259.489C336.787 259.344 336.732 259.204 336.666 259.063C336.623 258.957 336.576 258.852 336.525 258.747C336.498 258.696 336.467 258.645 336.439 258.594C336.389 258.497 336.334 258.403 336.275 258.309C336.244 258.262 336.209 258.215 336.178 258.168C336.111 258.071 336.041 257.977 335.971 257.883C335.936 257.836 335.9 257.79 335.861 257.743C335.795 257.653 335.725 257.567 335.654 257.481C335.615 257.438 335.576 257.391 335.533 257.348C335.494 257.309 335.455 257.266 335.412 257.227L306.021 227.829C304.912 226.72 303.42 226.079 301.853 226.036C300.166 225.985 298.529 226.634 297.338 227.829C294.947 230.22 294.947 234.099 297.338 236.493L316.283 255.438H209.713L228.658 236.493C231.048 234.103 231.048 230.224 228.658 227.829C227.548 226.72 226.056 226.079 224.49 226.036C222.802 225.985 221.165 226.634 219.974 227.829L190.704 257.11L190.583 257.231C190.563 257.255 190.548 257.274 190.528 257.298C190.427 257.399 190.329 257.505 190.231 257.614C190.122 257.743 190.02 257.88 189.927 258.02C189.841 258.141 189.763 258.266 189.684 258.391C189.645 258.45 189.61 258.508 189.575 258.567C189.513 258.676 189.454 258.79 189.399 258.907C189.329 259.055 189.263 259.204 189.204 259.356C189.196 259.38 189.188 259.399 189.181 259.423C189.13 259.551 189.083 259.684 189.04 259.817C189.024 259.891 189.009 259.962 188.997 260.036C188.973 260.118 188.95 260.204 188.931 260.286C188.915 260.368 188.899 260.454 188.888 260.536C188.872 260.614 188.856 260.688 188.845 260.766C188.825 260.919 188.809 261.071 188.802 261.227C188.798 261.317 188.794 261.411 188.79 261.501V261.567L188.79 261.563ZM379.32 333.415H515V197.735H379.32V333.415Z" fill="black"/>
</svg>
