<svg width="150" height="150" viewBox="0 0 150 150" fill="none" xmlns="http://www.w3.org/2000/svg">
<g clip-path="url(#clip0_1738_5491)">
<path d="M18.75 18.75C15.3125 18.75 12.5 21.5625 12.5 25V50V59.375C12.5 69.9375 18.9375 78.9419 28.125 82.6294V121.875C28.125 127.062 32.3125 131.25 37.5 131.25C42.6875 131.25 46.875 127.062 46.875 121.875V82.6294C56.0625 78.9419 62.5 69.9375 62.5 59.375V50V25C62.5 21.5625 59.6875 18.75 56.25 18.75C52.8125 18.75 50 21.5625 50 25V50C50 51.75 48.625 53.125 46.875 53.125C45.125 53.125 43.75 51.75 43.75 50V25C43.75 21.5625 40.9375 18.75 37.5 18.75C34.0625 18.75 31.25 21.5625 31.25 25V50C31.25 51.75 29.875 53.125 28.125 53.125C26.375 53.125 25 51.75 25 50V25C25 21.5625 22.1875 18.75 18.75 18.75ZM100.818 50C100.068 50 99.5146 50.4966 99.3896 51.1841L98.3887 58.6304L93.5791 61.377L86.5112 58.5571C85.9487 58.3071 85.2627 58.5671 84.8877 59.1919L79.2603 68.9331C78.8853 69.5581 79.0776 70.3145 79.5776 70.7519L85.5103 75.3784L85.3271 78.125L85.5103 80.8716L79.5776 85.4981C79.0776 85.9356 78.8852 86.6919 79.2603 87.3169L84.8877 97.0581C85.2627 97.6831 85.9487 97.9429 86.5112 97.6929L93.6401 94.8731L98.3887 97.6196L99.3896 105.066C99.5146 105.753 100.068 106.25 100.818 106.25H112.073C112.76 106.25 113.327 105.753 113.452 105.066L114.636 97.6196L119.263 94.8731L126.257 97.6929C126.882 97.9429 127.642 97.6829 127.954 97.0581L133.569 87.3169C133.944 86.6919 133.824 85.9355 133.386 85.4981L127.319 80.8716L127.515 78.125L127.319 75.3784L133.386 70.7519C133.824 70.3144 133.944 69.5581 133.569 68.9331L127.954 59.1919C127.642 58.5669 126.882 58.3071 126.257 58.5571L119.263 61.377L114.636 58.6304L113.452 51.1841C113.327 50.4966 112.76 50 112.073 50H100.818ZM106.445 68.2495C111.883 68.2495 116.26 72.6875 116.26 78.125C116.26 83.5625 111.883 87.9395 106.445 87.9394C101.008 87.9394 96.5698 83.5625 96.5698 78.125C96.5698 72.6875 101.008 68.2495 106.445 68.2495Z" fill="black"/>
</g>
<defs>
<clipPath id="clip0_1738_5491">
<rect width="150" height="150" fill="white"/>
</clipPath>
</defs>
</svg>
