<svg width="116" height="100" viewBox="0 0 116 100" fill="none" xmlns="http://www.w3.org/2000/svg">
<path d="M95.2001 34.64C96.4004 34.64 97.4803 34.7597 98.6796 34.8802V14.2402C98.6796 12.32 96.6397 11.2402 94.9599 12.2003L73.3598 25.7606V14.3608C73.3598 12.4406 71.32 11.3608 69.6401 12.3209L48.5203 25.5205V14.2402C48.5203 12.32 46.4804 11.2402 44.8005 12.2003L23.5603 25.5203V2.60035C23.5603 1.2803 22.4805 0.200562 21.1605 0.200562H6.52049C5.20045 0.200562 4.24028 1.16067 4.12071 2.48078C3.64023 14.6006 1.47985 71.3608 1.00028 83.8408C0.880579 85.1608 1.96038 86.2406 3.40006 86.2406H77.4401C68.6803 68.9603 68.6803 63.3206 68.6803 61.1606C68.6803 46.5206 80.5605 34.6406 95.2003 34.6406L95.2001 34.64ZM33.4001 70.28C33.4001 71.2401 32.5597 72.0797 31.6004 72.0797H22.8406C21.8805 72.0797 21.041 71.2393 21.041 70.28V61.5202C21.041 60.5601 21.7608 59.7206 22.8406 59.7206L31.6004 59.7197C32.5605 59.7197 33.4001 60.5601 33.4001 61.5194V70.28ZM33.4001 49.0398C33.4001 49.9999 32.5597 50.8394 31.6004 50.8394H22.8406C21.8805 50.8394 21.041 50.1196 21.041 49.0398V40.28C21.041 39.3199 21.7608 38.4803 22.8406 38.4803L31.6004 38.4795C32.5605 38.4795 33.4001 39.3199 33.4001 40.2792V49.0398ZM58.1201 70.28C58.1201 71.2401 57.2797 72.0797 56.3204 72.0797H47.5606C46.6005 72.0797 45.761 71.2393 45.761 70.28V61.5202C45.761 60.5601 46.6014 59.7206 47.5606 59.7206H56.3204C57.2805 59.7206 58.1201 60.561 58.1201 61.5202V70.28ZM58.1201 49.0398C58.1201 49.9999 57.2797 50.8394 56.3204 50.8394H47.5606C46.6005 50.8394 45.761 50.1196 45.761 49.0398V40.28C45.761 39.3199 46.6014 38.4803 47.5606 38.4803H56.3204C57.2805 38.4803 58.1201 39.3208 58.1201 40.28V49.0398Z" fill="black"/>
<path d="M95.2 41.3601C84.2797 41.3601 75.4004 50.2403 75.4004 61.1597C75.4004 68.9593 85.4802 87.4397 91.2408 97.5197C93.0405 100.639 97.481 100.639 99.2808 97.5197C105.041 87.4399 115.121 68.9597 115.121 61.1597C115 50.2403 106.12 41.3601 95.2002 41.3601H95.2ZM95.2 70.4001C90.16 70.4001 85.9598 66.3203 85.9598 61.1599C85.9598 56.1199 90.0395 51.9197 95.2 51.9197C100.24 51.9197 104.44 55.9995 104.44 61.1599C104.439 66.3203 100.24 70.4001 95.2 70.4001Z" fill="black"/>
</svg>
