<svg width="150" height="150" viewBox="0 0 150 150" fill="none" xmlns="http://www.w3.org/2000/svg">
<mask id="mask0_1689_1520" style="mask-type:alpha" maskUnits="userSpaceOnUse" x="0" y="0" width="150" height="150">
<rect width="150" height="150" fill="#D9D9D9"/>
</mask>
<g mask="url(#mask0_1689_1520)">
<path d="M46.0938 131.406C42.3438 131.302 38.776 130.339 35.3906 128.516C32.0052 126.693 28.8021 124.01 25.7812 120.469C21.6146 115.469 18.3594 109.505 16.0156 102.578C13.6719 95.651 12.5 88.5417 12.5 81.25C12.5 72.6042 14.1406 64.4792 17.4219 56.875C20.7031 49.2708 25.1562 42.6563 30.7812 37.0313C36.4062 31.4063 43.0208 26.9531 50.625 23.6719C58.2292 20.3906 66.3542 18.75 75 18.75C83.6458 18.75 91.7708 20.4167 99.375 23.75C106.979 27.0833 113.594 31.6146 119.219 37.3438C124.844 43.0729 129.297 49.7917 132.578 57.5C135.859 65.2083 137.5 73.4896 137.5 82.3438C137.5 90.3646 136.198 97.8646 133.594 104.844C130.99 111.823 127.292 117.708 122.5 122.5C119.583 125.417 116.51 127.63 113.281 129.141C110.052 130.651 106.771 131.406 103.438 131.406C101.562 131.406 99.6875 131.172 97.8125 130.703C95.9375 130.234 94.0625 129.531 92.1875 128.594L83.4375 124.219C82.1875 123.594 80.8594 123.125 79.4531 122.813C78.0469 122.5 76.5625 122.344 75 122.344C73.4375 122.344 71.9531 122.5 70.5469 122.813C69.1406 123.125 67.8125 123.594 66.5625 124.219L57.8125 128.594C55.8333 129.635 53.8802 130.391 51.9531 130.859C50.026 131.328 48.0729 131.51 46.0938 131.406ZM46.4062 118.906C47.3438 118.906 48.3073 118.802 49.2969 118.594C50.2865 118.385 51.25 118.021 52.1875 117.5L60.9375 113.125C63.125 111.979 65.3906 111.146 67.7344 110.625C70.0781 110.104 72.4479 109.844 74.8438 109.844C77.2396 109.844 79.6354 110.104 82.0312 110.625C84.4271 111.146 86.7188 111.979 88.9062 113.125L97.8125 117.5C98.75 118.021 99.6875 118.385 100.625 118.594C101.562 118.802 102.5 118.906 103.438 118.906C105.417 118.906 107.292 118.385 109.062 117.344C110.833 116.302 112.604 114.74 114.375 112.656C117.708 108.698 120.313 103.958 122.188 98.4375C124.063 92.9167 125 87.2396 125 81.4063C125 67.4479 120.156 55.599 110.469 45.8594C100.781 36.1198 88.9583 31.25 75 31.25C61.0417 31.25 49.2188 36.1458 39.5313 45.9375C29.8438 55.7292 25 67.6042 25 81.5625C25 87.5 25.9635 93.2813 27.8906 98.9063C29.8177 104.531 32.5 109.271 35.9375 113.125C37.7083 115.208 39.4271 116.693 41.0938 117.578C42.7604 118.464 44.5312 118.906 46.4062 118.906ZM75 93.75C78.4375 93.75 81.3802 92.526 83.8281 90.0781C86.276 87.6302 87.5 84.6875 87.5 81.25C87.5 80.4167 87.4219 79.5833 87.2656 78.75C87.1094 77.9167 86.875 77.0833 86.5625 76.25L94.375 65.7813C95.4167 67.1354 96.3281 68.5677 97.1094 70.0781C97.8906 71.5885 98.5417 73.2292 99.0625 75H111.875C110.312 65.8333 106.068 58.3333 99.1406 52.5C92.2135 46.6667 84.1667 43.75 75 43.75C65.8333 43.75 57.7604 46.6927 50.7812 52.5781C43.8021 58.4635 39.5833 65.9375 38.125 75H50.9375C52.3958 69.375 55.3646 64.8438 59.8438 61.4063C64.3229 57.9688 69.375 56.25 75 56.25C76.7708 56.25 78.4375 56.4063 80 56.7188C81.5625 57.0313 83.0729 57.5 84.5312 58.125L76.5625 68.9063C76.3542 68.9063 76.0938 68.8802 75.7812 68.8281C75.4688 68.776 75.2083 68.75 75 68.75C71.5625 68.75 68.6198 69.974 66.1719 72.4219C63.724 74.8698 62.5 77.8125 62.5 81.25C62.5 84.6875 63.724 87.6302 66.1719 90.0781C68.6198 92.526 71.5625 93.75 75 93.75Z" fill="#1C1B1F"/>
</g>
</svg>
