<svg width="150" height="150" viewBox="0 0 150 150" fill="none" xmlns="http://www.w3.org/2000/svg">
<path d="M28.3604 40.7985C21.5999 37.4205 20.5979 26.1945 20.5979 26.1945C20.5979 26.1945 29.9069 23.7075 35.7359 28.5105C41.5724 33.3225 43.1099 43.074 43.1099 43.074C43.1099 43.074 33.2789 43.257 28.3604 40.7985Z" fill="black"/>
<path d="M20.5979 69.3405C20.5979 57.1215 30.5039 47.2155 42.7229 47.2155C54.9419 47.2155 64.8464 57.1215 64.8464 69.3405" fill="black"/>
<path d="M122.026 39.843C124.062 39.843 125.713 38.19 125.713 36.156C125.713 34.122 124.062 32.469 122.026 32.469H107.277C105.243 32.469 103.59 34.122 103.59 36.156C103.59 38.1915 105.243 39.843 107.277 39.843C107.277 54.5925 99.387 49.6755 99.387 69.342H114.651H129.402C129.402 49.674 122.026 54.591 122.026 39.843Z" fill="black"/>
<path d="M59.931 57.0495C57.471 47.2155 55.014 34.9245 52.5555 27.552C49.3485 17.934 55.014 5.1105 67.305 7.884C76.968 10.0695 84.5115 22.635 87.0705 42.4035C87.0705 42.4035 77.9595 32.466 74.679 34.926C74.679 34.926 72.711 36.804 77.502 39.4965C82.668 42.4035 94.5495 52.851 92.535 63.4725C92.535 63.4725 85.467 56.8305 80.136 55.317C78.6735 54.9 76.5495 57.825 79.593 59.508C82.092 60.8895 86.9685 64.425 91.8855 69.3405H64.8465" fill="black"/>
<path d="M20.5979 73.092L35.3564 142.5H75.3254H75.3329H114.393L129.4 73.092H20.5979ZM89.9579 102.203C89.8394 104.046 89.3954 105.797 88.6709 107.4C84.9959 117.597 74.9999 131.244 74.9999 131.244C74.9999 131.244 64.7894 117.476 61.2179 107.163C60.5609 105.636 60.1619 103.979 60.0449 102.242C60.0134 101.897 59.9939 101.556 59.9939 101.231C59.9939 92.9385 66.7124 86.2215 74.9999 86.2215C83.2904 86.2215 90.0089 92.9385 90.0089 101.231C90.0074 101.544 89.9879 101.87 89.9579 102.203Z" fill="black"/>
<path d="M74.9984 110.613C80.1794 110.613 84.3794 106.413 84.3794 101.232C84.3794 96.051 80.1794 91.851 74.9984 91.851C69.8175 91.851 65.6174 96.051 65.6174 101.232C65.6174 106.413 69.8175 110.613 74.9984 110.613Z" fill="black"/>
</svg>
