<svg width="150" height="150" viewBox="0 0 150 150" fill="none" xmlns="http://www.w3.org/2000/svg">
<g clip-path="url(#clip0_1689_285)">
<path d="M75.2025 37.451C54.5141 37.451 37.7393 54.2259 37.7393 74.9143H112.666C112.666 54.2259 95.8909 37.451 75.2025 37.451ZM88.2843 63.333C87.6474 64.2761 86.3674 64.5334 85.4242 63.8964C84.4811 63.2595 84.2238 61.9795 84.8608 61.0363C85.4977 60.0931 86.7777 59.8359 87.7209 60.4729C88.6641 61.1098 88.9213 62.3898 88.2843 63.333ZM89.6011 51.868C88.9642 52.8112 87.6841 53.0684 86.741 52.4315C85.7978 51.7945 85.5467 50.5145 86.1775 49.5713C86.8145 48.6282 88.0945 48.3709 89.0376 49.0079C89.9808 49.6448 90.238 50.9248 89.6011 51.868ZM99.6329 61.0792C98.996 62.0223 97.716 62.2796 96.7728 61.6426C95.8297 61.0057 95.5786 59.7257 96.2094 58.7825C96.8402 57.8393 98.1263 57.5821 99.0695 58.2191C100.013 58.856 100.264 60.136 99.6329 61.0792Z" fill="black"/>
<path d="M57.031 107.662L50.3738 123.549L59.1317 127.217L65.8441 111.189C68.8329 111.961 71.9686 112.371 75.1962 112.371C95.8539 112.371 112.659 95.566 112.659 74.9082H103.16C103.16 90.3296 90.6175 102.872 75.1962 102.872C59.7748 102.872 47.2319 90.3296 47.2319 74.9082H37.7329C37.7329 88.9761 45.5293 101.249 57.0249 107.656L57.031 107.662Z" fill="black"/>
<path d="M90.6911 18.6367C83.3234 18.6367 76.9234 22.7401 73.6284 28.7849C76.1639 31.1428 78.0748 34.1622 79.0669 37.5796C87.6412 35.6566 94.0718 28.0806 94.2249 18.9613C93.0797 18.7531 91.8976 18.6367 90.6911 18.6367Z" fill="black"/>
<path d="M60.4117 23.5791C58.9541 23.5791 57.5332 23.7445 56.1675 24.0507C58.5131 32.1472 65.9788 38.0695 74.8287 38.0695C76.2863 38.0695 77.7072 37.9042 79.0729 37.598C76.7273 29.5014 69.2616 23.5791 60.4117 23.5791Z" fill="black"/>
</g>
<defs>
<clipPath id="clip0_1689_285">
<rect width="150" height="150" fill="white"/>
</clipPath>
</defs>
</svg>
