<svg width="2045" height="1368" viewBox="0 0 2045 1368" fill="none" xmlns="http://www.w3.org/2000/svg">
<g clip-path="url(#clip0)">
<path d="M169.967 276.046C169.967 217.543 217.393 170.117 275.896 170.117H1769.49C1828 170.117 1875.42 217.543 1875.42 276.046V1091.7C1875.42 1150.2 1828 1197.63 1769.49 1197.63H275.896C217.393 1197.63 169.967 1150.2 169.967 1091.7V276.046Z" fill="white"/>
<mask id="mask0" mask-type="alpha" maskUnits="userSpaceOnUse" x="169" y="170" width="1707" height="1028">
<rect x="196.45" y="196.599" width="1652.49" height="974.547" rx="79.4467" stroke="black" stroke-width="52.9645"/>
</mask>
<g mask="url(#mask0)">
<path d="M1547.04 170.117H1875.42V1197.63H1547.04V170.117Z" fill="#DF1F1F"/>
<path d="M498.347 1197.63L169.967 1197.63L169.967 170.117L498.347 170.117L498.347 1197.63Z" fill="#1E8F4E"/>
<rect x="1186.89" y="170.117" width="360.158" height="1027.51" fill="#FF6F1E"/>
<rect x="869.099" y="170.117" width="317.787" height="1027.51" fill="#EEAE0E"/>
<rect x="498.347" y="170.117" width="370.751" height="1027.51" fill="#60AC0E"/>
</g>
</g>
<g clip-path="url(#clip1)">
<path d="M906.203 400.203C916.077 399.371 925.225 408.519 924.393 418.393C923.179 432.454 905.668 752.015 803.407 854.276C705.392 952.29 589.902 929.283 514.491 875.071C513.583 874.418 512.558 873.632 511.433 872.728L443.452 940.614C427.027 957.039 400.396 957.039 383.97 940.614C367.545 924.188 367.545 897.557 383.97 881.132L451.868 813.162C450.96 812.032 450.17 811.004 449.513 810.093C395.302 734.682 372.294 619.192 470.308 521.178C572.569 418.916 892.13 401.405 906.203 400.203Z" fill="#60AC0E"/>
<path d="M710.273 655.727C723.627 659.668 733.917 666.564 741.141 676.415C748.584 686.048 752.306 697.979 752.306 712.209C752.306 731.692 745.082 747.126 730.633 758.51C716.403 769.894 696.7 775.586 671.524 775.586H585.489C577.827 775.586 571.916 773.506 567.756 769.347C563.597 765.187 561.517 759.276 561.517 751.614V568.05C561.517 560.388 563.597 554.477 567.756 550.317C571.916 546.158 577.827 544.078 585.489 544.078H668.241C692.322 544.078 711.368 549.442 725.379 560.169C739.609 570.896 746.723 585.563 746.723 604.172C746.723 616.212 743.44 626.83 736.872 636.024C730.523 645 721.657 651.568 710.273 655.727ZM611.431 638.323H659.703C672.838 638.323 682.47 636.134 688.6 631.755C694.949 627.158 698.123 620.262 698.123 611.068C698.123 601.435 694.949 594.43 688.6 590.051C682.47 585.454 672.838 583.155 659.703 583.155H611.431V638.323ZM665.614 736.509C679.187 736.509 689.038 734.21 695.168 729.613C701.298 725.015 704.362 717.572 704.362 707.283C704.362 696.994 701.298 689.441 695.168 684.625C689.038 679.808 679.187 677.4 665.614 677.4H611.431V736.509H665.614Z" fill="white"/>
</g>
<path d="M1061.1 704.957C1053.68 704.957 1047.96 702.945 1043.94 698.919C1039.91 694.894 1037.9 689.174 1037.9 681.759V504.116C1037.9 496.701 1039.91 490.981 1043.94 486.956C1047.96 482.93 1053.68 480.918 1061.1 480.918H1173.6C1189.27 480.918 1197.11 487.273 1197.11 499.985C1197.11 512.908 1189.27 519.37 1173.6 519.37H1086.2V571.805H1167.24C1182.92 571.805 1190.76 578.266 1190.76 591.19C1190.76 603.901 1182.92 610.257 1167.24 610.257H1086.2V666.505H1173.6C1189.27 666.505 1197.11 672.967 1197.11 685.89C1197.11 698.602 1189.27 704.957 1173.6 704.957H1061.1ZM1329.24 707.817C1307.21 707.817 1287.93 703.157 1271.4 693.835C1254.88 684.513 1242.17 671.166 1233.27 653.794C1224.37 636.421 1219.92 616.083 1219.92 592.779C1219.92 569.474 1224.37 549.242 1233.27 532.081C1242.17 514.709 1254.88 501.362 1271.4 492.04C1287.93 482.718 1307.21 478.058 1329.24 478.058C1356.99 478.058 1380.93 485.684 1401.06 500.938C1404.24 503.48 1406.46 506.023 1407.73 508.565C1409 511.107 1409.64 514.285 1409.64 518.099C1409.64 523.607 1408.05 528.374 1404.87 532.399C1401.91 536.213 1398.2 538.119 1393.75 538.119C1390.78 538.119 1388.14 537.801 1385.81 537.166C1383.69 536.318 1381.25 534.941 1378.5 533.035C1370.02 527.526 1362.18 523.607 1354.98 521.277C1347.78 518.734 1340.04 517.463 1331.78 517.463C1311.44 517.463 1296.08 523.819 1285.7 536.53C1275.53 549.03 1270.45 567.779 1270.45 592.779C1270.45 643.201 1290.89 668.412 1331.78 668.412C1339.62 668.412 1347.04 667.247 1354.03 664.916C1361.02 662.374 1369.17 658.349 1378.5 652.84C1381.67 650.934 1384.32 649.662 1386.44 649.027C1388.56 648.179 1391 647.756 1393.75 647.756C1398.2 647.756 1401.91 649.768 1404.87 653.794C1408.05 657.607 1409.64 662.268 1409.64 667.776C1409.64 671.59 1408.9 674.874 1407.42 677.628C1406.14 680.17 1404.03 682.606 1401.06 684.937C1380.93 700.191 1356.99 707.817 1329.24 707.817ZM1539.96 707.817C1517.71 707.817 1498.33 703.157 1481.8 693.835C1465.49 684.301 1452.89 670.954 1443.99 653.794C1435.09 636.421 1430.64 616.083 1430.64 592.779C1430.64 569.474 1435.09 549.242 1443.99 532.081C1452.89 514.709 1465.49 501.362 1481.8 492.04C1498.33 482.718 1517.71 478.058 1539.96 478.058C1562.2 478.058 1581.48 482.718 1597.8 492.04C1614.32 501.362 1627.03 514.709 1635.93 532.081C1644.83 549.242 1649.28 569.474 1649.28 592.779C1649.28 616.083 1644.83 636.421 1635.93 653.794C1627.03 670.954 1614.32 684.301 1597.8 693.835C1581.48 703.157 1562.2 707.817 1539.96 707.817ZM1539.96 669.365C1558.6 669.365 1573.22 662.798 1583.81 649.662C1594.62 636.527 1600.02 617.566 1600.02 592.779C1600.02 567.991 1594.73 549.136 1584.13 536.213C1573.54 523.077 1558.82 516.51 1539.96 516.51C1521.1 516.51 1506.38 523.077 1495.79 536.213C1485.41 549.136 1480.22 567.991 1480.22 592.779C1480.22 617.566 1485.51 636.527 1496.11 649.662C1506.7 662.798 1521.32 669.365 1539.96 669.365ZM1091.06 907.578C1081.46 907.578 1072.51 906.558 1064.23 904.517C1056.07 902.356 1049.34 899.415 1044.06 895.693C1042.02 894.132 1040.52 892.511 1039.56 890.831C1038.72 889.15 1038.3 886.989 1038.3 884.348C1038.3 880.746 1039.38 877.625 1041.54 874.984C1043.7 872.343 1046.22 871.022 1049.1 871.022C1050.66 871.022 1052.16 871.262 1053.6 871.742C1055.04 872.223 1056.85 873.123 1059.01 874.444C1063.93 877.205 1068.79 879.186 1073.59 880.386C1078.51 881.587 1084.04 882.187 1090.16 882.187C1097.24 882.187 1102.59 881.166 1106.19 879.126C1109.91 876.965 1111.77 873.843 1111.77 869.761C1111.77 867 1110.03 864.659 1106.55 862.738C1103.19 860.697 1096.7 858.717 1087.1 856.796C1075.21 854.275 1065.91 851.273 1059.19 847.792C1052.46 844.31 1047.72 840.228 1044.96 835.546C1042.32 830.744 1041 824.982 1041 818.259C1041 810.575 1043.28 803.612 1047.84 797.37C1052.4 791.127 1058.65 786.265 1066.57 782.783C1074.61 779.182 1083.62 777.381 1093.58 777.381C1102.35 777.381 1110.15 778.341 1116.99 780.262C1123.83 782.183 1130.08 785.184 1135.72 789.266C1137.88 790.827 1139.38 792.507 1140.22 794.308C1141.18 795.989 1141.66 798.09 1141.66 800.611C1141.66 804.213 1140.58 807.334 1138.42 809.975C1136.38 812.616 1133.92 813.937 1131.04 813.937C1129.48 813.937 1128.04 813.757 1126.72 813.397C1125.4 812.916 1123.53 811.956 1121.13 810.515C1120.53 810.155 1118.79 809.255 1115.91 807.814C1113.15 806.254 1109.85 805.053 1106.01 804.213C1102.29 803.252 1098.2 802.772 1093.76 802.772C1087.64 802.772 1082.72 803.973 1079 806.374C1075.27 808.655 1073.41 811.716 1073.41 815.558C1073.41 817.839 1074.07 819.699 1075.39 821.14C1076.71 822.581 1079.18 824.021 1082.78 825.462C1086.38 826.783 1091.72 828.163 1098.8 829.604C1110.33 832.125 1119.39 835.186 1126 838.788C1132.6 842.269 1137.28 846.351 1140.04 851.033C1142.8 855.715 1144.18 861.238 1144.18 867.601C1144.18 875.524 1141.96 882.547 1137.52 888.67C1133.08 894.672 1126.84 899.354 1118.79 902.716C1110.87 905.957 1101.63 907.578 1091.06 907.578ZM1223.07 907.578C1210.34 907.578 1199.18 904.937 1189.58 899.655C1180.09 894.372 1172.71 886.809 1167.43 876.965C1162.26 867.12 1159.68 855.595 1159.68 842.389C1159.68 829.304 1162.26 817.839 1167.43 807.994C1172.71 798.15 1180.09 790.587 1189.58 785.304C1199.18 780.022 1210.34 777.381 1223.07 777.381C1238.32 777.381 1251.7 781.403 1263.23 789.446C1265.27 790.887 1266.71 792.447 1267.55 794.128C1268.51 795.809 1268.99 797.97 1268.99 800.611C1268.99 804.333 1267.91 807.514 1265.75 810.155C1263.71 812.676 1261.19 813.937 1258.19 813.937C1256.38 813.937 1254.76 813.697 1253.32 813.217C1251.88 812.616 1250.2 811.716 1248.28 810.515C1244.08 807.994 1240.12 806.193 1236.4 805.113C1232.67 804.033 1228.83 803.492 1224.87 803.492C1214.19 803.492 1206.2 806.734 1200.92 813.217C1195.76 819.579 1193.18 829.304 1193.18 842.389C1193.18 855.595 1195.76 865.44 1200.92 871.922C1206.2 878.285 1214.19 881.467 1224.87 881.467C1228.47 881.467 1231.95 880.926 1235.32 879.846C1238.68 878.645 1243 876.845 1248.28 874.444C1250.8 873.123 1252.66 872.223 1253.86 871.742C1255.06 871.262 1256.5 871.022 1258.19 871.022C1261.19 871.022 1263.71 872.343 1265.75 874.984C1267.91 877.505 1268.99 880.626 1268.99 884.348C1268.99 886.869 1268.51 889.03 1267.55 890.831C1266.71 892.511 1265.27 894.072 1263.23 895.513C1251.7 903.556 1238.32 907.578 1223.07 907.578ZM1342.48 907.578C1329.52 907.578 1318.23 904.937 1308.63 899.655C1299.14 894.252 1291.82 886.689 1286.66 876.965C1281.5 867.12 1278.91 855.595 1278.91 842.389C1278.91 829.184 1281.5 817.719 1286.66 807.994C1291.82 798.15 1299.14 790.587 1308.63 785.304C1318.23 780.022 1329.52 777.381 1342.48 777.381C1355.45 777.381 1366.67 780.022 1376.16 785.304C1385.76 790.587 1393.08 798.15 1398.13 807.994C1403.29 817.719 1405.87 829.184 1405.87 842.389C1405.87 855.595 1403.29 867.12 1398.13 876.965C1392.96 886.689 1385.58 894.252 1375.98 899.655C1366.49 904.937 1355.33 907.578 1342.48 907.578ZM1342.48 882.187C1352.09 882.187 1359.59 878.825 1364.99 872.102C1370.39 865.259 1373.1 855.355 1373.1 842.389C1373.1 829.424 1370.33 819.579 1364.81 812.856C1359.41 806.133 1351.97 802.772 1342.48 802.772C1332.88 802.772 1325.37 806.133 1319.97 812.856C1314.57 819.459 1311.87 829.304 1311.87 842.389C1311.87 855.475 1314.57 865.38 1319.97 872.102C1325.37 878.825 1332.88 882.187 1342.48 882.187ZM1532.27 884.888C1534.43 888.13 1535.51 891.191 1535.51 894.072C1535.51 897.914 1533.89 901.155 1530.65 903.796C1527.53 906.318 1523.86 907.578 1519.66 907.578C1516.78 907.578 1514.08 906.918 1511.56 905.597C1509.04 904.277 1506.88 902.296 1505.08 899.655L1481.66 865.44C1479.98 863.039 1478.18 861.298 1476.26 860.217C1474.46 859.017 1472.3 858.416 1469.78 858.416H1458.07V890.651C1458.07 895.693 1456.63 899.715 1453.75 902.716C1450.87 905.597 1446.91 907.038 1441.87 907.038C1436.83 907.038 1432.8 905.597 1429.8 902.716C1426.92 899.715 1425.48 895.693 1425.48 890.651V794.308C1425.48 789.386 1426.8 785.604 1429.44 782.963C1432.08 780.322 1435.86 779.002 1440.79 779.002H1485.99C1501.35 779.002 1512.88 782.363 1520.56 789.086C1528.37 795.689 1532.27 805.293 1532.27 817.899C1532.27 827.503 1529.63 835.666 1524.34 842.389C1519.06 848.992 1511.62 853.434 1502.01 855.715C1505.98 856.316 1509.4 857.636 1512.28 859.677C1515.28 861.718 1518.22 864.779 1521.1 868.861L1532.27 884.888ZM1480.76 833.566C1488.09 833.566 1493.31 832.425 1496.43 830.144C1499.67 827.863 1501.29 824.141 1501.29 818.979C1501.29 813.697 1499.67 809.915 1496.43 807.634C1493.31 805.233 1488.09 804.033 1480.76 804.033H1457.71V833.566H1480.76ZM1568.11 905.957C1563.19 905.957 1559.4 904.637 1556.76 901.996C1554.12 899.354 1552.8 895.573 1552.8 890.651V794.308C1552.8 789.386 1554.12 785.604 1556.76 782.963C1559.4 780.322 1563.19 779.002 1568.11 779.002H1630.42C1635.58 779.002 1639.48 780.082 1642.12 782.243C1644.76 784.404 1646.08 787.525 1646.08 791.607C1646.08 800.251 1640.86 804.573 1630.42 804.573H1585.04V828.703H1626.81C1637.26 828.703 1642.48 832.965 1642.48 841.489C1642.48 845.571 1641.16 848.692 1638.52 850.853C1635.88 853.014 1631.98 854.095 1626.81 854.095H1585.04V880.386H1630.42C1640.86 880.386 1646.08 884.708 1646.08 893.352C1646.08 897.434 1644.76 900.555 1642.12 902.716C1639.48 904.877 1635.58 905.957 1630.42 905.957H1568.11Z" fill="#4A4A4A"/>
<defs>
<clipPath id="clip0">
<path d="M169.967 276.046C169.967 217.543 217.393 170.117 275.896 170.117H1769.49C1828 170.117 1875.42 217.543 1875.42 276.046V1091.7C1875.42 1150.2 1828 1197.63 1769.49 1197.63H275.896C217.393 1197.63 169.967 1150.2 169.967 1091.7V276.046Z" fill="white"/>
</clipPath>
<clipPath id="clip1">
<rect width="572.016" height="572.016" fill="white" transform="translate(365.724 387.028)"/>
</clipPath>
</defs>
</svg>
