<svg width="1918" height="1240" viewBox="0 0 1918 1240" fill="none" xmlns="http://www.w3.org/2000/svg">
<g clip-path="url(#clip0)">
<rect x="158.945" y="159.088" width="1599.53" height="921.582" rx="52.9645" fill="white"/>
<g clip-path="url(#clip1)">
<path d="M847.725 341.749C857.599 340.916 866.747 350.064 865.915 359.938C864.701 374 847.19 693.56 744.929 795.821C646.914 893.836 531.424 870.828 456.013 816.616C455.105 815.963 454.08 815.177 452.955 814.274L384.974 882.159C368.549 898.585 341.918 898.585 325.492 882.159C309.067 865.734 309.067 839.103 325.492 822.678L393.39 754.707C392.482 753.578 391.692 752.549 391.035 751.638C336.824 676.227 313.816 560.737 411.83 462.723C514.091 360.462 833.652 342.95 847.725 341.749Z" fill="#1E8F4E"/>
<path d="M708.683 685.935C710.435 689.876 711.31 693.379 711.31 696.443C711.31 702.573 708.793 707.827 703.757 712.206C698.941 716.365 693.359 718.445 687.01 718.445C682.851 718.445 678.91 717.35 675.188 715.161C671.467 712.753 668.621 709.25 666.651 704.653L649.246 665.904H537.926L520.522 704.653C518.551 709.25 515.705 712.753 511.984 715.161C508.481 717.35 504.54 718.445 500.162 718.445C493.813 718.445 488.121 716.365 483.086 712.206C478.051 707.827 475.534 702.573 475.534 696.443C475.534 693.379 476.409 689.876 478.161 685.935L566.823 499.744C569.231 494.49 572.843 490.549 577.66 487.922C582.476 485.076 587.62 483.653 593.093 483.653C598.785 483.653 604.039 485.076 608.856 487.922C613.672 490.768 617.394 494.709 620.021 499.744L708.683 685.935ZM555.33 627.155H631.842L593.75 541.776L555.33 627.155Z" fill="white"/>
</g>
<path d="M1002.62 646.503C995.207 646.503 989.486 644.49 985.461 640.465C981.436 636.44 979.423 630.72 979.423 623.304V445.662C979.423 438.247 981.436 432.526 985.461 428.501C989.486 424.476 995.207 422.463 1002.62 422.463H1115.12C1130.8 422.463 1138.63 428.819 1138.63 441.53C1138.63 454.454 1130.8 460.915 1115.12 460.915H1027.73V513.35H1108.76C1124.44 513.35 1132.28 519.812 1132.28 532.735C1132.28 545.447 1124.44 551.802 1108.76 551.802H1027.73V608.051H1115.12C1130.8 608.051 1138.63 614.512 1138.63 627.436C1138.63 640.147 1130.8 646.503 1115.12 646.503H1002.62ZM1270.76 649.363C1248.73 649.363 1229.45 644.702 1212.92 635.38C1196.4 626.059 1183.69 612.712 1174.79 595.339C1165.89 577.967 1161.44 557.629 1161.44 534.324C1161.44 511.02 1165.89 490.787 1174.79 473.627C1183.69 456.254 1196.4 442.907 1212.92 433.586C1229.45 424.264 1248.73 419.603 1270.76 419.603C1298.52 419.603 1322.46 427.23 1342.58 442.484C1345.76 445.026 1347.98 447.568 1349.26 450.111C1350.53 452.653 1351.16 455.831 1351.16 459.644C1351.16 465.153 1349.57 469.919 1346.39 473.945C1343.43 477.758 1339.72 479.665 1335.27 479.665C1332.31 479.665 1329.66 479.347 1327.33 478.711C1325.21 477.864 1322.77 476.487 1320.02 474.58C1311.54 469.072 1303.71 465.153 1296.5 462.822C1289.3 460.28 1281.57 459.009 1273.3 459.009C1252.97 459.009 1237.61 465.364 1227.22 478.076C1217.06 490.575 1211.97 509.325 1211.97 534.324C1211.97 584.746 1232.42 609.957 1273.3 609.957C1281.14 609.957 1288.56 608.792 1295.55 606.462C1302.54 603.919 1310.7 599.894 1320.02 594.386C1323.2 592.479 1325.84 591.208 1327.96 590.572C1330.08 589.725 1332.52 589.301 1335.27 589.301C1339.72 589.301 1343.43 591.314 1346.39 595.339C1349.57 599.153 1351.16 603.814 1351.16 609.322C1351.16 613.135 1350.42 616.419 1348.94 619.173C1347.67 621.716 1345.55 624.152 1342.58 626.482C1322.46 641.736 1298.52 649.363 1270.76 649.363ZM1481.48 649.363C1459.24 649.363 1439.85 644.702 1423.33 635.38C1407.01 625.847 1394.41 612.5 1385.51 595.339C1376.61 577.967 1372.16 557.629 1372.16 534.324C1372.16 511.02 1376.61 490.787 1385.51 473.627C1394.41 456.254 1407.01 442.907 1423.33 433.586C1439.85 424.264 1459.24 419.603 1481.48 419.603C1503.73 419.603 1523.01 424.264 1539.32 433.586C1555.84 442.907 1568.56 456.254 1577.45 473.627C1586.35 490.787 1590.8 511.02 1590.8 534.324C1590.8 557.629 1586.35 577.967 1577.45 595.339C1568.56 612.5 1555.84 625.847 1539.32 635.38C1523.01 644.702 1503.73 649.363 1481.48 649.363ZM1481.48 610.911C1500.13 610.911 1514.74 604.343 1525.34 591.208C1536.14 578.073 1541.54 559.112 1541.54 534.324C1541.54 509.537 1536.25 490.681 1525.65 477.758C1515.06 464.623 1500.34 458.055 1481.48 458.055C1462.63 458.055 1447.9 464.623 1437.31 477.758C1426.93 490.681 1421.74 509.537 1421.74 534.324C1421.74 559.112 1427.03 578.073 1437.63 591.208C1448.22 604.343 1462.84 610.911 1481.48 610.911ZM1032.58 849.124C1022.98 849.124 1014.03 848.103 1005.75 846.062C997.587 843.901 990.864 840.96 985.582 837.238C983.541 835.678 982.04 834.057 981.08 832.376C980.239 830.696 979.819 828.535 979.819 825.893C979.819 822.292 980.9 819.17 983.061 816.529C985.222 813.888 987.743 812.568 990.624 812.568C992.185 812.568 993.685 812.808 995.126 813.288C996.567 813.768 998.367 814.668 1000.53 815.989C1005.45 818.75 1010.31 820.731 1015.11 821.932C1020.04 823.132 1025.56 823.732 1031.68 823.732C1038.77 823.732 1044.11 822.712 1047.71 820.671C1051.43 818.51 1053.29 815.389 1053.29 811.307C1053.29 808.546 1051.55 806.205 1048.07 804.284C1044.71 802.243 1038.22 800.262 1028.62 798.341C1016.74 795.82 1007.43 792.819 1000.71 789.337C993.985 785.856 989.243 781.774 986.482 777.092C983.841 772.29 982.52 766.527 982.52 759.804C982.52 752.121 984.801 745.158 989.363 738.915C993.925 732.672 1000.17 727.81 1008.09 724.329C1016.14 720.727 1025.14 718.926 1035.1 718.926C1043.87 718.926 1051.67 719.887 1058.51 721.808C1065.36 723.728 1071.6 726.73 1077.24 730.812C1079.4 732.372 1080.9 734.053 1081.74 735.854C1082.7 737.535 1083.18 739.635 1083.18 742.157C1083.18 745.758 1082.1 748.88 1079.94 751.521C1077.9 754.162 1075.44 755.482 1072.56 755.482C1071 755.482 1069.56 755.302 1068.24 754.942C1066.92 754.462 1065.06 753.502 1062.66 752.061C1062.06 751.701 1060.31 750.8 1057.43 749.36C1054.67 747.799 1051.37 746.599 1047.53 745.758C1043.81 744.798 1039.73 744.318 1035.28 744.318C1029.16 744.318 1024.24 745.518 1020.52 747.919C1016.8 750.2 1014.93 753.261 1014.93 757.103C1014.93 759.384 1015.59 761.245 1016.92 762.686C1018.24 764.126 1020.7 765.567 1024.3 767.008C1027.9 768.328 1033.24 769.709 1040.33 771.149C1051.85 773.67 1060.91 776.732 1067.52 780.333C1074.12 783.815 1078.8 787.897 1081.56 792.579C1084.33 797.261 1085.71 802.783 1085.71 809.146C1085.71 817.07 1083.48 824.093 1079.04 830.215C1074.6 836.218 1068.36 840.9 1060.31 844.262C1052.39 847.503 1043.15 849.124 1032.58 849.124ZM1164.59 849.124C1151.87 849.124 1140.7 846.482 1131.1 841.2C1121.61 835.918 1114.23 828.355 1108.95 818.51C1103.78 808.666 1101.2 797.141 1101.2 783.935C1101.2 770.849 1103.78 759.384 1108.95 749.54C1114.23 739.695 1121.61 732.132 1131.1 726.85C1140.7 721.568 1151.87 718.926 1164.59 718.926C1179.84 718.926 1193.22 722.948 1204.75 730.992C1206.79 732.432 1208.23 733.993 1209.07 735.674C1210.03 737.354 1210.51 739.515 1210.51 742.157C1210.51 745.878 1209.43 749.06 1207.27 751.701C1205.23 754.222 1202.71 755.482 1199.71 755.482C1197.91 755.482 1196.29 755.242 1194.85 754.762C1193.4 754.162 1191.72 753.261 1189.8 752.061C1185.6 749.54 1181.64 747.739 1177.92 746.659C1174.2 745.578 1170.35 745.038 1166.39 745.038C1155.71 745.038 1147.72 748.279 1142.44 754.762C1137.28 761.125 1134.7 770.849 1134.7 783.935C1134.7 797.141 1137.28 806.985 1142.44 813.468C1147.72 819.831 1155.71 823.012 1166.39 823.012C1169.99 823.012 1173.48 822.472 1176.84 821.391C1180.2 820.191 1184.52 818.39 1189.8 815.989C1192.32 814.668 1194.18 813.768 1195.39 813.288C1196.59 812.808 1198.03 812.568 1199.71 812.568C1202.71 812.568 1205.23 813.888 1207.27 816.529C1209.43 819.05 1210.51 822.172 1210.51 825.893C1210.51 828.415 1210.03 830.575 1209.07 832.376C1208.23 834.057 1206.79 835.618 1204.75 837.058C1193.22 845.102 1179.84 849.124 1164.59 849.124ZM1284 849.124C1271.04 849.124 1259.75 846.482 1250.15 841.2C1240.66 835.798 1233.34 828.234 1228.18 818.51C1223.02 808.666 1220.44 797.141 1220.44 783.935C1220.44 770.729 1223.02 759.264 1228.18 749.54C1233.34 739.695 1240.66 732.132 1250.15 726.85C1259.75 721.568 1271.04 718.926 1284 718.926C1296.97 718.926 1308.19 721.568 1317.68 726.85C1327.28 732.132 1334.61 739.695 1339.65 749.54C1344.81 759.264 1347.39 770.729 1347.39 783.935C1347.39 797.141 1344.81 808.666 1339.65 818.51C1334.49 828.234 1327.1 835.798 1317.5 841.2C1308.01 846.482 1296.85 849.124 1284 849.124ZM1284 823.732C1293.61 823.732 1301.11 820.371 1306.51 813.648C1311.92 806.805 1314.62 796.901 1314.62 783.935C1314.62 770.969 1311.86 761.125 1306.33 754.402C1300.93 747.679 1293.49 744.318 1284 744.318C1274.4 744.318 1266.9 747.679 1261.49 754.402C1256.09 761.005 1253.39 770.849 1253.39 783.935C1253.39 797.021 1256.09 806.925 1261.49 813.648C1266.9 820.371 1274.4 823.732 1284 823.732ZM1473.79 826.434C1475.95 829.675 1477.03 832.736 1477.03 835.618C1477.03 839.459 1475.41 842.701 1472.17 845.342C1469.05 847.863 1465.39 849.124 1461.18 849.124C1458.3 849.124 1455.6 848.463 1453.08 847.143C1450.56 845.822 1448.4 843.841 1446.6 841.2L1423.19 806.985C1421.51 804.584 1419.71 802.843 1417.78 801.763C1415.98 800.562 1413.82 799.962 1411.3 799.962H1399.6V832.196C1399.6 837.238 1398.16 841.26 1395.27 844.262C1392.39 847.143 1388.43 848.583 1383.39 848.583C1378.35 848.583 1374.33 847.143 1371.32 844.262C1368.44 841.26 1367 837.238 1367 832.196V735.854C1367 730.932 1368.32 727.15 1370.96 724.509C1373.61 721.868 1377.39 720.547 1382.31 720.547H1427.51C1442.88 720.547 1454.4 723.909 1462.08 730.631C1469.89 737.234 1473.79 746.839 1473.79 759.444C1473.79 769.048 1471.15 777.212 1465.87 783.935C1460.58 790.538 1453.14 794.98 1443.54 797.261C1447.5 797.861 1450.92 799.182 1453.8 801.223C1456.8 803.263 1459.74 806.325 1462.62 810.407L1473.79 826.434ZM1422.29 775.111C1429.61 775.111 1434.83 773.971 1437.95 771.69C1441.19 769.409 1442.82 765.687 1442.82 760.525C1442.82 755.242 1441.19 751.461 1437.95 749.18C1434.83 746.779 1429.61 745.578 1422.29 745.578H1399.24V775.111H1422.29ZM1509.63 847.503C1504.71 847.503 1500.93 846.182 1498.29 843.541C1495.64 840.9 1494.32 837.118 1494.32 832.196V735.854C1494.32 730.932 1495.64 727.15 1498.29 724.509C1500.93 721.868 1504.71 720.547 1509.63 720.547H1571.94C1577.1 720.547 1581 721.628 1583.64 723.788C1586.28 725.949 1587.6 729.071 1587.6 733.153C1587.6 741.796 1582.38 746.118 1571.94 746.118H1526.56V770.249H1568.34C1578.78 770.249 1584 774.511 1584 783.035C1584 787.116 1582.68 790.238 1580.04 792.399C1577.4 794.56 1573.5 795.64 1568.34 795.64H1526.56V821.932H1571.94C1582.38 821.932 1587.6 826.254 1587.6 834.897C1587.6 838.979 1586.28 842.101 1583.64 844.262C1581 846.422 1577.1 847.503 1571.94 847.503H1509.63Z" fill="#4A4A4A"/>
</g>
<defs>
<clipPath id="clip0">
<rect width="1917.31" height="1239.37" fill="white" transform="translate(0.0517578 0.194153)"/>
</clipPath>
<clipPath id="clip1">
<rect width="572.016" height="572.016" fill="white" transform="translate(307.246 328.574)"/>
</clipPath>
</defs>
</svg>
