<svg width="1601" height="753" viewBox="0 0 1601 753" fill="none" xmlns="http://www.w3.org/2000/svg">
<g clip-path="url(#clip0)">
<g clip-path="url(#clip1)">
<path d="M689.547 98.3443C699.421 97.5116 708.569 106.66 707.736 116.534C706.523 130.595 689.012 450.156 586.75 552.417C488.736 650.431 373.246 627.424 297.835 573.212C296.927 572.559 295.902 571.773 294.777 570.869L226.796 638.755C210.37 655.18 183.739 655.18 167.314 638.755C150.889 622.329 150.889 595.698 167.314 579.273L235.212 511.303C234.304 510.173 233.513 509.145 232.857 508.234C178.645 432.823 155.638 317.333 253.652 219.319C355.913 117.057 675.474 99.5459 689.547 98.3443Z" fill="black"/>
<path d="M384.707 473.727C377.045 473.727 371.134 471.647 366.975 467.488C362.815 463.328 360.736 457.417 360.736 449.755V266.191C360.736 258.529 362.815 252.618 366.975 248.458C371.134 244.299 377.045 242.219 384.707 242.219H500.954C517.154 242.219 525.254 248.787 525.254 261.922C525.254 275.276 517.154 281.953 500.954 281.953H410.649V336.136H494.386C510.586 336.136 518.686 342.813 518.686 356.167C518.686 369.302 510.586 375.87 494.386 375.87H410.649V433.993H500.954C517.154 433.993 525.254 440.67 525.254 454.024C525.254 467.159 517.154 473.727 500.954 473.727H384.707Z" fill="white"/>
</g>
<path d="M844.443 403.098C837.028 403.098 831.308 401.086 827.283 397.06C823.258 393.035 821.245 387.315 821.245 379.9V202.257C821.245 194.842 823.258 189.122 827.283 185.097C831.308 181.071 837.028 179.059 844.443 179.059H956.94C972.617 179.059 980.456 185.414 980.456 198.126C980.456 211.049 972.617 217.511 956.94 217.511H869.549V269.946H950.584C966.262 269.946 974.1 276.407 974.1 289.331C974.1 302.042 966.262 308.398 950.584 308.398H869.549V364.646H956.94C972.617 364.646 980.456 371.108 980.456 384.031C980.456 396.743 972.617 403.098 956.94 403.098H844.443ZM1112.58 405.958C1090.55 405.958 1071.27 401.298 1054.75 391.976C1038.22 382.654 1025.51 369.307 1016.61 351.935C1007.71 334.562 1003.26 314.224 1003.26 290.92C1003.26 267.615 1007.71 247.383 1016.61 230.222C1025.51 212.85 1038.22 199.503 1054.75 190.181C1071.27 180.859 1090.55 176.199 1112.58 176.199C1140.34 176.199 1164.28 183.825 1184.4 199.079C1187.58 201.621 1189.81 204.164 1191.08 206.706C1192.35 209.248 1192.98 212.426 1192.98 216.24C1192.98 221.748 1191.39 226.515 1188.22 230.54C1185.25 234.354 1181.54 236.26 1177.09 236.26C1174.13 236.26 1171.48 235.942 1169.15 235.307C1167.03 234.459 1164.59 233.082 1161.84 231.176C1153.37 225.667 1145.53 221.748 1138.32 219.418C1131.12 216.875 1123.39 215.604 1115.13 215.604C1094.79 215.604 1079.43 221.96 1069.05 234.671C1058.88 247.171 1053.79 265.92 1053.79 290.92C1053.79 341.342 1074.24 366.553 1115.13 366.553C1122.96 366.553 1130.38 365.388 1137.37 363.057C1144.36 360.515 1152.52 356.49 1161.84 350.981C1165.02 349.075 1167.67 347.803 1169.79 347.168C1171.9 346.32 1174.34 345.897 1177.09 345.897C1181.54 345.897 1185.25 347.909 1188.22 351.935C1191.39 355.748 1192.98 360.409 1192.98 365.917C1192.98 369.731 1192.24 373.015 1190.76 375.769C1189.49 378.311 1187.37 380.747 1184.4 383.078C1164.28 398.332 1140.34 405.958 1112.58 405.958ZM1323.3 405.958C1301.06 405.958 1281.67 401.298 1265.15 391.976C1248.84 382.442 1236.23 369.095 1227.33 351.935C1218.43 334.562 1213.98 314.224 1213.98 290.92C1213.98 267.615 1218.43 247.383 1227.33 230.222C1236.23 212.85 1248.84 199.503 1265.15 190.181C1281.67 180.859 1301.06 176.199 1323.3 176.199C1345.55 176.199 1364.83 180.859 1381.14 190.181C1397.67 199.503 1410.38 212.85 1419.28 230.222C1428.17 247.383 1432.62 267.615 1432.62 290.92C1432.62 314.224 1428.17 334.562 1419.28 351.935C1410.38 369.095 1397.67 382.442 1381.14 391.976C1364.83 401.298 1345.55 405.958 1323.3 405.958ZM1323.3 367.506C1341.95 367.506 1356.57 360.939 1367.16 347.803C1377.96 334.668 1383.37 315.707 1383.37 290.92C1383.37 266.132 1378.07 247.277 1367.48 234.354C1356.88 221.218 1342.16 214.651 1323.3 214.651C1304.45 214.651 1289.72 221.218 1279.13 234.354C1268.75 247.277 1263.56 266.132 1263.56 290.92C1263.56 315.707 1268.86 334.668 1279.45 347.803C1290.04 360.939 1304.66 367.506 1323.3 367.506ZM874.404 605.719C864.8 605.719 855.856 604.699 847.572 602.658C839.409 600.497 832.686 597.556 827.404 593.834C825.363 592.273 823.862 590.652 822.902 588.972C822.061 587.291 821.641 585.13 821.641 582.489C821.641 578.887 822.721 575.766 824.882 573.125C827.043 570.484 829.564 569.163 832.446 569.163C834.006 569.163 835.507 569.403 836.948 569.883C838.388 570.364 840.189 571.264 842.35 572.585C847.272 575.346 852.134 577.327 856.936 578.527C861.859 579.728 867.381 580.328 873.504 580.328C880.587 580.328 885.929 579.307 889.531 577.267C893.252 575.106 895.113 571.984 895.113 567.902C895.113 565.141 893.373 562.8 889.891 560.879C886.53 558.838 880.047 556.858 870.442 554.937C858.557 552.416 849.253 549.414 842.53 545.933C835.807 542.451 831.065 538.369 828.304 533.687C825.663 528.885 824.342 523.123 824.342 516.4C824.342 508.716 826.623 501.753 831.185 495.511C835.747 489.268 841.99 484.406 849.913 480.924C857.957 477.323 866.961 475.522 876.925 475.522C885.689 475.522 893.493 476.482 900.336 478.403C907.179 480.324 913.421 483.325 919.064 487.407C921.225 488.968 922.725 490.648 923.566 492.449C924.526 494.13 925.006 496.231 925.006 498.752C925.006 502.354 923.926 505.475 921.765 508.116C919.724 510.757 917.263 512.078 914.382 512.078C912.821 512.078 911.38 511.898 910.06 511.538C908.739 511.057 906.878 510.097 904.477 508.656C903.877 508.296 902.136 507.396 899.255 505.955C896.494 504.395 893.192 503.194 889.351 502.354C885.629 501.393 881.547 500.913 877.105 500.913C870.983 500.913 866.061 502.114 862.339 504.515C858.617 506.796 856.756 509.857 856.756 513.699C856.756 515.98 857.417 517.84 858.737 519.281C860.058 520.722 862.519 522.162 866.121 523.603C869.722 524.924 875.064 526.304 882.148 527.745C893.673 530.266 902.737 533.327 909.34 536.929C915.942 540.41 920.625 544.492 923.386 549.174C926.147 553.856 927.528 559.379 927.528 565.742C927.528 573.665 925.307 580.688 920.865 586.811C916.423 592.813 910.18 597.495 902.136 600.857C894.213 604.098 884.969 605.719 874.404 605.719ZM1006.41 605.719C993.688 605.719 982.523 603.078 972.919 597.796C963.435 592.513 956.051 584.95 950.769 575.106C945.607 565.261 943.026 553.736 943.026 540.53C943.026 527.445 945.607 515.98 950.769 506.135C956.051 496.291 963.435 488.728 972.919 483.445C982.523 478.163 993.688 475.522 1006.41 475.522C1021.66 475.522 1035.05 479.544 1046.57 487.587C1048.61 489.028 1050.05 490.588 1050.89 492.269C1051.85 493.95 1052.33 496.111 1052.33 498.752C1052.33 502.474 1051.25 505.655 1049.09 508.296C1047.05 510.817 1044.53 512.078 1041.53 512.078C1039.73 512.078 1038.11 511.838 1036.67 511.358C1035.23 510.757 1033.55 509.857 1031.62 508.656C1027.42 506.135 1023.46 504.334 1019.74 503.254C1016.02 502.174 1012.18 501.633 1008.21 501.633C997.53 501.633 989.546 504.875 984.264 511.358C979.101 517.72 976.52 527.445 976.52 540.53C976.52 553.736 979.101 563.581 984.264 570.063C989.546 576.426 997.53 579.608 1008.21 579.608C1011.82 579.608 1015.3 579.067 1018.66 577.987C1022.02 576.786 1026.34 574.986 1031.62 572.585C1034.15 571.264 1036.01 570.364 1037.21 569.883C1038.41 569.403 1039.85 569.163 1041.53 569.163C1044.53 569.163 1047.05 570.484 1049.09 573.125C1051.25 575.646 1052.33 578.767 1052.33 582.489C1052.33 585.01 1051.85 587.171 1050.89 588.972C1050.05 590.652 1048.61 592.213 1046.57 593.654C1035.05 601.697 1021.66 605.719 1006.41 605.719ZM1125.83 605.719C1112.86 605.719 1101.58 603.078 1091.97 597.796C1082.49 592.393 1075.16 584.83 1070 575.106C1064.84 565.261 1062.26 553.736 1062.26 540.53C1062.26 527.325 1064.84 515.86 1070 506.135C1075.16 496.291 1082.49 488.728 1091.97 483.445C1101.58 478.163 1112.86 475.522 1125.83 475.522C1138.79 475.522 1150.02 478.163 1159.5 483.445C1169.1 488.728 1176.43 496.291 1181.47 506.135C1186.63 515.86 1189.21 527.325 1189.21 540.53C1189.21 553.736 1186.63 565.261 1181.47 575.106C1176.31 584.83 1168.92 592.393 1159.32 597.796C1149.84 603.078 1138.67 605.719 1125.83 605.719ZM1125.83 580.328C1135.43 580.328 1142.93 576.966 1148.34 570.243C1153.74 563.4 1156.44 553.496 1156.44 540.53C1156.44 527.565 1153.68 517.72 1148.16 510.997C1142.75 504.274 1135.31 500.913 1125.83 500.913C1116.22 500.913 1108.72 504.274 1103.32 510.997C1097.91 517.6 1095.21 527.445 1095.21 540.53C1095.21 553.616 1097.91 563.521 1103.32 570.243C1108.72 576.966 1116.22 580.328 1125.83 580.328ZM1315.61 583.029C1317.77 586.271 1318.85 589.332 1318.85 592.213C1318.85 596.055 1317.23 599.296 1313.99 601.937C1310.87 604.459 1307.21 605.719 1303.01 605.719C1300.12 605.719 1297.42 605.059 1294.9 603.738C1292.38 602.418 1290.22 600.437 1288.42 597.796L1265.01 563.581C1263.33 561.18 1261.53 559.439 1259.61 558.358C1257.81 557.158 1255.64 556.557 1253.12 556.557H1241.42V588.792C1241.42 593.834 1239.98 597.856 1237.1 600.857C1234.22 603.738 1230.25 605.179 1225.21 605.179C1220.17 605.179 1216.15 603.738 1213.15 600.857C1210.26 597.856 1208.82 593.834 1208.82 588.792V492.449C1208.82 487.527 1210.14 483.745 1212.79 481.104C1215.43 478.463 1219.21 477.143 1224.13 477.143H1269.33C1284.7 477.143 1296.22 480.504 1303.91 487.227C1311.71 493.83 1315.61 503.434 1315.61 516.04C1315.61 525.644 1312.97 533.807 1307.69 540.53C1302.41 547.133 1294.96 551.575 1285.36 553.856C1289.32 554.457 1292.74 555.777 1295.62 557.818C1298.62 559.859 1301.56 562.92 1304.45 567.002L1315.61 583.029ZM1264.11 531.707C1271.43 531.707 1276.65 530.566 1279.78 528.285C1283.02 526.004 1284.64 522.282 1284.64 517.12C1284.64 511.838 1283.02 508.056 1279.78 505.775C1276.65 503.374 1271.43 502.174 1264.11 502.174H1241.06V531.707H1264.11ZM1351.45 604.098C1346.53 604.098 1342.75 602.778 1340.11 600.137C1337.47 597.495 1336.15 593.714 1336.15 588.792V492.449C1336.15 487.527 1337.47 483.745 1340.11 481.104C1342.75 478.463 1346.53 477.143 1351.45 477.143H1413.76C1418.92 477.143 1422.82 478.223 1425.46 480.384C1428.11 482.545 1429.43 485.666 1429.43 489.748C1429.43 498.392 1424.2 502.714 1413.76 502.714H1368.38V526.844H1410.16C1420.6 526.844 1425.83 531.106 1425.83 539.63C1425.83 543.712 1424.5 546.833 1421.86 548.994C1419.22 551.155 1415.32 552.236 1410.16 552.236H1368.38V578.527H1413.76C1424.2 578.527 1429.43 582.849 1429.43 591.493C1429.43 595.575 1428.11 598.696 1425.46 600.857C1422.82 603.018 1418.92 604.098 1413.76 604.098H1351.45Z" fill="black"/>
</g>
<defs>
<clipPath id="clip0">
<rect width="1599.53" height="752.096" fill="white" transform="translate(0.767578 0.42627)"/>
</clipPath>
<clipPath id="clip1">
<rect width="572.016" height="572.016" fill="white" transform="translate(149.068 85.1694)"/>
</clipPath>
</defs>
</svg>
