<svg width="2046" height="1367" viewBox="0 0 2046 1367" fill="none" xmlns="http://www.w3.org/2000/svg">
<g clip-path="url(#clip0)">
<path d="M170.254 275.609C170.254 217.106 217.68 169.68 276.183 169.68H1769.78C1828.28 169.68 1875.71 217.106 1875.71 275.609V1091.26C1875.71 1149.76 1828.28 1197.19 1769.78 1197.19H276.183C217.68 1197.19 170.254 1149.76 170.254 1091.26V275.609Z" fill="white"/>
<mask id="mask0" mask-type="alpha" maskUnits="userSpaceOnUse" x="170" y="169" width="1706" height="1029">
<rect x="196.736" y="196.162" width="1652.49" height="974.547" rx="79.4467" stroke="black" stroke-width="52.9645"/>
</mask>
<g mask="url(#mask0)">
<path d="M1547.33 169.68H1875.71V1197.19H1547.33V169.68Z" fill="black"/>
<path d="M498.633 1197.19L170.253 1197.19L170.253 169.68L498.633 169.68L498.633 1197.19Z" fill="black"/>
<rect x="1187.17" y="169.68" width="360.158" height="1027.51" fill="#5B5B5B"/>
<rect x="869.385" y="169.68" width="317.787" height="1027.51" fill="#989898"/>
<rect x="498.633" y="169.68" width="370.751" height="1027.51" fill="#5B5B5B"/>
</g>
</g>
<g clip-path="url(#clip1)">
<path d="M906.494 399.766C916.368 398.933 925.516 408.081 924.684 417.955C923.47 432.017 905.959 751.577 803.698 853.838C705.683 951.853 590.193 928.845 514.782 874.633C513.874 873.98 512.849 873.194 511.724 872.291L443.743 940.176C427.318 956.602 400.687 956.602 384.261 940.176C367.836 923.751 367.836 897.12 384.261 880.695L452.159 812.724C451.251 811.595 450.461 810.566 449.804 809.655C395.593 734.244 372.585 618.754 470.599 520.74C572.86 418.479 892.421 400.967 906.494 399.766Z" fill="black"/>
<path d="M601.655 775.148C593.993 775.148 588.082 773.069 583.922 768.909C579.763 764.75 577.683 758.839 577.683 751.177V567.612C577.683 559.95 579.763 554.039 583.922 549.88C588.082 545.72 593.993 543.641 601.655 543.641H717.901C734.101 543.641 742.201 550.208 742.201 563.343C742.201 576.697 734.101 583.375 717.901 583.375H627.597V637.557H711.334C727.534 637.557 735.634 644.234 735.634 657.588C735.634 670.724 727.534 677.291 711.334 677.291H627.597V735.414H717.901C734.101 735.414 742.201 742.091 742.201 755.446C742.201 768.581 734.101 775.148 717.901 775.148H601.655Z" fill="white"/>
</g>
<path d="M1061.39 704.52C1053.98 704.52 1048.26 702.507 1044.23 698.482C1040.2 694.457 1038.19 688.736 1038.19 681.321V503.679C1038.19 496.264 1040.2 490.543 1044.23 486.518C1048.26 482.493 1053.98 480.48 1061.39 480.48H1173.89C1189.56 480.48 1197.4 486.836 1197.4 499.547C1197.4 512.471 1189.56 518.932 1173.89 518.932H1086.5V571.367H1167.53C1183.21 571.367 1191.05 577.829 1191.05 590.752C1191.05 603.464 1183.21 609.819 1167.53 609.819H1086.5V666.068H1173.89C1189.56 666.068 1197.4 672.529 1197.4 685.453C1197.4 698.164 1189.56 704.52 1173.89 704.52H1061.39ZM1126.85 461.731C1125.16 462.578 1123.15 463.002 1120.82 463.002C1117.85 463.002 1115.2 462.048 1112.87 460.142C1110.75 458.023 1109.69 455.587 1109.69 452.833C1109.69 450.079 1111.07 447.324 1113.83 444.57L1141.16 417.558C1146.03 412.686 1151.22 410.249 1156.73 410.249C1161.39 410.249 1165.41 412.05 1168.8 415.652C1172.4 419.041 1174.2 423.067 1174.2 427.727C1174.2 430.905 1173.15 433.977 1171.03 436.943C1168.91 439.909 1165.73 442.452 1161.49 444.57L1126.85 461.731ZM1329.53 707.38C1307.5 707.38 1288.22 702.719 1271.69 693.397C1255.17 684.076 1242.46 670.729 1233.56 653.356C1224.66 635.984 1220.21 615.645 1220.21 592.341C1220.21 569.037 1224.66 548.804 1233.56 531.644C1242.46 514.271 1255.17 500.924 1271.69 491.603C1288.22 482.281 1307.5 477.62 1329.53 477.62C1357.28 477.62 1381.22 485.247 1401.35 500.501C1404.53 503.043 1406.75 505.585 1408.02 508.128C1409.3 510.67 1409.93 513.848 1409.93 517.661C1409.93 523.17 1408.34 527.936 1405.16 531.962C1402.2 535.775 1398.49 537.682 1394.04 537.682C1391.08 537.682 1388.43 537.364 1386.1 536.728C1383.98 535.881 1381.54 534.504 1378.79 532.597C1370.31 527.089 1362.47 523.17 1355.27 520.839C1348.07 518.297 1340.34 517.026 1332.07 517.026C1311.73 517.026 1296.37 523.381 1285.99 536.093C1275.82 548.592 1270.74 567.342 1270.74 592.341C1270.74 642.763 1291.18 667.974 1332.07 667.974C1339.91 667.974 1347.33 666.809 1354.32 664.479C1361.31 661.936 1369.47 657.911 1378.79 652.403C1381.97 650.496 1384.61 649.225 1386.73 648.589C1388.85 647.742 1391.29 647.318 1394.04 647.318C1398.49 647.318 1402.2 649.331 1405.16 653.356C1408.34 657.17 1409.93 661.831 1409.93 667.339C1409.93 671.152 1409.19 674.436 1407.71 677.19C1406.44 679.733 1404.32 682.169 1401.35 684.499C1381.22 699.753 1357.28 707.38 1329.53 707.38ZM1540.25 707.38C1518.01 707.38 1498.62 702.719 1482.1 693.397C1465.78 683.864 1453.18 670.517 1444.28 653.356C1435.38 635.984 1430.93 615.645 1430.93 592.341C1430.93 569.037 1435.38 548.804 1444.28 531.644C1453.18 514.271 1465.78 500.924 1482.1 491.603C1498.62 482.281 1518.01 477.62 1540.25 477.62C1562.5 477.62 1581.77 482.281 1598.09 491.603C1614.61 500.924 1627.32 514.271 1636.22 531.644C1645.12 548.804 1649.57 569.037 1649.57 592.341C1649.57 615.645 1645.12 635.984 1636.22 653.356C1627.32 670.517 1614.61 683.864 1598.09 693.397C1581.77 702.719 1562.5 707.38 1540.25 707.38ZM1540.25 668.928C1558.89 668.928 1573.51 662.36 1584.11 649.225C1594.91 636.09 1600.31 617.128 1600.31 592.341C1600.31 567.554 1595.02 548.698 1584.42 535.775C1573.83 522.64 1559.11 516.072 1540.25 516.072C1521.4 516.072 1506.67 522.64 1496.08 535.775C1485.7 548.698 1480.51 567.554 1480.51 592.341C1480.51 617.128 1485.8 636.09 1496.4 649.225C1506.99 662.36 1521.61 668.928 1540.25 668.928ZM1091.35 907.141C1081.75 907.141 1072.8 906.12 1064.52 904.079C1056.36 901.918 1049.63 898.977 1044.35 895.255C1042.31 893.695 1040.81 892.074 1039.85 890.393C1039.01 888.713 1038.59 886.552 1038.59 883.91C1038.59 880.309 1039.67 877.187 1041.83 874.546C1043.99 871.905 1046.51 870.585 1049.39 870.585C1050.95 870.585 1052.45 870.825 1053.89 871.305C1055.34 871.785 1057.14 872.685 1059.3 874.006C1064.22 876.767 1069.08 878.748 1073.88 879.949C1078.81 881.149 1084.33 881.749 1090.45 881.749C1097.53 881.749 1102.88 880.729 1106.48 878.688C1110.2 876.527 1112.06 873.406 1112.06 869.324C1112.06 866.563 1110.32 864.222 1106.84 862.301C1103.48 860.26 1096.99 858.279 1087.39 856.358C1075.5 853.837 1066.2 850.836 1059.48 847.354C1052.75 843.873 1048.01 839.791 1045.25 835.109C1042.61 830.307 1041.29 824.544 1041.29 817.821C1041.29 810.138 1043.57 803.175 1048.13 796.932C1052.69 790.689 1058.94 785.827 1066.86 782.346C1074.9 778.744 1083.91 776.943 1093.87 776.943C1102.64 776.943 1110.44 777.904 1117.28 779.825C1124.13 781.745 1130.37 784.747 1136.01 788.829C1138.17 790.389 1139.67 792.07 1140.51 793.871C1141.47 795.552 1141.95 797.652 1141.95 800.174C1141.95 803.775 1140.87 806.896 1138.71 809.538C1136.67 812.179 1134.21 813.499 1131.33 813.499C1129.77 813.499 1128.33 813.319 1127.01 812.959C1125.69 812.479 1123.83 811.519 1121.42 810.078C1120.82 809.718 1119.08 808.817 1116.2 807.377C1113.44 805.816 1110.14 804.615 1106.3 803.775C1102.58 802.815 1098.49 802.334 1094.05 802.334C1087.93 802.334 1083.01 803.535 1079.29 805.936C1075.56 808.217 1073.7 811.278 1073.7 815.12C1073.7 817.401 1074.36 819.262 1075.68 820.703C1077.01 822.143 1079.47 823.584 1083.07 825.024C1086.67 826.345 1092.01 827.726 1099.09 829.166C1110.62 831.687 1119.68 834.749 1126.29 838.35C1132.89 841.832 1137.57 845.914 1140.33 850.596C1143.09 855.278 1144.47 860.8 1144.47 867.163C1144.47 875.087 1142.25 882.11 1137.81 888.232C1133.37 894.235 1127.13 898.917 1119.08 902.278C1111.16 905.52 1101.92 907.141 1091.35 907.141ZM1223.36 907.141C1210.64 907.141 1199.47 904.499 1189.87 899.217C1180.38 893.935 1173 886.371 1167.72 876.527C1162.55 866.683 1159.97 855.158 1159.97 841.952C1159.97 828.866 1162.55 817.401 1167.72 807.557C1173 797.712 1180.38 790.149 1189.87 784.867C1199.47 779.584 1210.64 776.943 1223.36 776.943C1238.61 776.943 1251.99 780.965 1263.52 789.009C1265.56 790.449 1267 792.01 1267.84 793.691C1268.8 795.371 1269.28 797.532 1269.28 800.174C1269.28 803.895 1268.2 807.077 1266.04 809.718C1264 812.239 1261.48 813.499 1258.48 813.499C1256.68 813.499 1255.05 813.259 1253.61 812.779C1252.17 812.179 1250.49 811.278 1248.57 810.078C1244.37 807.557 1240.41 805.756 1236.69 804.676C1232.97 803.595 1229.12 803.055 1225.16 803.055C1214.48 803.055 1206.49 806.296 1201.21 812.779C1196.05 819.142 1193.47 828.866 1193.47 841.952C1193.47 855.158 1196.05 865.002 1201.21 871.485C1206.49 877.848 1214.48 881.029 1225.16 881.029C1228.76 881.029 1232.24 880.489 1235.61 879.408C1238.97 878.208 1243.29 876.407 1248.57 874.006C1251.09 872.685 1252.95 871.785 1254.15 871.305C1255.35 870.825 1256.8 870.585 1258.48 870.585C1261.48 870.585 1264 871.905 1266.04 874.546C1268.2 877.067 1269.28 880.189 1269.28 883.91C1269.28 886.431 1268.8 888.592 1267.84 890.393C1267 892.074 1265.56 893.635 1263.52 895.075C1251.99 903.119 1238.61 907.141 1223.36 907.141ZM1342.77 907.141C1329.81 907.141 1318.52 904.499 1308.92 899.217C1299.43 893.815 1292.11 886.251 1286.95 876.527C1281.79 866.683 1279.21 855.158 1279.21 841.952C1279.21 828.746 1281.79 817.281 1286.95 807.557C1292.11 797.712 1299.43 790.149 1308.92 784.867C1318.52 779.584 1329.81 776.943 1342.77 776.943C1355.74 776.943 1366.96 779.584 1376.45 784.867C1386.05 790.149 1393.38 797.712 1398.42 807.557C1403.58 817.281 1406.16 828.746 1406.16 841.952C1406.16 855.158 1403.58 866.683 1398.42 876.527C1393.26 886.251 1385.87 893.815 1376.27 899.217C1366.78 904.499 1355.62 907.141 1342.77 907.141ZM1342.77 881.749C1352.38 881.749 1359.88 878.388 1365.28 871.665C1370.69 864.822 1373.39 854.918 1373.39 841.952C1373.39 828.986 1370.63 819.142 1365.1 812.419C1359.7 805.696 1352.26 802.334 1342.77 802.334C1333.17 802.334 1325.67 805.696 1320.26 812.419C1314.86 819.022 1312.16 828.866 1312.16 841.952C1312.16 855.038 1314.86 864.942 1320.26 871.665C1325.67 878.388 1333.17 881.749 1342.77 881.749ZM1532.56 884.451C1534.72 887.692 1535.8 890.753 1535.8 893.635C1535.8 897.476 1534.18 900.718 1530.94 903.359C1527.82 905.88 1524.15 907.141 1519.95 907.141C1517.07 907.141 1514.37 906.48 1511.85 905.16C1509.33 903.839 1507.17 901.858 1505.37 899.217L1481.96 865.002C1480.28 862.601 1478.47 860.86 1476.55 859.78C1474.75 858.579 1472.59 857.979 1470.07 857.979H1458.37V890.213C1458.37 895.255 1456.92 899.277 1454.04 902.278C1451.16 905.16 1447.2 906.6 1442.16 906.6C1437.12 906.6 1433.09 905.16 1430.09 902.278C1427.21 899.277 1425.77 895.255 1425.77 890.213V793.871C1425.77 788.949 1427.09 785.167 1429.73 782.526C1432.37 779.885 1436.16 778.564 1441.08 778.564H1486.28C1501.64 778.564 1513.17 781.926 1520.85 788.648C1528.66 795.251 1532.56 804.856 1532.56 817.461C1532.56 827.065 1529.92 835.229 1524.63 841.952C1519.35 848.555 1511.91 852.997 1502.3 855.278C1506.27 855.878 1509.69 857.199 1512.57 859.24C1515.57 861.28 1518.51 864.342 1521.39 868.424L1532.56 884.451ZM1481.06 833.128C1488.38 833.128 1493.6 831.988 1496.72 829.707C1499.96 827.426 1501.58 823.704 1501.58 818.542C1501.58 813.259 1499.96 809.478 1496.72 807.197C1493.6 804.796 1488.38 803.595 1481.06 803.595H1458.01V833.128H1481.06ZM1568.4 905.52C1563.48 905.52 1559.7 904.199 1557.05 901.558C1554.41 898.917 1553.09 895.135 1553.09 890.213V793.871C1553.09 788.949 1554.41 785.167 1557.05 782.526C1559.7 779.885 1563.48 778.564 1568.4 778.564H1630.71C1635.87 778.564 1639.77 779.645 1642.41 781.805C1645.05 783.966 1646.37 787.088 1646.37 791.17C1646.37 799.813 1641.15 804.135 1630.71 804.135H1585.33V828.266H1627.11C1637.55 828.266 1642.77 832.528 1642.77 841.052C1642.77 845.133 1641.45 848.255 1638.81 850.416C1636.17 852.577 1632.27 853.657 1627.11 853.657H1585.33V879.949H1630.71C1641.15 879.949 1646.37 884.271 1646.37 892.914C1646.37 896.996 1645.05 900.118 1642.41 902.278C1639.77 904.439 1635.87 905.52 1630.71 905.52H1568.4Z" fill="black"/>
<defs>
<clipPath id="clip0">
<path d="M170.254 275.609C170.254 217.106 217.68 169.68 276.183 169.68H1769.78C1828.28 169.68 1875.71 217.106 1875.71 275.609V1091.26C1875.71 1149.76 1828.28 1197.19 1769.78 1197.19H276.183C217.68 1197.19 170.254 1149.76 170.254 1091.26V275.609Z" fill="white"/>
</clipPath>
<clipPath id="clip1">
<rect width="572.016" height="572.016" fill="white" transform="translate(366.016 386.591)"/>
</clipPath>
</defs>
</svg>
