<svg width="2046" height="1368" viewBox="0 0 2046 1368" fill="none" xmlns="http://www.w3.org/2000/svg">
<g clip-path="url(#clip0)">
<path d="M170.254 276.046C170.254 217.543 217.68 170.117 276.183 170.117H1769.78C1828.28 170.117 1875.71 217.543 1875.71 276.046V1091.7C1875.71 1150.2 1828.28 1197.63 1769.78 1197.63H276.183C217.68 1197.63 170.254 1150.2 170.254 1091.7V276.046Z" fill="white"/>
<mask id="mask0" mask-type="alpha" maskUnits="userSpaceOnUse" x="170" y="170" width="1706" height="1028">
<rect x="196.736" y="196.599" width="1652.49" height="974.547" rx="79.4467" stroke="black" stroke-width="52.9645"/>
</mask>
<g mask="url(#mask0)">
<path d="M1547.33 170.117H1875.71V1197.63H1547.33V170.117Z" fill="#DF1F1F"/>
<path d="M498.634 1197.63L170.254 1197.63L170.254 170.117L498.634 170.117L498.634 1197.63Z" fill="#1E8F4E"/>
<rect x="1187.17" y="170.117" width="360.158" height="1027.51" fill="#FF6F1E"/>
<rect x="869.385" y="170.117" width="317.787" height="1027.51" fill="#EEAE0E"/>
<rect x="498.634" y="170.117" width="370.751" height="1027.51" fill="#60AC0E"/>
</g>
</g>
<g clip-path="url(#clip1)">
<path d="M906.484 400.203C916.358 399.371 925.507 408.519 924.674 418.393C923.461 432.454 905.949 752.015 803.688 854.276C705.674 952.29 590.184 929.283 514.773 875.071C513.864 874.418 512.84 873.632 511.715 872.728L443.733 940.614C427.308 957.039 400.677 957.039 384.252 940.614C367.826 924.188 367.826 897.557 384.252 881.132L452.149 813.162C451.241 812.032 450.451 811.004 449.795 810.093C395.583 734.682 372.575 619.192 470.589 521.178C572.851 418.916 892.411 401.405 906.484 400.203Z" fill="#DF1F1F"/>
<path d="M601.644 775.586C593.982 775.586 588.071 773.506 583.911 769.347C579.752 765.187 577.672 759.276 577.672 751.614V568.05C577.672 560.388 579.752 554.477 583.911 550.317C588.071 546.158 593.982 544.078 601.644 544.078H717.89C734.091 544.078 742.191 550.646 742.191 563.781C742.191 577.135 734.091 583.812 717.89 583.812H627.586V637.995H711.323C727.523 637.995 735.623 644.672 735.623 658.026C735.623 671.161 727.523 677.729 711.323 677.729H627.586V735.852H717.89C734.091 735.852 742.191 742.529 742.191 755.883C742.191 769.018 734.091 775.586 717.89 775.586H601.644Z" fill="white"/>
</g>
<path d="M1061.38 704.957C1053.97 704.957 1048.25 702.945 1044.22 698.919C1040.2 694.894 1038.18 689.174 1038.18 681.759V504.116C1038.18 496.701 1040.2 490.981 1044.22 486.956C1048.25 482.93 1053.97 480.918 1061.38 480.918H1173.88C1189.55 480.918 1197.39 487.273 1197.39 499.985C1197.39 512.908 1189.55 519.37 1173.88 519.37H1086.49V571.805H1167.52C1183.2 571.805 1191.04 578.266 1191.04 591.19C1191.04 603.901 1183.2 610.257 1167.52 610.257H1086.49V666.505H1173.88C1189.55 666.505 1197.39 672.967 1197.39 685.89C1197.39 698.602 1189.55 704.957 1173.88 704.957H1061.38ZM1329.52 707.817C1307.49 707.817 1288.21 703.157 1271.68 693.835C1255.16 684.513 1242.45 671.166 1233.55 653.794C1224.65 636.421 1220.2 616.083 1220.2 592.779C1220.2 569.474 1224.65 549.242 1233.55 532.081C1242.45 514.709 1255.16 501.362 1271.68 492.04C1288.21 482.718 1307.49 478.058 1329.52 478.058C1357.27 478.058 1381.21 485.684 1401.34 500.938C1404.52 503.48 1406.74 506.023 1408.01 508.565C1409.29 511.107 1409.92 514.285 1409.92 518.099C1409.92 523.607 1408.33 528.374 1405.15 532.399C1402.19 536.213 1398.48 538.119 1394.03 538.119C1391.07 538.119 1388.42 537.801 1386.09 537.166C1383.97 536.318 1381.53 534.941 1378.78 533.035C1370.3 527.526 1362.46 523.607 1355.26 521.277C1348.06 518.734 1340.33 517.463 1332.06 517.463C1311.72 517.463 1296.37 523.819 1285.98 536.53C1275.81 549.03 1270.73 567.779 1270.73 592.779C1270.73 643.201 1291.17 668.412 1332.06 668.412C1339.9 668.412 1347.32 667.247 1354.31 664.916C1361.3 662.374 1369.46 658.349 1378.78 652.84C1381.96 650.934 1384.6 649.662 1386.72 649.027C1388.84 648.179 1391.28 647.756 1394.03 647.756C1398.48 647.756 1402.19 649.768 1405.15 653.794C1408.33 657.607 1409.92 662.268 1409.92 667.776C1409.92 671.59 1409.18 674.874 1407.7 677.628C1406.43 680.17 1404.31 682.606 1401.34 684.937C1381.21 700.191 1357.27 707.817 1329.52 707.817ZM1540.24 707.817C1518 707.817 1498.61 703.157 1482.09 693.835C1465.77 684.301 1453.17 670.954 1444.27 653.794C1435.37 636.421 1430.92 616.083 1430.92 592.779C1430.92 569.474 1435.37 549.242 1444.27 532.081C1453.17 514.709 1465.77 501.362 1482.09 492.04C1498.61 482.718 1518 478.058 1540.24 478.058C1562.49 478.058 1581.77 482.718 1598.08 492.04C1614.6 501.362 1627.31 514.709 1636.21 532.081C1645.11 549.242 1649.56 569.474 1649.56 592.779C1649.56 616.083 1645.11 636.421 1636.21 653.794C1627.31 670.954 1614.6 684.301 1598.08 693.835C1581.77 703.157 1562.49 707.817 1540.24 707.817ZM1540.24 669.365C1558.88 669.365 1573.5 662.798 1584.1 649.662C1594.9 636.527 1600.3 617.566 1600.3 592.779C1600.3 567.991 1595.01 549.136 1584.41 536.213C1573.82 523.077 1559.1 516.51 1540.24 516.51C1521.39 516.51 1506.66 523.077 1496.07 536.213C1485.69 549.136 1480.5 567.991 1480.5 592.779C1480.5 617.566 1485.79 636.527 1496.39 649.662C1506.98 662.798 1521.6 669.365 1540.24 669.365ZM1091.34 907.578C1081.74 907.578 1072.79 906.558 1064.51 904.517C1056.35 902.356 1049.62 899.415 1044.34 895.693C1042.3 894.132 1040.8 892.511 1039.84 890.831C1039 889.15 1038.58 886.989 1038.58 884.348C1038.58 880.746 1039.66 877.625 1041.82 874.984C1043.98 872.343 1046.5 871.022 1049.38 871.022C1050.94 871.022 1052.44 871.262 1053.89 871.742C1055.33 872.223 1057.13 873.123 1059.29 874.444C1064.21 877.205 1069.07 879.186 1073.87 880.386C1078.8 881.587 1084.32 882.187 1090.44 882.187C1097.52 882.187 1102.87 881.166 1106.47 879.126C1110.19 876.965 1112.05 873.843 1112.05 869.761C1112.05 867 1110.31 864.659 1106.83 862.738C1103.47 860.697 1096.98 858.717 1087.38 856.796C1075.49 854.275 1066.19 851.273 1059.47 847.792C1052.74 844.31 1048 840.228 1045.24 835.546C1042.6 830.744 1041.28 824.982 1041.28 818.259C1041.28 810.575 1043.56 803.612 1048.12 797.37C1052.68 791.127 1058.93 786.265 1066.85 782.783C1074.89 779.182 1083.9 777.381 1093.86 777.381C1102.63 777.381 1110.43 778.341 1117.27 780.262C1124.12 782.183 1130.36 785.184 1136 789.266C1138.16 790.827 1139.66 792.507 1140.5 794.308C1141.46 795.989 1141.94 798.09 1141.94 800.611C1141.94 804.213 1140.86 807.334 1138.7 809.975C1136.66 812.616 1134.2 813.937 1131.32 813.937C1129.76 813.937 1128.32 813.757 1127 813.397C1125.68 812.916 1123.82 811.956 1121.41 810.515C1120.81 810.155 1119.07 809.255 1116.19 807.814C1113.43 806.254 1110.13 805.053 1106.29 804.213C1102.57 803.252 1098.48 802.772 1094.04 802.772C1087.92 802.772 1083 803.973 1079.28 806.374C1075.55 808.655 1073.69 811.716 1073.69 815.558C1073.69 817.839 1074.35 819.699 1075.67 821.14C1077 822.581 1079.46 824.021 1083.06 825.462C1086.66 826.783 1092 828.163 1099.09 829.604C1110.61 832.125 1119.67 835.186 1126.28 838.788C1132.88 842.269 1137.56 846.351 1140.32 851.033C1143.08 855.715 1144.47 861.238 1144.47 867.601C1144.47 875.524 1142.24 882.547 1137.8 888.67C1133.36 894.672 1127.12 899.354 1119.07 902.716C1111.15 905.957 1101.91 907.578 1091.34 907.578ZM1223.35 907.578C1210.63 907.578 1199.46 904.937 1189.86 899.655C1180.37 894.372 1172.99 886.809 1167.71 876.965C1162.54 867.12 1159.96 855.595 1159.96 842.389C1159.96 829.304 1162.54 817.839 1167.71 807.994C1172.99 798.15 1180.37 790.587 1189.86 785.304C1199.46 780.022 1210.63 777.381 1223.35 777.381C1238.6 777.381 1251.98 781.403 1263.51 789.446C1265.55 790.887 1266.99 792.447 1267.83 794.128C1268.79 795.809 1269.27 797.97 1269.27 800.611C1269.27 804.333 1268.19 807.514 1266.03 810.155C1263.99 812.676 1261.47 813.937 1258.47 813.937C1256.67 813.937 1255.04 813.697 1253.6 813.217C1252.16 812.616 1250.48 811.716 1248.56 810.515C1244.36 807.994 1240.4 806.193 1236.68 805.113C1232.96 804.033 1229.11 803.492 1225.15 803.492C1214.47 803.492 1206.48 806.734 1201.2 813.217C1196.04 819.579 1193.46 829.304 1193.46 842.389C1193.46 855.595 1196.04 865.44 1201.2 871.922C1206.48 878.285 1214.47 881.467 1225.15 881.467C1228.75 881.467 1232.23 880.926 1235.6 879.846C1238.96 878.645 1243.28 876.845 1248.56 874.444C1251.08 873.123 1252.94 872.223 1254.14 871.742C1255.35 871.262 1256.79 871.022 1258.47 871.022C1261.47 871.022 1263.99 872.343 1266.03 874.984C1268.19 877.505 1269.27 880.626 1269.27 884.348C1269.27 886.869 1268.79 889.03 1267.83 890.831C1266.99 892.511 1265.55 894.072 1263.51 895.513C1251.98 903.556 1238.6 907.578 1223.35 907.578ZM1342.76 907.578C1329.8 907.578 1318.51 904.937 1308.91 899.655C1299.42 894.252 1292.1 886.689 1286.94 876.965C1281.78 867.12 1279.2 855.595 1279.2 842.389C1279.2 829.184 1281.78 817.719 1286.94 807.994C1292.1 798.15 1299.42 790.587 1308.91 785.304C1318.51 780.022 1329.8 777.381 1342.76 777.381C1355.73 777.381 1366.95 780.022 1376.44 785.304C1386.04 790.587 1393.37 798.15 1398.41 807.994C1403.57 817.719 1406.15 829.184 1406.15 842.389C1406.15 855.595 1403.57 867.12 1398.41 876.965C1393.25 886.689 1385.86 894.252 1376.26 899.655C1366.77 904.937 1355.61 907.578 1342.76 907.578ZM1342.76 882.187C1352.37 882.187 1359.87 878.825 1365.27 872.102C1370.68 865.259 1373.38 855.355 1373.38 842.389C1373.38 829.424 1370.62 819.579 1365.09 812.856C1359.69 806.133 1352.25 802.772 1342.76 802.772C1333.16 802.772 1325.66 806.133 1320.25 812.856C1314.85 819.459 1312.15 829.304 1312.15 842.389C1312.15 855.475 1314.85 865.38 1320.25 872.102C1325.66 878.825 1333.16 882.187 1342.76 882.187ZM1532.55 884.888C1534.71 888.13 1535.79 891.191 1535.79 894.072C1535.79 897.914 1534.17 901.155 1530.93 903.796C1527.81 906.318 1524.14 907.578 1519.94 907.578C1517.06 907.578 1514.36 906.918 1511.84 905.597C1509.32 904.277 1507.16 902.296 1505.36 899.655L1481.95 865.44C1480.27 863.039 1478.46 861.298 1476.54 860.217C1474.74 859.017 1472.58 858.416 1470.06 858.416H1458.36V890.651C1458.36 895.693 1456.92 899.715 1454.03 902.716C1451.15 905.597 1447.19 907.038 1442.15 907.038C1437.11 907.038 1433.08 905.597 1430.08 902.716C1427.2 899.715 1425.76 895.693 1425.76 890.651V794.308C1425.76 789.386 1427.08 785.604 1429.72 782.963C1432.36 780.322 1436.15 779.002 1441.07 779.002H1486.27C1501.63 779.002 1513.16 782.363 1520.84 789.086C1528.65 795.689 1532.55 805.293 1532.55 817.899C1532.55 827.503 1529.91 835.666 1524.62 842.389C1519.34 848.992 1511.9 853.434 1502.3 855.715C1506.26 856.316 1509.68 857.636 1512.56 859.677C1515.56 861.718 1518.5 864.779 1521.38 868.861L1532.55 884.888ZM1481.05 833.566C1488.37 833.566 1493.59 832.425 1496.71 830.144C1499.95 827.863 1501.57 824.141 1501.57 818.979C1501.57 813.697 1499.95 809.915 1496.71 807.634C1493.59 805.233 1488.37 804.033 1481.05 804.033H1458V833.566H1481.05ZM1568.39 905.957C1563.47 905.957 1559.69 904.637 1557.04 901.996C1554.4 899.354 1553.08 895.573 1553.08 890.651V794.308C1553.08 789.386 1554.4 785.604 1557.04 782.963C1559.69 780.322 1563.47 779.002 1568.39 779.002H1630.7C1635.86 779.002 1639.76 780.082 1642.4 782.243C1645.04 784.404 1646.36 787.525 1646.36 791.607C1646.36 800.251 1641.14 804.573 1630.7 804.573H1585.32V828.703H1627.1C1637.54 828.703 1642.76 832.965 1642.76 841.489C1642.76 845.571 1641.44 848.692 1638.8 850.853C1636.16 853.014 1632.26 854.095 1627.1 854.095H1585.32V880.386H1630.7C1641.14 880.386 1646.36 884.708 1646.36 893.352C1646.36 897.434 1645.04 900.555 1642.4 902.716C1639.76 904.877 1635.86 905.957 1630.7 905.957H1568.39Z" fill="#4A4A4A"/>
<defs>
<clipPath id="clip0">
<path d="M170.254 276.046C170.254 217.543 217.68 170.117 276.183 170.117H1769.78C1828.28 170.117 1875.71 217.543 1875.71 276.046V1091.7C1875.71 1150.2 1828.28 1197.63 1769.78 1197.63H276.183C217.68 1197.63 170.254 1150.2 170.254 1091.7V276.046Z" fill="white"/>
</clipPath>
<clipPath id="clip1">
<rect width="572.016" height="572.016" fill="white" transform="translate(366.005 387.028)"/>
</clipPath>
</defs>
</svg>
