<svg width="1918" height="1240" viewBox="0 0 1918 1240" fill="none" xmlns="http://www.w3.org/2000/svg">
<g clip-path="url(#clip0)">
<rect x="159.232" y="159.088" width="1599.53" height="921.582" rx="52.9645" fill="white"/>
<g clip-path="url(#clip1)">
<path d="M848.014 341.749C857.888 340.916 867.036 350.064 866.203 359.938C864.99 374 847.478 693.56 745.217 795.821C647.203 893.836 531.713 870.828 456.302 816.616C455.394 815.963 454.369 815.177 453.244 814.274L385.263 882.159C368.837 898.585 342.206 898.585 325.781 882.159C309.355 865.734 309.355 839.103 325.781 822.678L393.679 754.707C392.771 753.578 391.98 752.549 391.324 751.638C337.112 676.227 314.105 560.737 412.119 462.723C514.38 360.462 833.94 342.95 848.014 341.749Z" fill="black"/>
<path d="M515.273 717.131C507.611 717.131 501.7 715.052 497.54 710.892C493.381 706.733 491.301 700.822 491.301 693.16V509.595C491.301 501.933 493.381 496.022 497.54 491.863C501.7 487.703 507.611 485.624 515.273 485.624H581.277C606.453 485.624 628.126 490.221 646.296 499.416C664.467 508.61 678.368 521.855 688.001 539.149C697.633 556.444 702.449 577.132 702.449 601.213C702.449 625.294 697.633 646.092 688.001 663.605C678.587 680.9 664.795 694.145 646.625 703.339C628.454 712.534 606.672 717.131 581.277 717.131H515.273ZM577.665 675.755C626.922 675.755 651.55 650.908 651.55 601.213C651.55 551.737 626.922 526.999 577.665 526.999H542.528V675.755H577.665Z" fill="white"/>
</g>
<path d="M1002.91 646.503C995.495 646.503 989.775 644.49 985.75 640.465C981.724 636.44 979.712 630.72 979.712 623.304V445.662C979.712 438.247 981.724 432.526 985.75 428.501C989.775 424.476 995.495 422.463 1002.91 422.463H1115.41C1131.08 422.463 1138.92 428.819 1138.92 441.53C1138.92 454.454 1131.08 460.915 1115.41 460.915H1028.02V513.35H1109.05C1124.73 513.35 1132.57 519.812 1132.57 532.735C1132.57 545.447 1124.73 551.802 1109.05 551.802H1028.02V608.051H1115.41C1131.08 608.051 1138.92 614.512 1138.92 627.436C1138.92 640.147 1131.08 646.503 1115.41 646.503H1002.91ZM1068.37 403.714C1066.68 404.561 1064.67 404.985 1062.34 404.985C1059.37 404.985 1056.72 404.032 1054.39 402.125C1052.27 400.006 1051.21 397.57 1051.21 394.816C1051.21 392.062 1052.59 389.307 1055.34 386.553L1082.67 359.541C1087.55 354.669 1092.74 352.232 1098.25 352.232C1102.91 352.232 1106.93 354.033 1110.32 357.635C1113.92 361.024 1115.72 365.05 1115.72 369.711C1115.72 372.888 1114.67 375.96 1112.55 378.926C1110.43 381.892 1107.25 384.435 1103.01 386.553L1068.37 403.714ZM1271.05 649.363C1249.02 649.363 1229.74 644.702 1213.21 635.38C1196.69 626.059 1183.98 612.712 1175.08 595.339C1166.18 577.967 1161.73 557.629 1161.73 534.324C1161.73 511.02 1166.18 490.787 1175.08 473.627C1183.98 456.254 1196.69 442.907 1213.21 433.586C1229.74 424.264 1249.02 419.603 1271.05 419.603C1298.8 419.603 1322.74 427.23 1342.87 442.484C1346.05 445.026 1348.27 447.568 1349.54 450.111C1350.81 452.653 1351.45 455.831 1351.45 459.644C1351.45 465.153 1349.86 469.919 1346.68 473.945C1343.72 477.758 1340.01 479.665 1335.56 479.665C1332.6 479.665 1329.95 479.347 1327.62 478.711C1325.5 477.864 1323.06 476.487 1320.31 474.58C1311.83 469.072 1303.99 465.153 1296.79 462.822C1289.59 460.28 1281.86 459.009 1273.59 459.009C1253.25 459.009 1237.89 465.364 1227.51 478.076C1217.34 490.575 1212.26 509.325 1212.26 534.324C1212.26 584.746 1232.7 609.957 1273.59 609.957C1281.43 609.957 1288.85 608.792 1295.84 606.462C1302.83 603.919 1310.99 599.894 1320.31 594.386C1323.49 592.479 1326.13 591.208 1328.25 590.572C1330.37 589.725 1332.81 589.301 1335.56 589.301C1340.01 589.301 1343.72 591.314 1346.68 595.339C1349.86 599.153 1351.45 603.814 1351.45 609.322C1351.45 613.135 1350.71 616.419 1349.23 619.173C1347.95 621.716 1345.84 624.152 1342.87 626.482C1322.74 641.736 1298.8 649.363 1271.05 649.363ZM1481.77 649.363C1459.53 649.363 1440.14 644.702 1423.62 635.38C1407.3 625.847 1394.7 612.5 1385.8 595.339C1376.9 577.967 1372.45 557.629 1372.45 534.324C1372.45 511.02 1376.9 490.787 1385.8 473.627C1394.7 456.254 1407.3 442.907 1423.62 433.586C1440.14 424.264 1459.53 419.603 1481.77 419.603C1504.02 419.603 1523.29 424.264 1539.61 433.586C1556.13 442.907 1568.84 456.254 1577.74 473.627C1586.64 490.787 1591.09 511.02 1591.09 534.324C1591.09 557.629 1586.64 577.967 1577.74 595.339C1568.84 612.5 1556.13 625.847 1539.61 635.38C1523.29 644.702 1504.02 649.363 1481.77 649.363ZM1481.77 610.911C1500.41 610.911 1515.03 604.343 1525.62 591.208C1536.43 578.073 1541.83 559.112 1541.83 534.324C1541.83 509.537 1536.54 490.681 1525.94 477.758C1515.35 464.623 1500.63 458.055 1481.77 458.055C1462.91 458.055 1448.19 464.623 1437.6 477.758C1427.22 490.681 1422.03 509.537 1422.03 534.324C1422.03 559.112 1427.32 578.073 1437.92 591.208C1448.51 604.343 1463.13 610.911 1481.77 610.911ZM1032.87 849.124C1023.27 849.124 1014.32 848.103 1006.04 846.062C997.876 843.901 991.153 840.96 985.87 837.238C983.829 835.678 982.329 834.057 981.368 832.376C980.528 830.696 980.108 828.535 980.108 825.893C980.108 822.292 981.188 819.17 983.349 816.529C985.51 813.888 988.031 812.568 990.913 812.568C992.473 812.568 993.974 812.808 995.414 813.288C996.855 813.768 998.656 814.668 1000.82 815.989C1005.74 818.75 1010.6 820.731 1015.4 821.932C1020.33 823.132 1025.85 823.732 1031.97 823.732C1039.05 823.732 1044.4 822.712 1048 820.671C1051.72 818.51 1053.58 815.389 1053.58 811.307C1053.58 808.546 1051.84 806.205 1048.36 804.284C1045 802.243 1038.51 800.262 1028.91 798.341C1017.02 795.82 1007.72 792.819 1001 789.337C994.274 785.856 989.532 781.774 986.771 777.092C984.13 772.29 982.809 766.527 982.809 759.804C982.809 752.121 985.09 745.158 989.652 738.915C994.214 732.672 1000.46 727.81 1008.38 724.329C1016.42 720.727 1025.43 718.926 1035.39 718.926C1044.16 718.926 1051.96 719.887 1058.8 721.808C1065.65 723.728 1071.89 726.73 1077.53 730.812C1079.69 732.372 1081.19 734.053 1082.03 735.854C1082.99 737.535 1083.47 739.635 1083.47 742.157C1083.47 745.758 1082.39 748.88 1080.23 751.521C1078.19 754.162 1075.73 755.482 1072.85 755.482C1071.29 755.482 1069.85 755.302 1068.53 754.942C1067.21 754.462 1065.35 753.502 1062.94 752.061C1062.34 751.701 1060.6 750.8 1057.72 749.36C1054.96 747.799 1051.66 746.599 1047.82 745.758C1044.1 744.798 1040.01 744.318 1035.57 744.318C1029.45 744.318 1024.53 745.518 1020.81 747.919C1017.08 750.2 1015.22 753.261 1015.22 757.103C1015.22 759.384 1015.88 761.245 1017.2 762.686C1018.52 764.126 1020.99 765.567 1024.59 767.008C1028.19 768.328 1033.53 769.709 1040.61 771.149C1052.14 773.67 1061.2 776.732 1067.81 780.333C1074.41 783.815 1079.09 787.897 1081.85 792.579C1084.61 797.261 1085.99 802.783 1085.99 809.146C1085.99 817.07 1083.77 824.093 1079.33 830.215C1074.89 836.218 1068.65 840.9 1060.6 844.262C1052.68 847.503 1043.44 849.124 1032.87 849.124ZM1164.88 849.124C1152.15 849.124 1140.99 846.482 1131.39 841.2C1121.9 835.918 1114.52 828.355 1109.24 818.51C1104.07 808.666 1101.49 797.141 1101.49 783.935C1101.49 770.849 1104.07 759.384 1109.24 749.54C1114.52 739.695 1121.9 732.132 1131.39 726.85C1140.99 721.568 1152.15 718.926 1164.88 718.926C1180.13 718.926 1193.51 722.948 1205.04 730.992C1207.08 732.432 1208.52 733.993 1209.36 735.674C1210.32 737.354 1210.8 739.515 1210.8 742.157C1210.8 745.878 1209.72 749.06 1207.56 751.701C1205.52 754.222 1203 755.482 1200 755.482C1198.19 755.482 1196.57 755.242 1195.13 754.762C1193.69 754.162 1192.01 753.261 1190.09 752.061C1185.89 749.54 1181.93 747.739 1178.21 746.659C1174.48 745.578 1170.64 745.038 1166.68 745.038C1156 745.038 1148.01 748.279 1142.73 754.762C1137.57 761.125 1134.99 770.849 1134.99 783.935C1134.99 797.141 1137.57 806.985 1142.73 813.468C1148.01 819.831 1156 823.012 1166.68 823.012C1170.28 823.012 1173.76 822.472 1177.13 821.391C1180.49 820.191 1184.81 818.39 1190.09 815.989C1192.61 814.668 1194.47 813.768 1195.67 813.288C1196.87 812.808 1198.32 812.568 1200 812.568C1203 812.568 1205.52 813.888 1207.56 816.529C1209.72 819.05 1210.8 822.172 1210.8 825.893C1210.8 828.415 1210.32 830.575 1209.36 832.376C1208.52 834.057 1207.08 835.618 1205.04 837.058C1193.51 845.102 1180.13 849.124 1164.88 849.124ZM1284.29 849.124C1271.33 849.124 1260.04 846.482 1250.44 841.2C1240.95 835.798 1233.63 828.234 1228.47 818.51C1223.31 808.666 1220.72 797.141 1220.72 783.935C1220.72 770.729 1223.31 759.264 1228.47 749.54C1233.63 739.695 1240.95 732.132 1250.44 726.85C1260.04 721.568 1271.33 718.926 1284.29 718.926C1297.26 718.926 1308.48 721.568 1317.97 726.85C1327.57 732.132 1334.89 739.695 1339.94 749.54C1345.1 759.264 1347.68 770.729 1347.68 783.935C1347.68 797.141 1345.1 808.666 1339.94 818.51C1334.77 828.234 1327.39 835.798 1317.79 841.2C1308.3 846.482 1297.14 849.124 1284.29 849.124ZM1284.29 823.732C1293.9 823.732 1301.4 820.371 1306.8 813.648C1312.2 806.805 1314.91 796.901 1314.91 783.935C1314.91 770.969 1312.14 761.125 1306.62 754.402C1301.22 747.679 1293.78 744.318 1284.29 744.318C1274.69 744.318 1267.19 747.679 1261.78 754.402C1256.38 761.005 1253.68 770.849 1253.68 783.935C1253.68 797.021 1256.38 806.925 1261.78 813.648C1267.19 820.371 1274.69 823.732 1284.29 823.732ZM1474.08 826.434C1476.24 829.675 1477.32 832.736 1477.32 835.618C1477.32 839.459 1475.7 842.701 1472.46 845.342C1469.34 847.863 1465.67 849.124 1461.47 849.124C1458.59 849.124 1455.89 848.463 1453.37 847.143C1450.85 845.822 1448.69 843.841 1446.89 841.2L1423.48 806.985C1421.79 804.584 1419.99 802.843 1418.07 801.763C1416.27 800.562 1414.11 799.962 1411.59 799.962H1399.89V832.196C1399.89 837.238 1398.44 841.26 1395.56 844.262C1392.68 847.143 1388.72 848.583 1383.68 848.583C1378.64 848.583 1374.61 847.143 1371.61 844.262C1368.73 841.26 1367.29 837.238 1367.29 832.196V735.854C1367.29 730.932 1368.61 727.15 1371.25 724.509C1373.89 721.868 1377.68 720.547 1382.6 720.547H1427.8C1443.16 720.547 1454.69 723.909 1462.37 730.631C1470.18 737.234 1474.08 746.839 1474.08 759.444C1474.08 769.048 1471.44 777.212 1466.15 783.935C1460.87 790.538 1453.43 794.98 1443.82 797.261C1447.79 797.861 1451.21 799.182 1454.09 801.223C1457.09 803.263 1460.03 806.325 1462.91 810.407L1474.08 826.434ZM1422.58 775.111C1429.9 775.111 1435.12 773.971 1438.24 771.69C1441.48 769.409 1443.1 765.687 1443.1 760.525C1443.1 755.242 1441.48 751.461 1438.24 749.18C1435.12 746.779 1429.9 745.578 1422.58 745.578H1399.52V775.111H1422.58ZM1509.92 847.503C1505 847.503 1501.22 846.182 1498.57 843.541C1495.93 840.9 1494.61 837.118 1494.61 832.196V735.854C1494.61 730.932 1495.93 727.15 1498.57 724.509C1501.22 721.868 1505 720.547 1509.92 720.547H1572.23C1577.39 720.547 1581.29 721.628 1583.93 723.788C1586.57 725.949 1587.89 729.071 1587.89 733.153C1587.89 741.796 1582.67 746.118 1572.23 746.118H1526.85V770.249H1568.63C1579.07 770.249 1584.29 774.511 1584.29 783.035C1584.29 787.116 1582.97 790.238 1580.33 792.399C1577.69 794.56 1573.79 795.64 1568.63 795.64H1526.85V821.932H1572.23C1582.67 821.932 1587.89 826.254 1587.89 834.897C1587.89 838.979 1586.57 842.101 1583.93 844.262C1581.29 846.422 1577.39 847.503 1572.23 847.503H1509.92Z" fill="black"/>
</g>
<defs>
<clipPath id="clip0">
<rect width="1917.31" height="1239.37" fill="white" transform="translate(0.339844 0.194153)"/>
</clipPath>
<clipPath id="clip1">
<rect width="572.016" height="572.016" fill="white" transform="translate(307.533 328.574)"/>
</clipPath>
</defs>
</svg>
