<svg width="2045" height="1367" viewBox="0 0 2045 1367" fill="none" xmlns="http://www.w3.org/2000/svg">
<g clip-path="url(#clip0)">
<path d="M169.539 275.609C169.539 217.106 216.965 169.68 275.468 169.68H1769.07C1827.57 169.68 1875 217.106 1875 275.609V1091.26C1875 1149.76 1827.57 1197.19 1769.07 1197.19H275.468C216.965 1197.19 169.539 1149.76 169.539 1091.26V275.609Z" fill="white"/>
<mask id="mask0" mask-type="alpha" maskUnits="userSpaceOnUse" x="169" y="169" width="1706" height="1029">
<rect x="196.021" y="196.162" width="1652.49" height="974.547" rx="79.4467" stroke="black" stroke-width="52.9645"/>
</mask>
<g mask="url(#mask0)">
<path d="M1546.62 169.68H1875V1197.19H1546.62V169.68Z" fill="black"/>
<path d="M497.918 1197.19L169.538 1197.19L169.538 169.68L497.918 169.68L497.918 1197.19Z" fill="black"/>
<rect x="1186.46" y="169.68" width="360.158" height="1027.51" fill="#5B5B5B"/>
<rect x="868.67" y="169.68" width="317.787" height="1027.51" fill="#989898"/>
<rect x="497.918" y="169.68" width="370.751" height="1027.51" fill="#5B5B5B"/>
</g>
</g>
<g clip-path="url(#clip1)">
<path d="M905.779 399.766C915.653 398.933 924.802 408.081 923.969 417.955C922.755 432.017 905.244 751.577 802.983 853.838C704.969 951.853 589.479 928.845 514.067 874.633C513.159 873.98 512.134 873.194 511.01 872.291L443.028 940.176C426.603 956.602 399.972 956.602 383.546 940.176C367.121 923.751 367.121 897.12 383.546 880.695L451.444 812.724C450.536 811.595 449.746 810.566 449.09 809.655C394.878 734.244 371.87 618.754 469.884 520.74C572.146 418.479 891.706 400.967 905.779 399.766Z" fill="black"/>
<path d="M766.738 743.952C768.49 747.893 769.365 751.396 769.365 754.46C769.365 760.59 766.848 765.844 761.813 770.223C756.996 774.382 751.414 776.462 745.065 776.462C740.906 776.462 736.965 775.367 733.244 773.178C729.522 770.77 726.676 767.267 724.706 762.67L707.302 723.921H595.981L578.577 762.67C576.606 767.267 573.76 770.77 570.039 773.178C566.536 775.367 562.596 776.462 558.217 776.462C551.868 776.462 546.177 774.382 541.141 770.223C536.106 765.844 533.589 760.59 533.589 754.46C533.589 751.396 534.464 747.893 536.216 743.952L624.878 557.761C627.286 552.507 630.899 548.566 635.715 545.939C640.531 543.093 645.676 541.67 651.149 541.67C656.841 541.67 662.095 543.093 666.911 545.939C671.727 548.785 675.449 552.726 678.076 557.761L766.738 743.952ZM613.385 685.172H689.897L651.805 599.793L613.385 685.172Z" fill="white"/>
</g>
<path d="M1060.68 704.52C1053.26 704.52 1047.54 702.507 1043.52 698.482C1039.49 694.457 1037.48 688.736 1037.48 681.321V503.679C1037.48 496.264 1039.49 490.543 1043.52 486.518C1047.54 482.493 1053.26 480.48 1060.68 480.48H1173.17C1188.85 480.48 1196.69 486.836 1196.69 499.547C1196.69 512.471 1188.85 518.932 1173.17 518.932H1085.78V571.367H1166.82C1182.49 571.367 1190.33 577.829 1190.33 590.752C1190.33 603.464 1182.49 609.819 1166.82 609.819H1085.78V666.068H1173.17C1188.85 666.068 1196.69 672.529 1196.69 685.453C1196.69 698.164 1188.85 704.52 1173.17 704.52H1060.68ZM1126.14 461.731C1124.45 462.578 1122.43 463.002 1120.1 463.002C1117.14 463.002 1114.49 462.048 1112.16 460.142C1110.04 458.023 1108.98 455.587 1108.98 452.833C1108.98 450.079 1110.36 447.324 1113.11 444.57L1140.44 417.558C1145.31 412.686 1150.5 410.249 1156.01 410.249C1160.67 410.249 1164.7 412.05 1168.09 415.652C1171.69 419.041 1173.49 423.067 1173.49 427.727C1173.49 430.905 1172.43 433.977 1170.31 436.943C1168.19 439.909 1165.02 442.452 1160.78 444.57L1126.14 461.731ZM1328.82 707.38C1306.78 707.38 1287.5 702.719 1270.98 693.397C1254.45 684.076 1241.74 670.729 1232.84 653.356C1223.95 635.984 1219.5 615.645 1219.5 592.341C1219.5 569.037 1223.95 548.804 1232.84 531.644C1241.74 514.271 1254.45 500.924 1270.98 491.603C1287.5 482.281 1306.78 477.62 1328.82 477.62C1356.57 477.62 1380.51 485.247 1400.64 500.501C1403.81 503.043 1406.04 505.585 1407.31 508.128C1408.58 510.67 1409.22 513.848 1409.22 517.661C1409.22 523.17 1407.63 527.936 1404.45 531.962C1401.48 535.775 1397.78 537.682 1393.33 537.682C1390.36 537.682 1387.71 537.364 1385.38 536.728C1383.26 535.881 1380.83 534.504 1378.07 532.597C1369.6 527.089 1361.76 523.17 1354.56 520.839C1347.35 518.297 1339.62 517.026 1331.36 517.026C1311.02 517.026 1295.66 523.381 1285.28 536.093C1275.11 548.592 1270.03 567.342 1270.03 592.341C1270.03 642.763 1290.47 667.974 1331.36 667.974C1339.2 667.974 1346.61 666.809 1353.6 664.479C1360.59 661.936 1368.75 657.911 1378.07 652.403C1381.25 650.496 1383.9 649.225 1386.02 648.589C1388.14 647.742 1390.57 647.318 1393.33 647.318C1397.78 647.318 1401.48 649.331 1404.45 653.356C1407.63 657.17 1409.22 661.831 1409.22 667.339C1409.22 671.152 1408.47 674.436 1406.99 677.19C1405.72 679.733 1403.6 682.169 1400.64 684.499C1380.51 699.753 1356.57 707.38 1328.82 707.38ZM1539.54 707.38C1517.29 707.38 1497.91 702.719 1481.38 693.397C1465.07 683.864 1452.46 670.517 1443.56 653.356C1434.67 635.984 1430.22 615.645 1430.22 592.341C1430.22 569.037 1434.67 548.804 1443.56 531.644C1452.46 514.271 1465.07 500.924 1481.38 491.603C1497.91 482.281 1517.29 477.62 1539.54 477.62C1561.78 477.62 1581.06 482.281 1597.37 491.603C1613.9 500.924 1626.61 514.271 1635.51 531.644C1644.41 548.804 1648.85 569.037 1648.85 592.341C1648.85 615.645 1644.41 635.984 1635.51 653.356C1626.61 670.517 1613.9 683.864 1597.37 693.397C1581.06 702.719 1561.78 707.38 1539.54 707.38ZM1539.54 668.928C1558.18 668.928 1572.8 662.36 1583.39 649.225C1594.2 636.09 1599.6 617.128 1599.6 592.341C1599.6 567.554 1594.3 548.698 1583.71 535.775C1573.12 522.64 1558.39 516.072 1539.54 516.072C1520.68 516.072 1505.96 522.64 1495.36 535.775C1484.98 548.698 1479.79 567.554 1479.79 592.341C1479.79 617.128 1485.09 636.09 1495.68 649.225C1506.27 662.36 1520.89 668.928 1539.54 668.928ZM1090.64 907.141C1081.03 907.141 1072.09 906.12 1063.8 904.079C1055.64 901.918 1048.92 898.977 1043.64 895.255C1041.6 893.695 1040.09 892.074 1039.13 890.393C1038.29 888.713 1037.87 886.552 1037.87 883.91C1037.87 880.309 1038.95 877.187 1041.11 874.546C1043.28 871.905 1045.8 870.585 1048.68 870.585C1050.24 870.585 1051.74 870.825 1053.18 871.305C1054.62 871.785 1056.42 872.685 1058.58 874.006C1063.5 876.767 1068.37 878.748 1073.17 879.949C1078.09 881.149 1083.61 881.749 1089.74 881.749C1096.82 881.749 1102.16 880.729 1105.76 878.688C1109.48 876.527 1111.35 873.406 1111.35 869.324C1111.35 866.563 1109.6 864.222 1106.12 862.301C1102.76 860.26 1096.28 858.279 1086.67 856.358C1074.79 853.837 1065.49 850.836 1058.76 847.354C1052.04 843.873 1047.3 839.791 1044.54 835.109C1041.9 830.307 1040.57 824.544 1040.57 817.821C1040.57 810.138 1042.86 803.175 1047.42 796.932C1051.98 790.689 1058.22 785.827 1066.15 782.346C1074.19 778.744 1083.19 776.943 1093.16 776.943C1101.92 776.943 1109.73 777.904 1116.57 779.825C1123.41 781.745 1129.65 784.747 1135.3 788.829C1137.46 790.389 1138.96 792.07 1139.8 793.871C1140.76 795.552 1141.24 797.652 1141.24 800.174C1141.24 803.775 1140.16 806.896 1138 809.538C1135.96 812.179 1133.5 813.499 1130.61 813.499C1129.05 813.499 1127.61 813.319 1126.29 812.959C1124.97 812.479 1123.11 811.519 1120.71 810.078C1120.11 809.718 1118.37 808.817 1115.49 807.377C1112.73 805.816 1109.42 804.615 1105.58 803.775C1101.86 802.815 1097.78 802.334 1093.34 802.334C1087.22 802.334 1082.29 803.535 1078.57 805.936C1074.85 808.217 1072.99 811.278 1072.99 815.12C1072.99 817.401 1073.65 819.262 1074.97 820.703C1076.29 822.143 1078.75 823.584 1082.35 825.024C1085.95 826.345 1091.3 827.726 1098.38 829.166C1109.91 831.687 1118.97 834.749 1125.57 838.35C1132.17 841.832 1136.86 845.914 1139.62 850.596C1142.38 855.278 1143.76 860.8 1143.76 867.163C1143.76 875.087 1141.54 882.11 1137.1 888.232C1132.66 894.235 1126.41 898.917 1118.37 902.278C1110.45 905.52 1101.2 907.141 1090.64 907.141ZM1222.65 907.141C1209.92 907.141 1198.76 904.499 1189.15 899.217C1179.67 893.935 1172.28 886.371 1167 876.527C1161.84 866.683 1159.26 855.158 1159.26 841.952C1159.26 828.866 1161.84 817.401 1167 807.557C1172.28 797.712 1179.67 790.149 1189.15 784.867C1198.76 779.584 1209.92 776.943 1222.65 776.943C1237.89 776.943 1251.28 780.965 1262.8 789.009C1264.84 790.449 1266.29 792.01 1267.13 793.691C1268.09 795.371 1268.57 797.532 1268.57 800.174C1268.57 803.895 1267.49 807.077 1265.32 809.718C1263.28 812.239 1260.76 813.499 1257.76 813.499C1255.96 813.499 1254.34 813.259 1252.9 812.779C1251.46 812.179 1249.78 811.278 1247.86 810.078C1243.66 807.557 1239.69 805.756 1235.97 804.676C1232.25 803.595 1228.41 803.055 1224.45 803.055C1213.76 803.055 1205.78 806.296 1200.5 812.779C1195.33 819.142 1192.75 828.866 1192.75 841.952C1192.75 855.158 1195.33 865.002 1200.5 871.485C1205.78 877.848 1213.76 881.029 1224.45 881.029C1228.05 881.029 1231.53 880.489 1234.89 879.408C1238.25 878.208 1242.57 876.407 1247.86 874.006C1250.38 872.685 1252.24 871.785 1253.44 871.305C1254.64 870.825 1256.08 870.585 1257.76 870.585C1260.76 870.585 1263.28 871.905 1265.32 874.546C1267.49 877.067 1268.57 880.189 1268.57 883.91C1268.57 886.431 1268.09 888.592 1267.13 890.393C1266.29 892.074 1264.84 893.635 1262.8 895.075C1251.28 903.119 1237.89 907.141 1222.65 907.141ZM1342.06 907.141C1329.09 907.141 1317.81 904.499 1308.2 899.217C1298.72 893.815 1291.4 886.251 1286.23 876.527C1281.07 866.683 1278.49 855.158 1278.49 841.952C1278.49 828.746 1281.07 817.281 1286.23 807.557C1291.4 797.712 1298.72 790.149 1308.2 784.867C1317.81 779.584 1329.09 776.943 1342.06 776.943C1355.02 776.943 1366.25 779.584 1375.73 784.867C1385.34 790.149 1392.66 797.712 1397.7 807.557C1402.86 817.281 1405.45 828.746 1405.45 841.952C1405.45 855.158 1402.86 866.683 1397.7 876.527C1392.54 886.251 1385.16 893.815 1375.55 899.217C1366.07 904.499 1354.9 907.141 1342.06 907.141ZM1342.06 881.749C1351.66 881.749 1359.17 878.388 1364.57 871.665C1369.97 864.822 1372.67 854.918 1372.67 841.952C1372.67 828.986 1369.91 819.142 1364.39 812.419C1358.99 805.696 1351.54 802.334 1342.06 802.334C1332.45 802.334 1324.95 805.696 1319.55 812.419C1314.15 819.022 1311.44 828.866 1311.44 841.952C1311.44 855.038 1314.15 864.942 1319.55 871.665C1324.95 878.388 1332.45 881.749 1342.06 881.749ZM1531.84 884.451C1534 887.692 1535.08 890.753 1535.08 893.635C1535.08 897.476 1533.46 900.718 1530.22 903.359C1527.1 905.88 1523.44 907.141 1519.24 907.141C1516.36 907.141 1513.66 906.48 1511.13 905.16C1508.61 903.839 1506.45 901.858 1504.65 899.217L1481.24 865.002C1479.56 862.601 1477.76 860.86 1475.84 859.78C1474.04 858.579 1471.88 857.979 1469.36 857.979H1457.65V890.213C1457.65 895.255 1456.21 899.277 1453.33 902.278C1450.45 905.16 1446.49 906.6 1441.44 906.6C1436.4 906.6 1432.38 905.16 1429.38 902.278C1426.5 899.277 1425.06 895.255 1425.06 890.213V793.871C1425.06 788.949 1426.38 785.167 1429.02 782.526C1431.66 779.885 1435.44 778.564 1440.36 778.564H1485.56C1500.93 778.564 1512.45 781.926 1520.14 788.648C1527.94 795.251 1531.84 804.856 1531.84 817.461C1531.84 827.065 1529.2 835.229 1523.92 841.952C1518.64 848.555 1511.19 852.997 1501.59 855.278C1505.55 855.878 1508.97 857.199 1511.85 859.24C1514.86 861.28 1517.8 864.342 1520.68 868.424L1531.84 884.451ZM1480.34 833.128C1487.66 833.128 1492.89 831.988 1496.01 829.707C1499.25 827.426 1500.87 823.704 1500.87 818.542C1500.87 813.259 1499.25 809.478 1496.01 807.197C1492.89 804.796 1487.66 803.595 1480.34 803.595H1457.29V833.128H1480.34ZM1567.68 905.52C1562.76 905.52 1558.98 904.199 1556.34 901.558C1553.7 898.917 1552.38 895.135 1552.38 890.213V793.871C1552.38 788.949 1553.7 785.167 1556.34 782.526C1558.98 779.885 1562.76 778.564 1567.68 778.564H1629.99C1635.15 778.564 1639.06 779.645 1641.7 781.805C1644.34 783.966 1645.66 787.088 1645.66 791.17C1645.66 799.813 1640.44 804.135 1629.99 804.135H1584.61V828.266H1626.39C1636.84 828.266 1642.06 832.528 1642.06 841.052C1642.06 845.133 1640.74 848.255 1638.1 850.416C1635.45 852.577 1631.55 853.657 1626.39 853.657H1584.61V879.949H1629.99C1640.44 879.949 1645.66 884.271 1645.66 892.914C1645.66 896.996 1644.34 900.118 1641.7 902.278C1639.06 904.439 1635.15 905.52 1629.99 905.52H1567.68Z" fill="black"/>
<defs>
<clipPath id="clip0">
<path d="M169.539 275.609C169.539 217.106 216.965 169.68 275.468 169.68H1769.07C1827.57 169.68 1875 217.106 1875 275.609V1091.26C1875 1149.76 1827.57 1197.19 1769.07 1197.19H275.468C216.965 1197.19 169.539 1149.76 169.539 1091.26V275.609Z" fill="white"/>
</clipPath>
<clipPath id="clip1">
<rect width="572.016" height="572.016" fill="white" transform="translate(365.301 386.591)"/>
</clipPath>
</defs>
</svg>
