<svg width="1601" height="753" viewBox="0 0 1601 753" fill="none" xmlns="http://www.w3.org/2000/svg">
<g clip-path="url(#clip0)">
<g clip-path="url(#clip1)">
<path d="M689.261 98.3443C699.135 97.5116 708.283 106.66 707.45 116.534C706.237 130.595 688.725 450.156 586.464 552.417C488.45 650.431 372.96 627.424 297.549 573.212C296.641 572.559 295.616 571.773 294.491 570.869L226.51 638.755C210.084 655.18 183.453 655.18 167.028 638.755C150.602 622.329 150.602 595.698 167.028 579.273L234.926 511.303C234.018 510.173 233.227 509.145 232.571 508.234C178.359 432.823 155.352 317.333 253.366 219.319C355.627 117.057 675.187 99.5459 689.261 98.3443Z" fill="#60AC0E"/>
<path d="M493.331 353.868C506.685 357.809 516.975 364.705 524.199 374.556C531.642 384.189 535.364 396.12 535.364 410.35C535.364 429.833 528.14 445.267 513.691 456.651C499.461 468.035 479.758 473.727 454.583 473.727H368.547C360.885 473.727 354.974 471.647 350.815 467.488C346.655 463.328 344.575 457.417 344.575 449.755V266.191C344.575 258.529 346.655 252.618 350.815 248.458C354.974 244.299 360.885 242.219 368.547 242.219H451.299C475.38 242.219 494.426 247.583 508.437 258.31C522.667 269.037 529.782 283.704 529.782 302.313C529.782 314.353 526.498 324.971 519.93 334.165C513.581 343.141 504.715 349.709 493.331 353.868ZM394.489 336.464H442.761C455.896 336.464 465.529 334.275 471.658 329.896C478.007 325.299 481.181 318.403 481.181 309.209C481.181 299.576 478.007 292.571 471.658 288.192C465.529 283.595 455.896 281.296 442.761 281.296H394.489V336.464ZM448.672 434.65C462.245 434.65 472.096 432.351 478.226 427.754C484.356 423.156 487.421 415.713 487.421 405.424C487.421 395.135 484.356 387.582 478.226 382.766C472.096 377.949 462.245 375.541 448.672 375.541H394.489V434.65H448.672Z" fill="white"/>
</g>
<path d="M844.157 403.098C836.742 403.098 831.022 401.086 826.997 397.06C822.971 393.035 820.959 387.315 820.959 379.9V202.257C820.959 194.842 822.971 189.122 826.997 185.097C831.022 181.071 836.742 179.059 844.157 179.059H956.654C972.331 179.059 980.17 185.414 980.17 198.126C980.17 211.049 972.331 217.511 956.654 217.511H869.262V269.946H950.298C965.976 269.946 973.814 276.407 973.814 289.331C973.814 302.042 965.976 308.398 950.298 308.398H869.262V364.646H956.654C972.331 364.646 980.17 371.108 980.17 384.031C980.17 396.743 972.331 403.098 956.654 403.098H844.157ZM1112.3 405.958C1090.26 405.958 1070.99 401.298 1054.46 391.976C1037.94 382.654 1025.22 369.307 1016.33 351.935C1007.43 334.562 1002.98 314.224 1002.98 290.92C1002.98 267.615 1007.43 247.383 1016.33 230.222C1025.22 212.85 1037.94 199.503 1054.46 190.181C1070.99 180.859 1090.26 176.199 1112.3 176.199C1140.05 176.199 1163.99 183.825 1184.12 199.079C1187.3 201.621 1189.52 204.164 1190.79 206.706C1192.06 209.248 1192.7 212.426 1192.7 216.24C1192.7 221.748 1191.11 226.515 1187.93 230.54C1184.96 234.354 1181.26 236.26 1176.81 236.26C1173.84 236.26 1171.19 235.942 1168.86 235.307C1166.74 234.459 1164.31 233.082 1161.55 231.176C1153.08 225.667 1145.24 221.748 1138.04 219.418C1130.83 216.875 1123.1 215.604 1114.84 215.604C1094.5 215.604 1079.14 221.96 1068.76 234.671C1058.59 247.171 1053.51 265.92 1053.51 290.92C1053.51 341.342 1073.95 366.553 1114.84 366.553C1122.68 366.553 1130.09 365.388 1137.08 363.057C1144.08 360.515 1152.23 356.49 1161.55 350.981C1164.73 349.075 1167.38 347.803 1169.5 347.168C1171.62 346.32 1174.05 345.897 1176.81 345.897C1181.26 345.897 1184.96 347.909 1187.93 351.935C1191.11 355.748 1192.7 360.409 1192.7 365.917C1192.7 369.731 1191.96 373.015 1190.47 375.769C1189.2 378.311 1187.08 380.747 1184.12 383.078C1163.99 398.332 1140.05 405.958 1112.3 405.958ZM1323.02 405.958C1300.77 405.958 1281.39 401.298 1264.86 391.976C1248.55 382.442 1235.94 369.095 1227.05 351.935C1218.15 334.562 1213.7 314.224 1213.7 290.92C1213.7 267.615 1218.15 247.383 1227.05 230.222C1235.94 212.85 1248.55 199.503 1264.86 190.181C1281.39 180.859 1300.77 176.199 1323.02 176.199C1345.26 176.199 1364.54 180.859 1380.85 190.181C1397.38 199.503 1410.09 212.85 1418.99 230.222C1427.89 247.383 1432.34 267.615 1432.34 290.92C1432.34 314.224 1427.89 334.562 1418.99 351.935C1410.09 369.095 1397.38 382.442 1380.85 391.976C1364.54 401.298 1345.26 405.958 1323.02 405.958ZM1323.02 367.506C1341.66 367.506 1356.28 360.939 1366.87 347.803C1377.68 334.668 1383.08 315.707 1383.08 290.92C1383.08 266.132 1377.78 247.277 1367.19 234.354C1356.6 221.218 1341.87 214.651 1323.02 214.651C1304.16 214.651 1289.44 221.218 1278.84 234.354C1268.46 247.277 1263.27 266.132 1263.27 290.92C1263.27 315.707 1268.57 334.668 1279.16 347.803C1289.76 360.939 1304.37 367.506 1323.02 367.506ZM874.118 605.719C864.514 605.719 855.57 604.699 847.286 602.658C839.123 600.497 832.4 597.556 827.117 593.834C825.076 592.273 823.576 590.652 822.615 588.972C821.775 587.291 821.355 585.13 821.355 582.489C821.355 578.887 822.435 575.766 824.596 573.125C826.757 570.484 829.278 569.163 832.16 569.163C833.72 569.163 835.221 569.403 836.662 569.883C838.102 570.364 839.903 571.264 842.064 572.585C846.986 575.346 851.848 577.327 856.65 578.527C861.573 579.728 867.095 580.328 873.218 580.328C880.301 580.328 885.643 579.307 889.245 577.267C892.966 575.106 894.827 571.984 894.827 567.902C894.827 565.141 893.086 562.8 889.605 560.879C886.243 558.838 879.761 556.858 870.156 554.937C858.271 552.416 848.967 549.414 842.244 545.933C835.521 542.451 830.779 538.369 828.018 533.687C825.377 528.885 824.056 523.123 824.056 516.4C824.056 508.716 826.337 501.753 830.899 495.511C835.461 489.268 841.704 484.406 849.627 480.924C857.671 477.323 866.675 475.522 876.639 475.522C885.403 475.522 893.206 476.482 900.049 478.403C906.892 480.324 913.135 483.325 918.778 487.407C920.939 488.968 922.439 490.648 923.28 492.449C924.24 494.13 924.72 496.231 924.72 498.752C924.72 502.354 923.64 505.475 921.479 508.116C919.438 510.757 916.977 512.078 914.096 512.078C912.535 512.078 911.094 511.898 909.774 511.538C908.453 511.057 906.592 510.097 904.191 508.656C903.591 508.296 901.85 507.396 898.969 505.955C896.208 504.395 892.906 503.194 889.065 502.354C885.343 501.393 881.261 500.913 876.819 500.913C870.697 500.913 865.774 502.114 862.053 504.515C858.331 506.796 856.47 509.857 856.47 513.699C856.47 515.98 857.131 517.84 858.451 519.281C859.772 520.722 862.233 522.162 865.834 523.603C869.436 524.924 874.778 526.304 881.861 527.745C893.387 530.266 902.451 533.327 909.053 536.929C915.656 540.41 920.338 544.492 923.1 549.174C925.861 553.856 927.241 559.379 927.241 565.742C927.241 573.665 925.02 580.688 920.578 586.811C916.137 592.813 909.894 597.495 901.85 600.857C893.927 604.098 884.683 605.719 874.118 605.719ZM1006.13 605.719C993.402 605.719 982.237 603.078 972.633 597.796C963.148 592.513 955.765 584.95 950.483 575.106C945.321 565.261 942.739 553.736 942.739 540.53C942.739 527.445 945.321 515.98 950.483 506.135C955.765 496.291 963.148 488.728 972.633 483.445C982.237 478.163 993.402 475.522 1006.13 475.522C1021.37 475.522 1034.76 479.544 1046.29 487.587C1048.33 489.028 1049.77 490.588 1050.61 492.269C1051.57 493.95 1052.05 496.111 1052.05 498.752C1052.05 502.474 1050.97 505.655 1048.81 508.296C1046.77 510.817 1044.24 512.078 1041.24 512.078C1039.44 512.078 1037.82 511.838 1036.38 511.358C1034.94 510.757 1033.26 509.857 1031.34 508.656C1027.14 506.135 1023.17 504.334 1019.45 503.254C1015.73 502.174 1011.89 501.633 1007.93 501.633C997.243 501.633 989.26 504.875 983.978 511.358C978.815 517.72 976.234 527.445 976.234 540.53C976.234 553.736 978.815 563.581 983.978 570.063C989.26 576.426 997.243 579.608 1007.93 579.608C1011.53 579.608 1015.01 579.067 1018.37 577.987C1021.73 576.786 1026.06 574.986 1031.34 572.585C1033.86 571.264 1035.72 570.364 1036.92 569.883C1038.12 569.403 1039.56 569.163 1041.24 569.163C1044.24 569.163 1046.77 570.484 1048.81 573.125C1050.97 575.646 1052.05 578.767 1052.05 582.489C1052.05 585.01 1051.57 587.171 1050.61 588.972C1049.77 590.652 1048.33 592.213 1046.29 593.654C1034.76 601.697 1021.37 605.719 1006.13 605.719ZM1125.54 605.719C1112.57 605.719 1101.29 603.078 1091.68 597.796C1082.2 592.393 1074.88 584.83 1069.72 575.106C1064.55 565.261 1061.97 553.736 1061.97 540.53C1061.97 527.325 1064.55 515.86 1069.72 506.135C1074.88 496.291 1082.2 488.728 1091.68 483.445C1101.29 478.163 1112.57 475.522 1125.54 475.522C1138.51 475.522 1149.73 478.163 1159.21 483.445C1168.82 488.728 1176.14 496.291 1181.18 506.135C1186.35 515.86 1188.93 527.325 1188.93 540.53C1188.93 553.736 1186.35 565.261 1181.18 575.106C1176.02 584.83 1168.64 592.393 1159.03 597.796C1149.55 603.078 1138.39 605.719 1125.54 605.719ZM1125.54 580.328C1135.14 580.328 1142.65 576.966 1148.05 570.243C1153.45 563.4 1156.15 553.496 1156.15 540.53C1156.15 527.565 1153.39 517.72 1147.87 510.997C1142.47 504.274 1135.02 500.913 1125.54 500.913C1115.94 500.913 1108.43 504.274 1103.03 510.997C1097.63 517.6 1094.93 527.445 1094.93 540.53C1094.93 553.616 1097.63 563.521 1103.03 570.243C1108.43 576.966 1115.94 580.328 1125.54 580.328ZM1315.32 583.029C1317.49 586.271 1318.57 589.332 1318.57 592.213C1318.57 596.055 1316.95 599.296 1313.7 601.937C1310.58 604.459 1306.92 605.719 1302.72 605.719C1299.84 605.719 1297.14 605.059 1294.62 603.738C1292.09 602.418 1289.93 600.437 1288.13 597.796L1264.72 563.581C1263.04 561.18 1261.24 559.439 1259.32 558.358C1257.52 557.158 1255.36 556.557 1252.84 556.557H1241.13V588.792C1241.13 593.834 1239.69 597.856 1236.81 600.857C1233.93 603.738 1229.97 605.179 1224.93 605.179C1219.88 605.179 1215.86 603.738 1212.86 600.857C1209.98 597.856 1208.54 593.834 1208.54 588.792V492.449C1208.54 487.527 1209.86 483.745 1212.5 481.104C1215.14 478.463 1218.92 477.143 1223.84 477.143H1269.04C1284.41 477.143 1295.94 480.504 1303.62 487.227C1311.42 493.83 1315.32 503.434 1315.32 516.04C1315.32 525.644 1312.68 533.807 1307.4 540.53C1302.12 547.133 1294.68 551.575 1285.07 553.856C1289.03 554.457 1292.45 555.777 1295.34 557.818C1298.34 559.859 1301.28 562.92 1304.16 567.002L1315.32 583.029ZM1263.82 531.707C1271.15 531.707 1276.37 530.566 1279.49 528.285C1282.73 526.004 1284.35 522.282 1284.35 517.12C1284.35 511.838 1282.73 508.056 1279.49 505.775C1276.37 503.374 1271.15 502.174 1263.82 502.174H1240.77V531.707H1263.82ZM1351.17 604.098C1346.24 604.098 1342.46 602.778 1339.82 600.137C1337.18 597.495 1335.86 593.714 1335.86 588.792V492.449C1335.86 487.527 1337.18 483.745 1339.82 481.104C1342.46 478.463 1346.24 477.143 1351.17 477.143H1413.47C1418.64 477.143 1422.54 478.223 1425.18 480.384C1427.82 482.545 1429.14 485.666 1429.14 489.748C1429.14 498.392 1423.92 502.714 1413.47 502.714H1368.09V526.844H1409.87C1420.32 526.844 1425.54 531.106 1425.54 539.63C1425.54 543.712 1424.22 546.833 1421.58 548.994C1418.94 551.155 1415.03 552.236 1409.87 552.236H1368.09V578.527H1413.47C1423.92 578.527 1429.14 582.849 1429.14 591.493C1429.14 595.575 1427.82 598.696 1425.18 600.857C1422.54 603.018 1418.64 604.098 1413.47 604.098H1351.17Z" fill="#4A4A4A"/>
</g>
<defs>
<clipPath id="clip0">
<rect width="1599.53" height="752.096" fill="white" transform="translate(0.480957 0.42627)"/>
</clipPath>
<clipPath id="clip1">
<rect width="572.016" height="572.016" fill="white" transform="translate(148.781 85.1694)"/>
</clipPath>
</defs>
</svg>
