<svg width="1600" height="753" viewBox="0 0 1600 753" fill="none" xmlns="http://www.w3.org/2000/svg">
<g clip-path="url(#clip0)">
<g clip-path="url(#clip1)">
<path d="M688.832 98.3443C698.706 97.5116 707.854 106.66 707.021 116.534C705.808 130.595 688.296 450.156 586.035 552.417C488.021 650.431 372.531 627.424 297.12 573.212C296.211 572.559 295.187 571.773 294.062 570.869L226.081 638.755C209.655 655.18 183.024 655.18 166.599 638.755C150.173 622.329 150.173 595.698 166.599 579.273L234.496 511.303C233.588 510.173 232.798 509.145 232.142 508.234C177.93 432.823 154.922 317.333 252.937 219.319C355.198 117.057 674.758 99.5459 688.832 98.3443Z" fill="#1E8F4E"/>
<path d="M549.79 442.531C551.541 446.471 552.417 449.974 552.417 453.039C552.417 459.169 549.9 464.423 544.864 468.801C540.048 472.961 534.466 475.04 528.117 475.04C523.958 475.04 520.017 473.946 516.295 471.757C512.574 469.348 509.728 465.846 507.757 461.248L490.353 422.5H379.033L361.628 461.248C359.658 465.846 356.812 469.348 353.091 471.757C349.588 473.946 345.647 475.04 341.269 475.04C334.92 475.04 329.228 472.961 324.193 468.801C319.158 464.423 316.64 459.169 316.64 453.039C316.64 449.974 317.516 446.471 319.267 442.531L407.93 256.339C410.338 251.085 413.95 247.145 418.767 244.518C423.583 241.672 428.727 240.249 434.2 240.249C439.892 240.249 445.146 241.672 449.963 244.518C454.779 247.364 458.501 251.304 461.128 256.339L549.79 442.531ZM396.437 383.751H472.949L434.857 298.372L396.437 383.751Z" fill="white"/>
</g>
<path d="M843.728 403.098C836.313 403.098 830.593 401.086 826.568 397.06C822.542 393.035 820.53 387.315 820.53 379.9V202.257C820.53 194.842 822.542 189.122 826.568 185.097C830.593 181.071 836.313 179.059 843.728 179.059H956.225C971.902 179.059 979.741 185.414 979.741 198.126C979.741 211.049 971.902 217.511 956.225 217.511H868.833V269.946H949.869C965.546 269.946 973.385 276.407 973.385 289.331C973.385 302.042 965.546 308.398 949.869 308.398H868.833V364.646H956.225C971.902 364.646 979.741 371.108 979.741 384.031C979.741 396.743 971.902 403.098 956.225 403.098H843.728ZM1111.87 405.958C1089.83 405.958 1070.56 401.298 1054.03 391.976C1037.51 382.654 1024.79 369.307 1015.9 351.935C1007 334.562 1002.55 314.224 1002.55 290.92C1002.55 267.615 1007 247.383 1015.9 230.222C1024.79 212.85 1037.51 199.503 1054.03 190.181C1070.56 180.859 1089.83 176.199 1111.87 176.199C1139.62 176.199 1163.56 183.825 1183.69 199.079C1186.87 201.621 1189.09 204.164 1190.36 206.706C1191.63 209.248 1192.27 212.426 1192.27 216.24C1192.27 221.748 1190.68 226.515 1187.5 230.54C1184.54 234.354 1180.83 236.26 1176.38 236.26C1173.41 236.26 1170.76 235.942 1168.43 235.307C1166.32 234.459 1163.88 233.082 1161.13 231.176C1152.65 225.667 1144.81 221.748 1137.61 219.418C1130.41 216.875 1122.67 215.604 1114.41 215.604C1094.07 215.604 1078.71 221.96 1068.33 234.671C1058.16 247.171 1053.08 265.92 1053.08 290.92C1053.08 341.342 1073.52 366.553 1114.41 366.553C1122.25 366.553 1129.66 365.388 1136.66 363.057C1143.65 360.515 1151.8 356.49 1161.13 350.981C1164.3 349.075 1166.95 347.803 1169.07 347.168C1171.19 346.32 1173.62 345.897 1176.38 345.897C1180.83 345.897 1184.54 347.909 1187.5 351.935C1190.68 355.748 1192.27 360.409 1192.27 365.917C1192.27 369.731 1191.53 373.015 1190.04 375.769C1188.77 378.311 1186.65 380.747 1183.69 383.078C1163.56 398.332 1139.62 405.958 1111.87 405.958ZM1322.59 405.958C1300.34 405.958 1280.96 401.298 1264.43 391.976C1248.12 382.442 1235.51 369.095 1226.62 351.935C1217.72 334.562 1213.27 314.224 1213.27 290.92C1213.27 267.615 1217.72 247.383 1226.62 230.222C1235.51 212.85 1248.12 199.503 1264.43 190.181C1280.96 180.859 1300.34 176.199 1322.59 176.199C1344.83 176.199 1364.11 180.859 1380.43 190.181C1396.95 199.503 1409.66 212.85 1418.56 230.222C1427.46 247.383 1431.91 267.615 1431.91 290.92C1431.91 314.224 1427.46 334.562 1418.56 351.935C1409.66 369.095 1396.95 382.442 1380.43 391.976C1364.11 401.298 1344.83 405.958 1322.59 405.958ZM1322.59 367.506C1341.23 367.506 1355.85 360.939 1366.44 347.803C1377.25 334.668 1382.65 315.707 1382.65 290.92C1382.65 266.132 1377.35 247.277 1366.76 234.354C1356.17 221.218 1341.44 214.651 1322.59 214.651C1303.73 214.651 1289.01 221.218 1278.42 234.354C1268.03 247.277 1262.84 266.132 1262.84 290.92C1262.84 315.707 1268.14 334.668 1278.73 347.803C1289.33 360.939 1303.94 367.506 1322.59 367.506ZM873.689 605.719C864.085 605.719 855.141 604.699 846.857 602.658C838.693 600.497 831.97 597.556 826.688 593.834C824.647 592.273 823.147 590.652 822.186 588.972C821.346 587.291 820.926 585.13 820.926 582.489C820.926 578.887 822.006 575.766 824.167 573.125C826.328 570.484 828.849 569.163 831.73 569.163C833.291 569.163 834.792 569.403 836.232 569.883C837.673 570.364 839.474 571.264 841.635 572.585C846.557 575.346 851.419 577.327 856.221 578.527C861.143 579.728 866.666 580.328 872.788 580.328C879.872 580.328 885.214 579.307 888.816 577.267C892.537 575.106 894.398 571.984 894.398 567.902C894.398 565.141 892.657 562.8 889.176 560.879C885.814 558.838 879.331 556.858 869.727 554.937C857.842 552.416 848.538 549.414 841.815 545.933C835.092 542.451 830.35 538.369 827.589 533.687C824.947 528.885 823.627 523.123 823.627 516.4C823.627 508.716 825.908 501.753 830.47 495.511C835.032 489.268 841.275 484.406 849.198 480.924C857.242 477.323 866.246 475.522 876.21 475.522C884.974 475.522 892.777 476.482 899.62 478.403C906.463 480.324 912.706 483.325 918.349 487.407C920.509 488.968 922.01 490.648 922.85 492.449C923.811 494.13 924.291 496.231 924.291 498.752C924.291 502.354 923.211 505.475 921.05 508.116C919.009 510.757 916.548 512.078 913.666 512.078C912.106 512.078 910.665 511.898 909.345 511.538C908.024 511.057 906.163 510.097 903.762 508.656C903.162 508.296 901.421 507.396 898.54 505.955C895.779 504.395 892.477 503.194 888.635 502.354C884.914 501.393 880.832 500.913 876.39 500.913C870.267 500.913 865.345 502.114 861.624 504.515C857.902 506.796 856.041 509.857 856.041 513.699C856.041 515.98 856.701 517.84 858.022 519.281C859.343 520.722 861.804 522.162 865.405 523.603C869.007 524.924 874.349 526.304 881.432 527.745C892.957 530.266 902.021 533.327 908.624 536.929C915.227 540.41 919.909 544.492 922.67 549.174C925.432 553.856 926.812 559.379 926.812 565.742C926.812 573.665 924.591 580.688 920.149 586.811C915.707 592.813 909.465 597.495 901.421 600.857C893.498 604.098 884.254 605.719 873.689 605.719ZM1005.7 605.719C992.973 605.719 981.808 603.078 972.203 597.796C962.719 592.513 955.336 584.95 950.054 575.106C944.891 565.261 942.31 553.736 942.31 540.53C942.31 527.445 944.891 515.98 950.054 506.135C955.336 496.291 962.719 488.728 972.203 483.445C981.808 478.163 992.973 475.522 1005.7 475.522C1020.94 475.522 1034.33 479.544 1045.86 487.587C1047.9 489.028 1049.34 490.588 1050.18 492.269C1051.14 493.95 1051.62 496.111 1051.62 498.752C1051.62 502.474 1050.54 505.655 1048.38 508.296C1046.34 510.817 1043.81 512.078 1040.81 512.078C1039.01 512.078 1037.39 511.838 1035.95 511.358C1034.51 510.757 1032.83 509.857 1030.91 508.656C1026.71 506.135 1022.75 504.334 1019.02 503.254C1015.3 502.174 1011.46 501.633 1007.5 501.633C996.814 501.633 988.831 504.875 983.548 511.358C978.386 517.72 975.805 527.445 975.805 540.53C975.805 553.736 978.386 563.581 983.548 570.063C988.831 576.426 996.814 579.608 1007.5 579.608C1011.1 579.608 1014.58 579.067 1017.94 577.987C1021.31 576.786 1025.63 574.986 1030.91 572.585C1033.43 571.264 1035.29 570.364 1036.49 569.883C1037.69 569.403 1039.13 569.163 1040.81 569.163C1043.81 569.163 1046.34 570.484 1048.38 573.125C1050.54 575.646 1051.62 578.767 1051.62 582.489C1051.62 585.01 1051.14 587.171 1050.18 588.972C1049.34 590.652 1047.9 592.213 1045.86 593.654C1034.33 601.697 1020.94 605.719 1005.7 605.719ZM1125.11 605.719C1112.14 605.719 1100.86 603.078 1091.26 597.796C1081.77 592.393 1074.45 584.83 1069.29 575.106C1064.12 565.261 1061.54 553.736 1061.54 540.53C1061.54 527.325 1064.12 515.86 1069.29 506.135C1074.45 496.291 1081.77 488.728 1091.26 483.445C1100.86 478.163 1112.14 475.522 1125.11 475.522C1138.08 475.522 1149.3 478.163 1158.79 483.445C1168.39 488.728 1175.71 496.291 1180.75 506.135C1185.92 515.86 1188.5 527.325 1188.5 540.53C1188.5 553.736 1185.92 565.261 1180.75 575.106C1175.59 584.83 1168.21 592.393 1158.61 597.796C1149.12 603.078 1137.96 605.719 1125.11 605.719ZM1125.11 580.328C1134.71 580.328 1142.22 576.966 1147.62 570.243C1153.02 563.4 1155.72 553.496 1155.72 540.53C1155.72 527.565 1152.96 517.72 1147.44 510.997C1142.04 504.274 1134.59 500.913 1125.11 500.913C1115.51 500.913 1108 504.274 1102.6 510.997C1097.2 517.6 1094.5 527.445 1094.5 540.53C1094.5 553.616 1097.2 563.521 1102.6 570.243C1108 576.966 1115.51 580.328 1125.11 580.328ZM1314.9 583.029C1317.06 586.271 1318.14 589.332 1318.14 592.213C1318.14 596.055 1316.52 599.296 1313.27 601.937C1310.15 604.459 1306.49 605.719 1302.29 605.719C1299.41 605.719 1296.71 605.059 1294.19 603.738C1291.67 602.418 1289.5 600.437 1287.7 597.796L1264.29 563.581C1262.61 561.18 1260.81 559.439 1258.89 558.358C1257.09 557.158 1254.93 556.557 1252.41 556.557H1240.7V588.792C1240.7 593.834 1239.26 597.856 1236.38 600.857C1233.5 603.738 1229.54 605.179 1224.5 605.179C1219.45 605.179 1215.43 603.738 1212.43 600.857C1209.55 597.856 1208.11 593.834 1208.11 588.792V492.449C1208.11 487.527 1209.43 483.745 1212.07 481.104C1214.71 478.463 1218.49 477.143 1223.42 477.143H1268.62C1283.98 477.143 1295.51 480.504 1303.19 487.227C1310.99 493.83 1314.9 503.434 1314.9 516.04C1314.9 525.644 1312.25 533.807 1306.97 540.53C1301.69 547.133 1294.25 551.575 1284.64 553.856C1288.6 554.457 1292.03 555.777 1294.91 557.818C1297.91 559.859 1300.85 562.92 1303.73 567.002L1314.9 583.029ZM1263.39 531.707C1270.72 531.707 1275.94 530.566 1279.06 528.285C1282.3 526.004 1283.92 522.282 1283.92 517.12C1283.92 511.838 1282.3 508.056 1279.06 505.775C1275.94 503.374 1270.72 502.174 1263.39 502.174H1240.34V531.707H1263.39ZM1350.74 604.098C1345.81 604.098 1342.03 602.778 1339.39 600.137C1336.75 597.495 1335.43 593.714 1335.43 588.792V492.449C1335.43 487.527 1336.75 483.745 1339.39 481.104C1342.03 478.463 1345.81 477.143 1350.74 477.143H1413.04C1418.21 477.143 1422.11 478.223 1424.75 480.384C1427.39 482.545 1428.71 485.666 1428.71 489.748C1428.71 498.392 1423.49 502.714 1413.04 502.714H1367.66V526.844H1409.44C1419.89 526.844 1425.11 531.106 1425.11 539.63C1425.11 543.712 1423.79 546.833 1421.15 548.994C1418.51 551.155 1414.61 552.236 1409.44 552.236H1367.66V578.527H1413.04C1423.49 578.527 1428.71 582.849 1428.71 591.493C1428.71 595.575 1427.39 598.696 1424.75 600.857C1422.11 603.018 1418.21 604.098 1413.04 604.098H1350.74Z" fill="#4A4A4A"/>
</g>
<defs>
<clipPath id="clip0">
<rect width="1599.53" height="752.096" fill="white" transform="translate(0.0517578 0.42627)"/>
</clipPath>
<clipPath id="clip1">
<rect width="572.016" height="572.016" fill="white" transform="translate(148.353 85.1694)"/>
</clipPath>
</defs>
</svg>
