<svg width="2046" height="1367" viewBox="0 0 2046 1367" fill="none" xmlns="http://www.w3.org/2000/svg">
<g clip-path="url(#clip0)">
<path d="M170.396 275.609C170.396 217.106 217.823 169.68 276.325 169.68H1769.92C1828.43 169.68 1875.85 217.106 1875.85 275.609V1091.26C1875.85 1149.76 1828.43 1197.19 1769.92 1197.19H276.325C217.822 1197.19 170.396 1149.76 170.396 1091.26V275.609Z" fill="white"/>
<mask id="mask0" mask-type="alpha" maskUnits="userSpaceOnUse" x="170" y="169" width="1706" height="1029">
<rect x="196.879" y="196.162" width="1652.49" height="974.547" rx="79.4467" stroke="black" stroke-width="52.9645"/>
</mask>
<g mask="url(#mask0)">
<path d="M1547.47 169.68H1875.85V1197.19H1547.47V169.68Z" fill="black"/>
<path d="M498.775 1197.19L170.396 1197.19L170.396 169.68L498.775 169.68L498.775 1197.19Z" fill="black"/>
<rect x="1187.31" y="169.68" width="360.158" height="1027.51" fill="#5B5B5B"/>
<rect x="869.527" y="169.68" width="317.787" height="1027.51" fill="#989898"/>
<rect x="498.775" y="169.68" width="370.751" height="1027.51" fill="#5B5B5B"/>
</g>
</g>
<g clip-path="url(#clip1)">
<path d="M906.637 399.766C916.511 398.933 925.659 408.081 924.826 417.955C923.613 432.017 906.101 751.577 803.84 853.838C705.826 951.853 590.336 928.845 514.925 874.633C514.017 873.98 512.992 873.194 511.867 872.291L443.886 940.176C427.46 956.602 400.829 956.602 384.404 940.176C367.978 923.751 367.978 897.12 384.404 880.695L452.302 812.724C451.394 811.595 450.603 810.566 449.947 809.655C395.735 734.244 372.728 618.754 470.742 520.74C573.003 418.479 892.563 400.967 906.637 399.766Z" fill="black"/>
<path d="M670.271 778.104C647.503 778.104 627.582 773.287 610.506 763.655C593.43 754.023 580.295 740.231 571.1 722.279C561.906 704.328 557.308 683.311 557.308 659.23C557.308 635.149 561.906 614.242 571.1 596.51C580.295 578.558 593.43 564.766 610.506 555.134C627.582 545.501 647.503 540.685 670.271 540.685C698.949 540.685 723.687 548.566 744.485 564.328C747.769 566.956 750.067 569.583 751.381 572.21C752.694 574.837 753.351 578.12 753.351 582.061C753.351 587.753 751.709 592.679 748.425 596.838C745.36 600.779 741.529 602.749 736.932 602.749C733.867 602.749 731.131 602.421 728.723 601.764C726.533 600.888 724.016 599.465 721.17 597.495C712.413 591.803 704.313 587.753 696.87 585.345C689.426 582.718 681.436 581.404 672.898 581.404C651.882 581.404 636.01 587.972 625.283 601.107C614.775 614.023 609.521 633.398 609.521 659.23C609.521 711.333 630.646 737.385 672.898 737.385C680.998 737.385 688.66 736.181 695.885 733.772C703.109 731.145 711.537 726.986 721.17 721.294C724.454 719.324 727.19 718.01 729.379 717.353C731.568 716.478 734.086 716.04 736.932 716.04C741.529 716.04 745.36 718.12 748.425 722.279C751.709 726.22 753.351 731.036 753.351 736.728C753.351 740.668 752.585 744.062 751.052 746.908C749.739 749.535 747.55 752.052 744.485 754.46C723.687 770.223 698.949 778.104 670.271 778.104Z" fill="white"/>
</g>
<path d="M1061.53 704.52C1054.12 704.52 1048.4 702.507 1044.37 698.482C1040.35 694.457 1038.33 688.736 1038.33 681.321V503.679C1038.33 496.264 1040.35 490.543 1044.37 486.518C1048.4 482.493 1054.12 480.48 1061.53 480.48H1174.03C1189.71 480.48 1197.55 486.836 1197.55 499.547C1197.55 512.471 1189.71 518.932 1174.03 518.932H1086.64V571.367H1167.67C1183.35 571.367 1191.19 577.829 1191.19 590.752C1191.19 603.464 1183.35 609.819 1167.67 609.819H1086.64V666.068H1174.03C1189.71 666.068 1197.55 672.529 1197.55 685.453C1197.55 698.164 1189.71 704.52 1174.03 704.52H1061.53ZM1127 461.731C1125.3 462.578 1123.29 463.002 1120.96 463.002C1117.99 463.002 1115.35 462.048 1113.01 460.142C1110.9 458.023 1109.84 455.587 1109.84 452.833C1109.84 450.079 1111.21 447.324 1113.97 444.57L1141.3 417.558C1146.17 412.686 1151.36 410.249 1156.87 410.249C1161.53 410.249 1165.56 412.05 1168.95 415.652C1172.55 419.041 1174.35 423.067 1174.35 427.727C1174.35 430.905 1173.29 433.977 1171.17 436.943C1169.05 439.909 1165.87 442.452 1161.64 444.57L1127 461.731ZM1329.67 707.38C1307.64 707.38 1288.36 702.719 1271.84 693.397C1255.31 684.076 1242.6 670.729 1233.7 653.356C1224.8 635.984 1220.35 615.645 1220.35 592.341C1220.35 569.037 1224.8 548.804 1233.7 531.644C1242.6 514.271 1255.31 500.924 1271.84 491.603C1288.36 482.281 1307.64 477.62 1329.67 477.62C1357.43 477.62 1381.37 485.247 1401.49 500.501C1404.67 503.043 1406.9 505.585 1408.17 508.128C1409.44 510.67 1410.07 513.848 1410.07 517.661C1410.07 523.17 1408.48 527.936 1405.31 531.962C1402.34 535.775 1398.63 537.682 1394.18 537.682C1391.22 537.682 1388.57 537.364 1386.24 536.728C1384.12 535.881 1381.68 534.504 1378.93 532.597C1370.46 527.089 1362.62 523.17 1355.41 520.839C1348.21 518.297 1340.48 517.026 1332.22 517.026C1311.88 517.026 1296.52 523.381 1286.14 536.093C1275.97 548.592 1270.88 567.342 1270.88 592.341C1270.88 642.763 1291.33 667.974 1332.22 667.974C1340.05 667.974 1347.47 666.809 1354.46 664.479C1361.45 661.936 1369.61 657.911 1378.93 652.403C1382.11 650.496 1384.76 649.225 1386.87 648.589C1388.99 647.742 1391.43 647.318 1394.18 647.318C1398.63 647.318 1402.34 649.331 1405.31 653.356C1408.48 657.17 1410.07 661.831 1410.07 667.339C1410.07 671.152 1409.33 674.436 1407.85 677.19C1406.58 679.733 1404.46 682.169 1401.49 684.499C1381.37 699.753 1357.43 707.38 1329.67 707.38ZM1540.39 707.38C1518.15 707.38 1498.76 702.719 1482.24 693.397C1465.93 683.864 1453.32 670.517 1444.42 653.356C1435.52 635.984 1431.07 615.645 1431.07 592.341C1431.07 569.037 1435.52 548.804 1444.42 531.644C1453.32 514.271 1465.93 500.924 1482.24 491.603C1498.76 482.281 1518.15 477.62 1540.39 477.62C1562.64 477.62 1581.92 482.281 1598.23 491.603C1614.76 500.924 1627.47 514.271 1636.36 531.644C1645.26 548.804 1649.71 569.037 1649.71 592.341C1649.71 615.645 1645.26 635.984 1636.36 653.356C1627.47 670.517 1614.76 683.864 1598.23 693.397C1581.92 702.719 1562.64 707.38 1540.39 707.38ZM1540.39 668.928C1559.04 668.928 1573.66 662.36 1584.25 649.225C1595.05 636.09 1600.46 617.128 1600.46 592.341C1600.46 567.554 1595.16 548.698 1584.57 535.775C1573.97 522.64 1559.25 516.072 1540.39 516.072C1521.54 516.072 1506.81 522.64 1496.22 535.775C1485.84 548.698 1480.65 567.554 1480.65 592.341C1480.65 617.128 1485.95 636.09 1496.54 649.225C1507.13 662.36 1521.75 668.928 1540.39 668.928ZM1091.49 907.141C1081.89 907.141 1072.95 906.12 1064.66 904.079C1056.5 901.918 1049.78 898.977 1044.49 895.255C1042.45 893.695 1040.95 892.074 1039.99 890.393C1039.15 888.713 1038.73 886.552 1038.73 883.91C1038.73 880.309 1039.81 877.187 1041.97 874.546C1044.13 871.905 1046.65 870.585 1049.54 870.585C1051.1 870.585 1052.6 870.825 1054.04 871.305C1055.48 871.785 1057.28 872.685 1059.44 874.006C1064.36 876.767 1069.22 878.748 1074.03 879.949C1078.95 881.149 1084.47 881.749 1090.59 881.749C1097.68 881.749 1103.02 880.729 1106.62 878.688C1110.34 876.527 1112.2 873.406 1112.2 869.324C1112.2 866.563 1110.46 864.222 1106.98 862.301C1103.62 860.26 1097.14 858.279 1087.53 856.358C1075.65 853.837 1066.34 850.836 1059.62 847.354C1052.9 843.873 1048.15 839.791 1045.39 835.109C1042.75 830.307 1041.43 824.544 1041.43 817.821C1041.43 810.138 1043.71 803.175 1048.28 796.932C1052.84 790.689 1059.08 785.827 1067 782.346C1075.05 778.744 1084.05 776.943 1094.02 776.943C1102.78 776.943 1110.58 777.904 1117.43 779.825C1124.27 781.745 1130.51 784.747 1136.15 788.829C1138.31 790.389 1139.82 792.07 1140.66 793.871C1141.62 795.552 1142.1 797.652 1142.1 800.174C1142.1 803.775 1141.02 806.896 1138.85 809.538C1136.81 812.179 1134.35 813.499 1131.47 813.499C1129.91 813.499 1128.47 813.319 1127.15 812.959C1125.83 812.479 1123.97 811.519 1121.57 810.078C1120.97 809.718 1119.23 808.817 1116.34 807.377C1113.58 805.816 1110.28 804.615 1106.44 803.775C1102.72 802.815 1098.64 802.334 1094.2 802.334C1088.07 802.334 1083.15 803.535 1079.43 805.936C1075.71 808.217 1073.85 811.278 1073.85 815.12C1073.85 817.401 1074.51 819.262 1075.83 820.703C1077.15 822.143 1079.61 823.584 1083.21 825.024C1086.81 826.345 1092.15 827.726 1099.24 829.166C1110.76 831.687 1119.83 834.749 1126.43 838.35C1133.03 841.832 1137.71 845.914 1140.48 850.596C1143.24 855.278 1144.62 860.8 1144.62 867.163C1144.62 875.087 1142.4 882.11 1137.95 888.232C1133.51 894.235 1127.27 898.917 1119.23 902.278C1111.3 905.52 1102.06 907.141 1091.49 907.141ZM1223.5 907.141C1210.78 907.141 1199.61 904.499 1190.01 899.217C1180.52 893.935 1173.14 886.371 1167.86 876.527C1162.7 866.683 1160.12 855.158 1160.12 841.952C1160.12 828.866 1162.7 817.401 1167.86 807.557C1173.14 797.712 1180.52 790.149 1190.01 784.867C1199.61 779.584 1210.78 776.943 1223.5 776.943C1238.75 776.943 1252.14 780.965 1263.66 789.009C1265.7 790.449 1267.14 792.01 1267.98 793.691C1268.94 795.371 1269.42 797.532 1269.42 800.174C1269.42 803.895 1268.34 807.077 1266.18 809.718C1264.14 812.239 1261.62 813.499 1258.62 813.499C1256.82 813.499 1255.2 813.259 1253.76 812.779C1252.32 812.179 1250.64 811.278 1248.71 810.078C1244.51 807.557 1240.55 805.756 1236.83 804.676C1233.11 803.595 1229.27 803.055 1225.3 803.055C1214.62 803.055 1206.64 806.296 1201.35 812.779C1196.19 819.142 1193.61 828.866 1193.61 841.952C1193.61 855.158 1196.19 865.002 1201.35 871.485C1206.64 877.848 1214.62 881.029 1225.3 881.029C1228.91 881.029 1232.39 880.489 1235.75 879.408C1239.11 878.208 1243.43 876.407 1248.71 874.006C1251.24 872.685 1253.1 871.785 1254.3 871.305C1255.5 870.825 1256.94 870.585 1258.62 870.585C1261.62 870.585 1264.14 871.905 1266.18 874.546C1268.34 877.067 1269.42 880.189 1269.42 883.91C1269.42 886.431 1268.94 888.592 1267.98 890.393C1267.14 892.074 1265.7 893.635 1263.66 895.075C1252.14 903.119 1238.75 907.141 1223.5 907.141ZM1342.92 907.141C1329.95 907.141 1318.66 904.499 1309.06 899.217C1299.58 893.815 1292.25 886.251 1287.09 876.527C1281.93 866.683 1279.35 855.158 1279.35 841.952C1279.35 828.746 1281.93 817.281 1287.09 807.557C1292.25 797.712 1299.58 790.149 1309.06 784.867C1318.66 779.584 1329.95 776.943 1342.92 776.943C1355.88 776.943 1367.11 779.584 1376.59 784.867C1386.19 790.149 1393.52 797.712 1398.56 807.557C1403.72 817.281 1406.3 828.746 1406.3 841.952C1406.3 855.158 1403.72 866.683 1398.56 876.527C1393.4 886.251 1386.01 893.815 1376.41 899.217C1366.93 904.499 1355.76 907.141 1342.92 907.141ZM1342.92 881.749C1352.52 881.749 1360.02 878.388 1365.43 871.665C1370.83 864.822 1373.53 854.918 1373.53 841.952C1373.53 828.986 1370.77 819.142 1365.25 812.419C1359.84 805.696 1352.4 802.334 1342.92 802.334C1333.31 802.334 1325.81 805.696 1320.41 812.419C1315 819.022 1312.3 828.866 1312.3 841.952C1312.3 855.038 1315 864.942 1320.41 871.665C1325.81 878.388 1333.31 881.749 1342.92 881.749ZM1532.7 884.451C1534.86 887.692 1535.94 890.753 1535.94 893.635C1535.94 897.476 1534.32 900.718 1531.08 903.359C1527.96 905.88 1524.3 907.141 1520.1 907.141C1517.21 907.141 1514.51 906.48 1511.99 905.16C1509.47 903.839 1507.31 901.858 1505.51 899.217L1482.1 865.002C1480.42 862.601 1478.62 860.86 1476.7 859.78C1474.9 858.579 1472.73 857.979 1470.21 857.979H1458.51V890.213C1458.51 895.255 1457.07 899.277 1454.19 902.278C1451.31 905.16 1447.34 906.6 1442.3 906.6C1437.26 906.6 1433.24 905.16 1430.24 902.278C1427.35 899.277 1425.91 895.255 1425.91 890.213V793.871C1425.91 788.949 1427.23 785.167 1429.88 782.526C1432.52 779.885 1436.3 778.564 1441.22 778.564H1486.42C1501.79 778.564 1513.31 781.926 1521 788.648C1528.8 795.251 1532.7 804.856 1532.7 817.461C1532.7 827.065 1530.06 835.229 1524.78 841.952C1519.5 848.555 1512.05 852.997 1502.45 855.278C1506.41 855.878 1509.83 857.199 1512.71 859.24C1515.71 861.28 1518.65 864.342 1521.54 868.424L1532.7 884.451ZM1481.2 833.128C1488.52 833.128 1493.74 831.988 1496.87 829.707C1500.11 827.426 1501.73 823.704 1501.73 818.542C1501.73 813.259 1500.11 809.478 1496.87 807.197C1493.74 804.796 1488.52 803.595 1481.2 803.595H1458.15V833.128H1481.2ZM1568.54 905.52C1563.62 905.52 1559.84 904.199 1557.2 901.558C1554.56 898.917 1553.24 895.135 1553.24 890.213V793.871C1553.24 788.949 1554.56 785.167 1557.2 782.526C1559.84 779.885 1563.62 778.564 1568.54 778.564H1630.85C1636.01 778.564 1639.91 779.645 1642.55 781.805C1645.2 783.966 1646.52 787.088 1646.52 791.17C1646.52 799.813 1641.29 804.135 1630.85 804.135H1585.47V828.266H1627.25C1637.69 828.266 1642.91 832.528 1642.91 841.052C1642.91 845.133 1641.59 848.255 1638.95 850.416C1636.31 852.577 1632.41 853.657 1627.25 853.657H1585.47V879.949H1630.85C1641.29 879.949 1646.52 884.271 1646.52 892.914C1646.52 896.996 1645.2 900.118 1642.55 902.278C1639.91 904.439 1636.01 905.52 1630.85 905.52H1568.54Z" fill="black"/>
<defs>
<clipPath id="clip0">
<path d="M170.396 275.609C170.396 217.106 217.823 169.68 276.325 169.68H1769.92C1828.43 169.68 1875.85 217.106 1875.85 275.609V1091.26C1875.85 1149.76 1828.43 1197.19 1769.92 1197.19H276.325C217.822 1197.19 170.396 1149.76 170.396 1091.26V275.609Z" fill="white"/>
</clipPath>
<clipPath id="clip1">
<rect width="572.016" height="572.016" fill="white" transform="translate(366.158 386.591)"/>
</clipPath>
</defs>
</svg>
