<svg width="1918" height="1240" viewBox="0 0 1918 1240" fill="none" xmlns="http://www.w3.org/2000/svg">
<g clip-path="url(#clip0)">
<rect x="159.375" y="159.088" width="1599.53" height="921.582" rx="52.9645" fill="white"/>
<g clip-path="url(#clip1)">
<path d="M848.154 341.749C858.028 340.916 867.177 350.064 866.344 359.938C865.13 374 847.619 693.56 745.358 795.821C647.344 893.836 531.854 870.828 456.442 816.616C455.534 815.963 454.509 815.177 453.385 814.274L385.403 882.159C368.978 898.585 342.347 898.585 325.921 882.159C309.496 865.734 309.496 839.103 325.921 822.678L393.819 754.707C392.911 753.578 392.121 752.549 391.465 751.638C337.253 676.227 314.245 560.737 412.259 462.723C514.521 360.462 834.081 342.95 848.154 341.749Z" fill="#60AC0E"/>
<path d="M652.224 597.273C665.579 601.213 675.868 608.109 683.092 617.961C690.535 627.593 694.257 639.524 694.257 653.754C694.257 673.238 687.033 688.672 672.584 700.056C658.354 711.439 638.651 717.131 613.476 717.131H527.44C519.778 717.131 513.867 715.052 509.708 710.892C505.548 706.733 503.468 700.822 503.468 693.16V509.595C503.468 501.933 505.548 496.022 509.708 491.863C513.867 487.703 519.778 485.624 527.44 485.624H610.192C634.273 485.624 653.319 490.987 667.33 501.714C681.56 512.441 688.675 527.109 688.675 545.717C688.675 557.758 685.391 568.375 678.823 577.57C672.475 586.546 663.608 593.113 652.224 597.273ZM553.382 579.869H601.654C614.789 579.869 624.422 577.679 630.551 573.301C636.9 568.704 640.074 561.808 640.074 552.613C640.074 542.981 636.9 535.975 630.551 531.597C624.422 526.999 614.789 524.701 601.654 524.701H553.382V579.869ZM607.565 678.054C621.138 678.054 630.989 675.755 637.119 671.158C643.249 666.561 646.314 659.118 646.314 648.828C646.314 638.539 643.249 630.986 637.119 626.17C630.989 621.354 621.138 618.946 607.565 618.946H553.382V678.054H607.565Z" fill="white"/>
</g>
<path d="M1003.05 646.503C995.636 646.503 989.916 644.49 985.89 640.465C981.865 636.44 979.852 630.72 979.852 623.304V445.662C979.852 438.247 981.865 432.526 985.89 428.501C989.916 424.476 995.636 422.463 1003.05 422.463H1115.55C1131.22 422.463 1139.06 428.819 1139.06 441.53C1139.06 454.454 1131.22 460.915 1115.55 460.915H1028.16V513.35H1109.19C1124.87 513.35 1132.71 519.812 1132.71 532.735C1132.71 545.447 1124.87 551.802 1109.19 551.802H1028.16V608.051H1115.55C1131.22 608.051 1139.06 614.512 1139.06 627.436C1139.06 640.147 1131.22 646.503 1115.55 646.503H1003.05ZM1271.19 649.363C1249.16 649.363 1229.88 644.702 1213.35 635.38C1196.83 626.059 1184.12 612.712 1175.22 595.339C1166.32 577.967 1161.87 557.629 1161.87 534.324C1161.87 511.02 1166.32 490.787 1175.22 473.627C1184.12 456.254 1196.83 442.907 1213.35 433.586C1229.88 424.264 1249.16 419.603 1271.19 419.603C1298.94 419.603 1322.88 427.23 1343.01 442.484C1346.19 445.026 1348.41 447.568 1349.68 450.111C1350.96 452.653 1351.59 455.831 1351.59 459.644C1351.59 465.153 1350 469.919 1346.82 473.945C1343.86 477.758 1340.15 479.665 1335.7 479.665C1332.74 479.665 1330.09 479.347 1327.76 478.711C1325.64 477.864 1323.2 476.487 1320.45 474.58C1311.97 469.072 1304.13 465.153 1296.93 462.822C1289.73 460.28 1282 459.009 1273.73 459.009C1253.39 459.009 1238.04 465.364 1227.65 478.076C1217.48 490.575 1212.4 509.325 1212.4 534.324C1212.4 584.746 1232.84 609.957 1273.73 609.957C1281.57 609.957 1288.99 608.792 1295.98 606.462C1302.97 603.919 1311.13 599.894 1320.45 594.386C1323.63 592.479 1326.27 591.208 1328.39 590.572C1330.51 589.725 1332.95 589.301 1335.7 589.301C1340.15 589.301 1343.86 591.314 1346.82 595.339C1350 599.153 1351.59 603.814 1351.59 609.322C1351.59 613.135 1350.85 616.419 1349.37 619.173C1348.1 621.716 1345.98 624.152 1343.01 626.482C1322.88 641.736 1298.94 649.363 1271.19 649.363ZM1481.91 649.363C1459.67 649.363 1440.28 644.702 1423.76 635.38C1407.44 625.847 1394.84 612.5 1385.94 595.339C1377.04 577.967 1372.59 557.629 1372.59 534.324C1372.59 511.02 1377.04 490.787 1385.94 473.627C1394.84 456.254 1407.44 442.907 1423.76 433.586C1440.28 424.264 1459.67 419.603 1481.91 419.603C1504.16 419.603 1523.44 424.264 1539.75 433.586C1556.27 442.907 1568.98 456.254 1577.88 473.627C1586.78 490.787 1591.23 511.02 1591.23 534.324C1591.23 557.629 1586.78 577.967 1577.88 595.339C1568.98 612.5 1556.27 625.847 1539.75 635.38C1523.44 644.702 1504.16 649.363 1481.91 649.363ZM1481.91 610.911C1500.55 610.911 1515.17 604.343 1525.77 591.208C1536.57 578.073 1541.97 559.112 1541.97 534.324C1541.97 509.537 1536.68 490.681 1526.08 477.758C1515.49 464.623 1500.77 458.055 1481.91 458.055C1463.06 458.055 1448.33 464.623 1437.74 477.758C1427.36 490.681 1422.17 509.537 1422.17 534.324C1422.17 559.112 1427.46 578.073 1438.06 591.208C1448.65 604.343 1463.27 610.911 1481.91 610.911ZM1033.01 849.124C1023.41 849.124 1014.46 848.103 1006.18 846.062C998.016 843.901 991.293 840.96 986.011 837.238C983.97 835.678 982.469 834.057 981.509 832.376C980.669 830.696 980.248 828.535 980.248 825.893C980.248 822.292 981.329 819.17 983.49 816.529C985.651 813.888 988.172 812.568 991.053 812.568C992.614 812.568 994.114 812.808 995.555 813.288C996.996 813.768 998.797 814.668 1000.96 815.989C1005.88 818.75 1010.74 820.731 1015.54 821.932C1020.47 823.132 1025.99 823.732 1032.11 823.732C1039.19 823.732 1044.54 822.712 1048.14 820.671C1051.86 818.51 1053.72 815.389 1053.72 811.307C1053.72 808.546 1051.98 806.205 1048.5 804.284C1045.14 802.243 1038.65 800.262 1029.05 798.341C1017.16 795.82 1007.86 792.819 1001.14 789.337C994.415 785.856 989.673 781.774 986.911 777.092C984.27 772.29 982.95 766.527 982.95 759.804C982.95 752.121 985.231 745.158 989.793 738.915C994.355 732.672 1000.6 727.81 1008.52 724.329C1016.56 720.727 1025.57 718.926 1035.53 718.926C1044.3 718.926 1052.1 719.887 1058.94 721.808C1065.79 723.728 1072.03 726.73 1077.67 730.812C1079.83 732.372 1081.33 734.053 1082.17 735.854C1083.13 737.535 1083.61 739.635 1083.61 742.157C1083.61 745.758 1082.53 748.88 1080.37 751.521C1078.33 754.162 1075.87 755.482 1072.99 755.482C1071.43 755.482 1069.99 755.302 1068.67 754.942C1067.35 754.462 1065.49 753.502 1063.08 752.061C1062.48 751.701 1060.74 750.8 1057.86 749.36C1055.1 747.799 1051.8 746.599 1047.96 745.758C1044.24 744.798 1040.15 744.318 1035.71 744.318C1029.59 744.318 1024.67 745.518 1020.95 747.919C1017.22 750.2 1015.36 753.261 1015.36 757.103C1015.36 759.384 1016.02 761.245 1017.34 762.686C1018.67 764.126 1021.13 765.567 1024.73 767.008C1028.33 768.328 1033.67 769.709 1040.76 771.149C1052.28 773.67 1061.34 776.732 1067.95 780.333C1074.55 783.815 1079.23 787.897 1081.99 792.579C1084.75 797.261 1086.13 802.783 1086.13 809.146C1086.13 817.07 1083.91 824.093 1079.47 830.215C1075.03 836.218 1068.79 840.9 1060.74 844.262C1052.82 847.503 1043.58 849.124 1033.01 849.124ZM1165.02 849.124C1152.3 849.124 1141.13 846.482 1131.53 841.2C1122.04 835.918 1114.66 828.355 1109.38 818.51C1104.21 808.666 1101.63 797.141 1101.63 783.935C1101.63 770.849 1104.21 759.384 1109.38 749.54C1114.66 739.695 1122.04 732.132 1131.53 726.85C1141.13 721.568 1152.3 718.926 1165.02 718.926C1180.27 718.926 1193.65 722.948 1205.18 730.992C1207.22 732.432 1208.66 733.993 1209.5 735.674C1210.46 737.354 1210.94 739.515 1210.94 742.157C1210.94 745.878 1209.86 749.06 1207.7 751.701C1205.66 754.222 1203.14 755.482 1200.14 755.482C1198.34 755.482 1196.71 755.242 1195.27 754.762C1193.83 754.162 1192.15 753.261 1190.23 752.061C1186.03 749.54 1182.07 747.739 1178.35 746.659C1174.63 745.578 1170.78 745.038 1166.82 745.038C1156.14 745.038 1148.15 748.279 1142.87 754.762C1137.71 761.125 1135.13 770.849 1135.13 783.935C1135.13 797.141 1137.71 806.985 1142.87 813.468C1148.15 819.831 1156.14 823.012 1166.82 823.012C1170.42 823.012 1173.9 822.472 1177.27 821.391C1180.63 820.191 1184.95 818.39 1190.23 815.989C1192.75 814.668 1194.61 813.768 1195.81 813.288C1197.02 812.808 1198.46 812.568 1200.14 812.568C1203.14 812.568 1205.66 813.888 1207.7 816.529C1209.86 819.05 1210.94 822.172 1210.94 825.893C1210.94 828.415 1210.46 830.575 1209.5 832.376C1208.66 834.057 1207.22 835.618 1205.18 837.058C1193.65 845.102 1180.27 849.124 1165.02 849.124ZM1284.43 849.124C1271.47 849.124 1260.18 846.482 1250.58 841.2C1241.09 835.798 1233.77 828.234 1228.61 818.51C1223.45 808.666 1220.87 797.141 1220.87 783.935C1220.87 770.729 1223.45 759.264 1228.61 749.54C1233.77 739.695 1241.09 732.132 1250.58 726.85C1260.18 721.568 1271.47 718.926 1284.43 718.926C1297.4 718.926 1308.62 721.568 1318.11 726.85C1327.71 732.132 1335.04 739.695 1340.08 749.54C1345.24 759.264 1347.82 770.729 1347.82 783.935C1347.82 797.141 1345.24 808.666 1340.08 818.51C1334.92 828.234 1327.53 835.798 1317.93 841.2C1308.44 846.482 1297.28 849.124 1284.43 849.124ZM1284.43 823.732C1294.04 823.732 1301.54 820.371 1306.94 813.648C1312.35 806.805 1315.05 796.901 1315.05 783.935C1315.05 770.969 1312.29 761.125 1306.76 754.402C1301.36 747.679 1293.92 744.318 1284.43 744.318C1274.83 744.318 1267.33 747.679 1261.92 754.402C1256.52 761.005 1253.82 770.849 1253.82 783.935C1253.82 797.021 1256.52 806.925 1261.92 813.648C1267.33 820.371 1274.83 823.732 1284.43 823.732ZM1474.22 826.434C1476.38 829.675 1477.46 832.736 1477.46 835.618C1477.46 839.459 1475.84 842.701 1472.6 845.342C1469.48 847.863 1465.81 849.124 1461.61 849.124C1458.73 849.124 1456.03 848.463 1453.51 847.143C1450.99 845.822 1448.83 843.841 1447.03 841.2L1423.62 806.985C1421.94 804.584 1420.13 802.843 1418.21 801.763C1416.41 800.562 1414.25 799.962 1411.73 799.962H1400.03V832.196C1400.03 837.238 1398.59 841.26 1395.7 844.262C1392.82 847.143 1388.86 848.583 1383.82 848.583C1378.78 848.583 1374.75 847.143 1371.75 844.262C1368.87 841.26 1367.43 837.238 1367.43 832.196V735.854C1367.43 730.932 1368.75 727.15 1371.39 724.509C1374.03 721.868 1377.82 720.547 1382.74 720.547H1427.94C1443.3 720.547 1454.83 723.909 1462.51 730.631C1470.32 737.234 1474.22 746.839 1474.22 759.444C1474.22 769.048 1471.58 777.212 1466.29 783.935C1461.01 790.538 1453.57 794.98 1443.97 797.261C1447.93 797.861 1451.35 799.182 1454.23 801.223C1457.23 803.263 1460.17 806.325 1463.05 810.407L1474.22 826.434ZM1422.72 775.111C1430.04 775.111 1435.26 773.971 1438.38 771.69C1441.62 769.409 1443.24 765.687 1443.24 760.525C1443.24 755.242 1441.62 751.461 1438.38 749.18C1435.26 746.779 1430.04 745.578 1422.72 745.578H1399.67V775.111H1422.72ZM1510.06 847.503C1505.14 847.503 1501.36 846.182 1498.71 843.541C1496.07 840.9 1494.75 837.118 1494.75 832.196V735.854C1494.75 730.932 1496.07 727.15 1498.71 724.509C1501.36 721.868 1505.14 720.547 1510.06 720.547H1572.37C1577.53 720.547 1581.43 721.628 1584.07 723.788C1586.71 725.949 1588.03 729.071 1588.03 733.153C1588.03 741.796 1582.81 746.118 1572.37 746.118H1526.99V770.249H1568.77C1579.21 770.249 1584.43 774.511 1584.43 783.035C1584.43 787.116 1583.11 790.238 1580.47 792.399C1577.83 794.56 1573.93 795.64 1568.77 795.64H1526.99V821.932H1572.37C1582.81 821.932 1588.03 826.254 1588.03 834.897C1588.03 838.979 1586.71 842.101 1584.07 844.262C1581.43 846.422 1577.53 847.503 1572.37 847.503H1510.06Z" fill="#4A4A4A"/>
</g>
<defs>
<clipPath id="clip0">
<rect width="1917.31" height="1239.37" fill="white" transform="translate(0.480957 0.194153)"/>
</clipPath>
<clipPath id="clip1">
<rect width="572.016" height="572.016" fill="white" transform="translate(307.675 328.574)"/>
</clipPath>
</defs>
</svg>
