<svg width="2045" height="1368" viewBox="0 0 2045 1368" fill="none" xmlns="http://www.w3.org/2000/svg">
<g clip-path="url(#clip0)">
<path d="M169.538 276.046C169.538 217.543 216.964 170.117 275.467 170.117H1769.07C1827.57 170.117 1874.99 217.543 1874.99 276.046V1091.7C1874.99 1150.2 1827.57 1197.63 1769.07 1197.63H275.467C216.964 1197.63 169.538 1150.2 169.538 1091.7V276.046Z" fill="white"/>
<mask id="mask0" mask-type="alpha" maskUnits="userSpaceOnUse" x="169" y="170" width="1706" height="1028">
<rect x="196.02" y="196.599" width="1652.49" height="974.547" rx="79.4467" stroke="black" stroke-width="52.9645"/>
</mask>
<g mask="url(#mask0)">
<path d="M1546.61 170.117H1874.99V1197.63H1546.61V170.117Z" fill="#DF1F1F"/>
<path d="M497.918 1197.63L169.538 1197.63L169.538 170.117L497.918 170.117L497.918 1197.63Z" fill="#1E8F4E"/>
<rect x="1186.46" y="170.117" width="360.158" height="1027.51" fill="#FF6F1E"/>
<rect x="868.669" y="170.117" width="317.787" height="1027.51" fill="#EEAE0E"/>
<rect x="497.918" y="170.117" width="370.751" height="1027.51" fill="#60AC0E"/>
</g>
</g>
<g clip-path="url(#clip1)">
<path d="M905.774 400.203C915.648 399.371 924.796 408.519 923.964 418.393C922.75 432.454 905.239 752.015 802.977 854.276C704.963 952.29 589.473 929.283 514.062 875.071C513.154 874.418 512.129 873.632 511.004 872.728L443.023 940.614C426.597 957.039 399.967 957.039 383.541 940.614C367.116 924.188 367.116 897.557 383.541 881.132L451.439 813.162C450.531 812.032 449.74 811.004 449.084 810.093C394.872 734.682 371.865 619.192 469.879 521.178C572.14 418.916 891.701 401.405 905.774 400.203Z" fill="#1E8F4E"/>
<path d="M766.732 744.39C768.483 748.33 769.359 751.833 769.359 754.898C769.359 761.028 766.841 766.282 761.806 770.66C756.99 774.82 751.408 776.899 745.059 776.899C740.899 776.899 736.959 775.805 733.237 773.616C729.516 771.207 726.67 767.705 724.699 763.107L707.295 724.359H595.975L578.57 763.107C576.6 767.705 573.754 771.207 570.032 773.616C566.53 775.805 562.589 776.899 558.211 776.899C551.862 776.899 546.17 774.82 541.135 770.66C536.1 766.282 533.582 761.028 533.582 754.898C533.582 751.833 534.458 748.33 536.209 744.39L624.872 558.198C627.28 552.944 630.892 549.004 635.708 546.377C640.525 543.531 645.669 542.108 651.142 542.108C656.834 542.108 662.088 543.531 666.905 546.377C671.721 549.223 675.442 553.163 678.069 558.198L766.732 744.39ZM613.379 685.61H689.891L651.799 600.231L613.379 685.61Z" fill="white"/>
</g>
<path d="M1060.67 704.957C1053.26 704.957 1047.54 702.945 1043.51 698.919C1039.48 694.894 1037.47 689.174 1037.47 681.759V504.116C1037.47 496.701 1039.48 490.981 1043.51 486.956C1047.54 482.93 1053.26 480.918 1060.67 480.918H1173.17C1188.84 480.918 1196.68 487.273 1196.68 499.985C1196.68 512.908 1188.84 519.37 1173.17 519.37H1085.78V571.805H1166.81C1182.49 571.805 1190.33 578.266 1190.33 591.19C1190.33 603.901 1182.49 610.257 1166.81 610.257H1085.78V666.505H1173.17C1188.84 666.505 1196.68 672.967 1196.68 685.89C1196.68 698.602 1188.84 704.957 1173.17 704.957H1060.67ZM1328.81 707.817C1306.78 707.817 1287.5 703.157 1270.97 693.835C1254.45 684.513 1241.74 671.166 1232.84 653.794C1223.94 636.421 1219.49 616.083 1219.49 592.779C1219.49 569.474 1223.94 549.242 1232.84 532.081C1241.74 514.709 1254.45 501.362 1270.97 492.04C1287.5 482.718 1306.78 478.058 1328.81 478.058C1356.56 478.058 1380.5 485.684 1400.63 500.938C1403.81 503.48 1406.03 506.023 1407.3 508.565C1408.58 511.107 1409.21 514.285 1409.21 518.099C1409.21 523.607 1407.62 528.374 1404.44 532.399C1401.48 536.213 1397.77 538.119 1393.32 538.119C1390.36 538.119 1387.71 537.801 1385.38 537.166C1383.26 536.318 1380.82 534.941 1378.07 533.035C1369.59 527.526 1361.75 523.607 1354.55 521.277C1347.35 518.734 1339.62 517.463 1331.35 517.463C1311.01 517.463 1295.65 523.819 1285.27 536.53C1275.1 549.03 1270.02 567.779 1270.02 592.779C1270.02 643.201 1290.46 668.412 1331.35 668.412C1339.19 668.412 1346.61 667.247 1353.6 664.916C1360.59 662.374 1368.75 658.349 1378.07 652.84C1381.25 650.934 1383.89 649.662 1386.01 649.027C1388.13 648.179 1390.57 647.756 1393.32 647.756C1397.77 647.756 1401.48 649.768 1404.44 653.794C1407.62 657.607 1409.21 662.268 1409.21 667.776C1409.21 671.59 1408.47 674.874 1406.99 677.628C1405.71 680.17 1403.6 682.606 1400.63 684.937C1380.5 700.191 1356.56 707.817 1328.81 707.817ZM1539.53 707.817C1517.29 707.817 1497.9 703.157 1481.38 693.835C1465.06 684.301 1452.46 670.954 1443.56 653.794C1434.66 636.421 1430.21 616.083 1430.21 592.779C1430.21 569.474 1434.66 549.242 1443.56 532.081C1452.46 514.709 1465.06 501.362 1481.38 492.04C1497.9 482.718 1517.29 478.058 1539.53 478.058C1561.78 478.058 1581.05 482.718 1597.37 492.04C1613.89 501.362 1626.6 514.709 1635.5 532.081C1644.4 549.242 1648.85 569.474 1648.85 592.779C1648.85 616.083 1644.4 636.421 1635.5 653.794C1626.6 670.954 1613.89 684.301 1597.37 693.835C1581.05 703.157 1561.78 707.817 1539.53 707.817ZM1539.53 669.365C1558.17 669.365 1572.79 662.798 1583.39 649.662C1594.19 636.527 1599.59 617.566 1599.59 592.779C1599.59 567.991 1594.3 549.136 1583.7 536.213C1573.11 523.077 1558.39 516.51 1539.53 516.51C1520.68 516.51 1505.95 523.077 1495.36 536.213C1484.98 549.136 1479.79 567.991 1479.79 592.779C1479.79 617.566 1485.08 636.527 1495.68 649.662C1506.27 662.798 1520.89 669.365 1539.53 669.365ZM1090.63 907.578C1081.03 907.578 1072.08 906.558 1063.8 904.517C1055.64 902.356 1048.91 899.415 1043.63 895.693C1041.59 894.132 1040.09 892.511 1039.13 890.831C1038.29 889.15 1037.87 886.989 1037.87 884.348C1037.87 880.746 1038.95 877.625 1041.11 874.984C1043.27 872.343 1045.79 871.022 1048.67 871.022C1050.23 871.022 1051.73 871.262 1053.17 871.742C1054.62 872.223 1056.42 873.123 1058.58 874.444C1063.5 877.205 1068.36 879.186 1073.16 880.386C1078.09 881.587 1083.61 882.187 1089.73 882.187C1096.81 882.187 1102.16 881.166 1105.76 879.126C1109.48 876.965 1111.34 873.843 1111.34 869.761C1111.34 867 1109.6 864.659 1106.12 862.738C1102.76 860.697 1096.27 858.717 1086.67 856.796C1074.78 854.275 1065.48 851.273 1058.76 847.792C1052.03 844.31 1047.29 840.228 1044.53 835.546C1041.89 830.744 1040.57 824.982 1040.57 818.259C1040.57 810.575 1042.85 803.612 1047.41 797.37C1051.97 791.127 1058.22 786.265 1066.14 782.783C1074.18 779.182 1083.19 777.381 1093.15 777.381C1101.92 777.381 1109.72 778.341 1116.56 780.262C1123.41 782.183 1129.65 785.184 1135.29 789.266C1137.45 790.827 1138.95 792.507 1139.79 794.308C1140.75 795.989 1141.23 798.09 1141.23 800.611C1141.23 804.213 1140.15 807.334 1137.99 809.975C1135.95 812.616 1133.49 813.937 1130.61 813.937C1129.05 813.937 1127.61 813.757 1126.29 813.397C1124.97 812.916 1123.11 811.956 1120.7 810.515C1120.1 810.155 1118.36 809.255 1115.48 807.814C1112.72 806.254 1109.42 805.053 1105.58 804.213C1101.86 803.252 1097.77 802.772 1093.33 802.772C1087.21 802.772 1082.29 803.973 1078.57 806.374C1074.84 808.655 1072.98 811.716 1072.98 815.558C1072.98 817.839 1073.64 819.699 1074.96 821.14C1076.28 822.581 1078.75 824.021 1082.35 825.462C1085.95 826.783 1091.29 828.163 1098.37 829.604C1109.9 832.125 1118.96 835.186 1125.57 838.788C1132.17 842.269 1136.85 846.351 1139.61 851.033C1142.37 855.715 1143.75 861.238 1143.75 867.601C1143.75 875.524 1141.53 882.547 1137.09 888.67C1132.65 894.672 1126.41 899.354 1118.36 902.716C1110.44 905.957 1101.2 907.578 1090.63 907.578ZM1222.64 907.578C1209.91 907.578 1198.75 904.937 1189.15 899.655C1179.66 894.372 1172.28 886.809 1167 876.965C1161.83 867.12 1159.25 855.595 1159.25 842.389C1159.25 829.304 1161.83 817.839 1167 807.994C1172.28 798.15 1179.66 790.587 1189.15 785.304C1198.75 780.022 1209.91 777.381 1222.64 777.381C1237.89 777.381 1251.27 781.403 1262.8 789.446C1264.84 790.887 1266.28 792.447 1267.12 794.128C1268.08 795.809 1268.56 797.97 1268.56 800.611C1268.56 804.333 1267.48 807.514 1265.32 810.155C1263.28 812.676 1260.76 813.937 1257.76 813.937C1255.96 813.937 1254.33 813.697 1252.89 813.217C1251.45 812.616 1249.77 811.716 1247.85 810.515C1243.65 807.994 1239.69 806.193 1235.97 805.113C1232.24 804.033 1228.4 803.492 1224.44 803.492C1213.76 803.492 1205.77 806.734 1200.49 813.217C1195.33 819.579 1192.75 829.304 1192.75 842.389C1192.75 855.595 1195.33 865.44 1200.49 871.922C1205.77 878.285 1213.76 881.467 1224.44 881.467C1228.04 881.467 1231.52 880.926 1234.89 879.846C1238.25 878.645 1242.57 876.845 1247.85 874.444C1250.37 873.123 1252.23 872.223 1253.43 871.742C1254.63 871.262 1256.08 871.022 1257.76 871.022C1260.76 871.022 1263.28 872.343 1265.32 874.984C1267.48 877.505 1268.56 880.626 1268.56 884.348C1268.56 886.869 1268.08 889.03 1267.12 890.831C1266.28 892.511 1264.84 894.072 1262.8 895.513C1251.27 903.556 1237.89 907.578 1222.64 907.578ZM1342.05 907.578C1329.09 907.578 1317.8 904.937 1308.2 899.655C1298.71 894.252 1291.39 886.689 1286.23 876.965C1281.07 867.12 1278.48 855.595 1278.48 842.389C1278.48 829.184 1281.07 817.719 1286.23 807.994C1291.39 798.15 1298.71 790.587 1308.2 785.304C1317.8 780.022 1329.09 777.381 1342.05 777.381C1355.02 777.381 1366.24 780.022 1375.73 785.304C1385.33 790.587 1392.66 798.15 1397.7 807.994C1402.86 817.719 1405.44 829.184 1405.44 842.389C1405.44 855.595 1402.86 867.12 1397.7 876.965C1392.54 886.689 1385.15 894.252 1375.55 899.655C1366.06 904.937 1354.9 907.578 1342.05 907.578ZM1342.05 882.187C1351.66 882.187 1359.16 878.825 1364.56 872.102C1369.97 865.259 1372.67 855.355 1372.67 842.389C1372.67 829.424 1369.91 819.579 1364.38 812.856C1358.98 806.133 1351.54 802.772 1342.05 802.772C1332.45 802.772 1324.95 806.133 1319.54 812.856C1314.14 819.459 1311.44 829.304 1311.44 842.389C1311.44 855.475 1314.14 865.38 1319.54 872.102C1324.95 878.825 1332.45 882.187 1342.05 882.187ZM1531.84 884.888C1534 888.13 1535.08 891.191 1535.08 894.072C1535.08 897.914 1533.46 901.155 1530.22 903.796C1527.1 906.318 1523.43 907.578 1519.23 907.578C1516.35 907.578 1513.65 906.918 1511.13 905.597C1508.61 904.277 1506.45 902.296 1504.65 899.655L1481.24 865.44C1479.56 863.039 1477.75 861.298 1475.83 860.217C1474.03 859.017 1471.87 858.416 1469.35 858.416H1457.65V890.651C1457.65 895.693 1456.2 899.715 1453.32 902.716C1450.44 905.597 1446.48 907.038 1441.44 907.038C1436.4 907.038 1432.37 905.597 1429.37 902.716C1426.49 899.715 1425.05 895.693 1425.05 890.651V794.308C1425.05 789.386 1426.37 785.604 1429.01 782.963C1431.65 780.322 1435.44 779.002 1440.36 779.002H1485.56C1500.92 779.002 1512.45 782.363 1520.13 789.086C1527.94 795.689 1531.84 805.293 1531.84 817.899C1531.84 827.503 1529.2 835.666 1523.91 842.389C1518.63 848.992 1511.19 853.434 1501.58 855.715C1505.55 856.316 1508.97 857.636 1511.85 859.677C1514.85 861.718 1517.79 864.779 1520.67 868.861L1531.84 884.888ZM1480.34 833.566C1487.66 833.566 1492.88 832.425 1496 830.144C1499.24 827.863 1500.86 824.141 1500.86 818.979C1500.86 813.697 1499.24 809.915 1496 807.634C1492.88 805.233 1487.66 804.033 1480.34 804.033H1457.29V833.566H1480.34ZM1567.68 905.957C1562.76 905.957 1558.98 904.637 1556.33 901.996C1553.69 899.354 1552.37 895.573 1552.37 890.651V794.308C1552.37 789.386 1553.69 785.604 1556.33 782.963C1558.98 780.322 1562.76 779.002 1567.68 779.002H1629.99C1635.15 779.002 1639.05 780.082 1641.69 782.243C1644.33 784.404 1645.65 787.525 1645.65 791.607C1645.65 800.251 1640.43 804.573 1629.99 804.573H1584.61V828.703H1626.39C1636.83 828.703 1642.05 832.965 1642.05 841.489C1642.05 845.571 1640.73 848.692 1638.09 850.853C1635.45 853.014 1631.55 854.095 1626.39 854.095H1584.61V880.386H1629.99C1640.43 880.386 1645.65 884.708 1645.65 893.352C1645.65 897.434 1644.33 900.555 1641.69 902.716C1639.05 904.877 1635.15 905.957 1629.99 905.957H1567.68Z" fill="#4A4A4A"/>
<defs>
<clipPath id="clip0">
<path d="M169.538 276.046C169.538 217.543 216.964 170.117 275.467 170.117H1769.07C1827.57 170.117 1874.99 217.543 1874.99 276.046V1091.7C1874.99 1150.2 1827.57 1197.63 1769.07 1197.63H275.467C216.964 1197.63 169.538 1150.2 169.538 1091.7V276.046Z" fill="white"/>
</clipPath>
<clipPath id="clip1">
<rect width="572.016" height="572.016" fill="white" transform="translate(365.294 387.028)"/>
</clipPath>
</defs>
</svg>
