<svg width="1601" height="753" viewBox="0 0 1601 753" fill="none" xmlns="http://www.w3.org/2000/svg">
<g clip-path="url(#clip0)">
<g clip-path="url(#clip1)">
<path d="M689.69 98.3443C699.563 97.5116 708.712 106.66 707.879 116.534C706.666 130.595 689.154 450.156 586.893 552.417C488.879 650.431 373.389 627.424 297.978 573.212C297.069 572.559 296.045 571.773 294.92 570.869L226.938 638.755C210.513 655.18 183.882 655.18 167.457 638.755C151.031 622.329 151.031 595.698 167.457 579.273L235.354 511.303C234.446 510.173 233.656 509.145 233 508.234C178.788 432.823 155.78 317.333 253.795 219.319C356.056 117.057 675.616 99.5459 689.69 98.3443Z" fill="black"/>
<path d="M453.324 476.682C430.556 476.682 410.634 471.866 393.559 462.234C376.483 452.601 363.348 438.809 354.153 420.858C344.958 402.906 340.361 381.89 340.361 357.809C340.361 333.728 344.958 312.821 354.153 295.088C363.348 277.137 376.483 263.345 393.559 253.712C410.634 244.08 430.556 239.264 453.324 239.264C482.002 239.264 506.74 247.145 527.537 262.907C530.821 265.534 533.12 268.161 534.433 270.788C535.747 273.415 536.404 276.699 536.404 280.639C536.404 286.331 534.762 291.257 531.478 295.417C528.413 299.357 524.582 301.327 519.985 301.327C516.92 301.327 514.183 300.999 511.775 300.342C509.586 299.467 507.068 298.044 504.223 296.073C495.466 290.381 487.366 286.331 479.922 283.923C472.479 281.296 464.489 279.983 455.951 279.983C434.934 279.983 419.063 286.55 408.336 299.686C397.827 312.602 392.573 331.976 392.573 357.809C392.573 409.912 413.699 435.963 455.951 435.963C464.051 435.963 471.713 434.759 478.937 432.351C486.162 429.724 494.59 425.564 504.223 419.873C507.506 417.902 510.243 416.589 512.432 415.932C514.621 415.056 517.139 414.618 519.985 414.618C524.582 414.618 528.413 416.698 531.478 420.858C534.762 424.798 536.404 429.614 536.404 435.306C536.404 439.247 535.638 442.64 534.105 445.486C532.792 448.113 530.602 450.631 527.537 453.039C506.74 468.801 482.002 476.682 453.324 476.682Z" fill="white"/>
</g>
<path d="M844.586 403.098C837.171 403.098 831.451 401.086 827.425 397.06C823.4 393.035 821.387 387.315 821.387 379.9V202.257C821.387 194.842 823.4 189.122 827.425 185.097C831.451 181.071 837.171 179.059 844.586 179.059H957.082C972.76 179.059 980.599 185.414 980.599 198.126C980.599 211.049 972.76 217.511 957.082 217.511H869.691V269.946H950.727C966.404 269.946 974.243 276.407 974.243 289.331C974.243 302.042 966.404 308.398 950.727 308.398H869.691V364.646H957.082C972.76 364.646 980.599 371.108 980.599 384.031C980.599 396.743 972.76 403.098 957.082 403.098H844.586ZM1112.73 405.958C1090.69 405.958 1071.41 401.298 1054.89 391.976C1038.36 382.654 1025.65 369.307 1016.75 351.935C1007.86 334.562 1003.41 314.224 1003.41 290.92C1003.41 267.615 1007.86 247.383 1016.75 230.222C1025.65 212.85 1038.36 199.503 1054.89 190.181C1071.41 180.859 1090.69 176.199 1112.73 176.199C1140.48 176.199 1164.42 183.825 1184.55 199.079C1187.72 201.621 1189.95 204.164 1191.22 206.706C1192.49 209.248 1193.13 212.426 1193.13 216.24C1193.13 221.748 1191.54 226.515 1188.36 230.54C1185.39 234.354 1181.69 236.26 1177.24 236.26C1174.27 236.26 1171.62 235.942 1169.29 235.307C1167.17 234.459 1164.74 233.082 1161.98 231.176C1153.51 225.667 1145.67 221.748 1138.47 219.418C1131.26 216.875 1123.53 215.604 1115.27 215.604C1094.93 215.604 1079.57 221.96 1069.19 234.671C1059.02 247.171 1053.94 265.92 1053.94 290.92C1053.94 341.342 1074.38 366.553 1115.27 366.553C1123.11 366.553 1130.52 365.388 1137.51 363.057C1144.5 360.515 1152.66 356.49 1161.98 350.981C1165.16 349.075 1167.81 347.803 1169.93 347.168C1172.05 346.32 1174.48 345.897 1177.24 345.897C1181.69 345.897 1185.39 347.909 1188.36 351.935C1191.54 355.748 1193.13 360.409 1193.13 365.917C1193.13 369.731 1192.38 373.015 1190.9 375.769C1189.63 378.311 1187.51 380.747 1184.55 383.078C1164.42 398.332 1140.48 405.958 1112.73 405.958ZM1323.45 405.958C1301.2 405.958 1281.82 401.298 1265.29 391.976C1248.98 382.442 1236.37 369.095 1227.47 351.935C1218.58 334.562 1214.13 314.224 1214.13 290.92C1214.13 267.615 1218.58 247.383 1227.47 230.222C1236.37 212.85 1248.98 199.503 1265.29 190.181C1281.82 180.859 1301.2 176.199 1323.45 176.199C1345.69 176.199 1364.97 180.859 1381.28 190.181C1397.81 199.503 1410.52 212.85 1419.42 230.222C1428.32 247.383 1432.76 267.615 1432.76 290.92C1432.76 314.224 1428.32 334.562 1419.42 351.935C1410.52 369.095 1397.81 382.442 1381.28 391.976C1364.97 401.298 1345.69 405.958 1323.45 405.958ZM1323.45 367.506C1342.09 367.506 1356.71 360.939 1367.3 347.803C1378.11 334.668 1383.51 315.707 1383.51 290.92C1383.51 266.132 1378.21 247.277 1367.62 234.354C1357.03 221.218 1342.3 214.651 1323.45 214.651C1304.59 214.651 1289.87 221.218 1279.27 234.354C1268.89 247.277 1263.7 266.132 1263.7 290.92C1263.7 315.707 1269 334.668 1279.59 347.803C1290.18 360.939 1304.8 367.506 1323.45 367.506ZM874.547 605.719C864.943 605.719 855.999 604.699 847.715 602.658C839.551 600.497 832.828 597.556 827.546 593.834C825.505 592.273 824.005 590.652 823.044 588.972C822.204 587.291 821.784 585.13 821.784 582.489C821.784 578.887 822.864 575.766 825.025 573.125C827.186 570.484 829.707 569.163 832.588 569.163C834.149 569.163 835.65 569.403 837.09 569.883C838.531 570.364 840.332 571.264 842.493 572.585C847.415 575.346 852.277 577.327 857.079 578.527C862.001 579.728 867.524 580.328 873.646 580.328C880.729 580.328 886.072 579.307 889.673 577.267C893.395 575.106 895.256 571.984 895.256 567.902C895.256 565.141 893.515 562.8 890.034 560.879C886.672 558.838 880.189 556.858 870.585 554.937C858.7 552.416 849.396 549.414 842.673 545.933C835.95 542.451 831.208 538.369 828.446 533.687C825.805 528.885 824.485 523.123 824.485 516.4C824.485 508.716 826.766 501.753 831.328 495.511C835.89 489.268 842.132 484.406 850.056 480.924C858.1 477.323 867.103 475.522 877.068 475.522C885.832 475.522 893.635 476.482 900.478 478.403C907.321 480.324 913.564 483.325 919.206 487.407C921.367 488.968 922.868 490.648 923.708 492.449C924.669 494.13 925.149 496.231 925.149 498.752C925.149 502.354 924.069 505.475 921.908 508.116C919.867 510.757 917.406 512.078 914.524 512.078C912.964 512.078 911.523 511.898 910.202 511.538C908.882 511.057 907.021 510.097 904.62 508.656C904.02 508.296 902.279 507.396 899.398 505.955C896.636 504.395 893.335 503.194 889.493 502.354C885.772 501.393 881.69 500.913 877.248 500.913C871.125 500.913 866.203 502.114 862.481 504.515C858.76 506.796 856.899 509.857 856.899 513.699C856.899 515.98 857.559 517.84 858.88 519.281C860.2 520.722 862.662 522.162 866.263 523.603C869.865 524.924 875.207 526.304 882.29 527.745C893.815 530.266 902.879 533.327 909.482 536.929C916.085 540.41 920.767 544.492 923.528 549.174C926.29 553.856 927.67 559.379 927.67 565.742C927.67 573.665 925.449 580.688 921.007 586.811C916.565 592.813 910.323 597.495 902.279 600.857C894.355 604.098 885.111 605.719 874.547 605.719ZM1006.56 605.719C993.83 605.719 982.666 603.078 973.061 597.796C963.577 592.513 956.194 584.95 950.912 575.106C945.749 565.261 943.168 553.736 943.168 540.53C943.168 527.445 945.749 515.98 950.912 506.135C956.194 496.291 963.577 488.728 973.061 483.445C982.666 478.163 993.83 475.522 1006.56 475.522C1021.8 475.522 1035.19 479.544 1046.71 487.587C1048.75 489.028 1050.2 490.588 1051.04 492.269C1052 493.95 1052.48 496.111 1052.48 498.752C1052.48 502.474 1051.4 505.655 1049.23 508.296C1047.19 510.817 1044.67 512.078 1041.67 512.078C1039.87 512.078 1038.25 511.838 1036.81 511.358C1035.37 510.757 1033.69 509.857 1031.77 508.656C1027.57 506.135 1023.6 504.334 1019.88 503.254C1016.16 502.174 1012.32 501.633 1008.36 501.633C997.672 501.633 989.689 504.875 984.406 511.358C979.244 517.72 976.663 527.445 976.663 540.53C976.663 553.736 979.244 563.581 984.406 570.063C989.689 576.426 997.672 579.608 1008.36 579.608C1011.96 579.608 1015.44 579.067 1018.8 577.987C1022.16 576.786 1026.48 574.986 1031.77 572.585C1034.29 571.264 1036.15 570.364 1037.35 569.883C1038.55 569.403 1039.99 569.163 1041.67 569.163C1044.67 569.163 1047.19 570.484 1049.23 573.125C1051.4 575.646 1052.48 578.767 1052.48 582.489C1052.48 585.01 1052 587.171 1051.04 588.972C1050.2 590.652 1048.75 592.213 1046.71 593.654C1035.19 601.697 1021.8 605.719 1006.56 605.719ZM1125.97 605.719C1113 605.719 1101.72 603.078 1092.11 597.796C1082.63 592.393 1075.31 584.83 1070.14 575.106C1064.98 565.261 1062.4 553.736 1062.4 540.53C1062.4 527.325 1064.98 515.86 1070.14 506.135C1075.31 496.291 1082.63 488.728 1092.11 483.445C1101.72 478.163 1113 475.522 1125.97 475.522C1138.93 475.522 1150.16 478.163 1159.64 483.445C1169.25 488.728 1176.57 496.291 1181.61 506.135C1186.78 515.86 1189.36 527.325 1189.36 540.53C1189.36 553.736 1186.78 565.261 1181.61 575.106C1176.45 584.83 1169.07 592.393 1159.46 597.796C1149.98 603.078 1138.81 605.719 1125.97 605.719ZM1125.97 580.328C1135.57 580.328 1143.08 576.966 1148.48 570.243C1153.88 563.4 1156.58 553.496 1156.58 540.53C1156.58 527.565 1153.82 517.72 1148.3 510.997C1142.9 504.274 1135.45 500.913 1125.97 500.913C1116.36 500.913 1108.86 504.274 1103.46 510.997C1098.06 517.6 1095.35 527.445 1095.35 540.53C1095.35 553.616 1098.06 563.521 1103.46 570.243C1108.86 576.966 1116.36 580.328 1125.97 580.328ZM1315.75 583.029C1317.91 586.271 1318.99 589.332 1318.99 592.213C1318.99 596.055 1317.37 599.296 1314.13 601.937C1311.01 604.459 1307.35 605.719 1303.15 605.719C1300.27 605.719 1297.57 605.059 1295.04 603.738C1292.52 602.418 1290.36 600.437 1288.56 597.796L1265.15 563.581C1263.47 561.18 1261.67 559.439 1259.75 558.358C1257.95 557.158 1255.79 556.557 1253.27 556.557H1241.56V588.792C1241.56 593.834 1240.12 597.856 1237.24 600.857C1234.36 603.738 1230.4 605.179 1225.35 605.179C1220.31 605.179 1216.29 603.738 1213.29 600.857C1210.41 597.856 1208.97 593.834 1208.97 588.792V492.449C1208.97 487.527 1210.29 483.745 1212.93 481.104C1215.57 478.463 1219.35 477.143 1224.27 477.143H1269.47C1284.84 477.143 1296.37 480.504 1304.05 487.227C1311.85 493.83 1315.75 503.434 1315.75 516.04C1315.75 525.644 1313.11 533.807 1307.83 540.53C1302.55 547.133 1295.1 551.575 1285.5 553.856C1289.46 554.457 1292.88 555.777 1295.76 557.818C1298.77 559.859 1301.71 562.92 1304.59 567.002L1315.75 583.029ZM1264.25 531.707C1271.57 531.707 1276.8 530.566 1279.92 528.285C1283.16 526.004 1284.78 522.282 1284.78 517.12C1284.78 511.838 1283.16 508.056 1279.92 505.775C1276.8 503.374 1271.57 502.174 1264.25 502.174H1241.2V531.707H1264.25ZM1351.59 604.098C1346.67 604.098 1342.89 602.778 1340.25 600.137C1337.61 597.495 1336.29 593.714 1336.29 588.792V492.449C1336.29 487.527 1337.61 483.745 1340.25 481.104C1342.89 478.463 1346.67 477.143 1351.59 477.143H1413.9C1419.06 477.143 1422.97 478.223 1425.61 480.384C1428.25 482.545 1429.57 485.666 1429.57 489.748C1429.57 498.392 1424.35 502.714 1413.9 502.714H1368.52V526.844H1410.3C1420.75 526.844 1425.97 531.106 1425.97 539.63C1425.97 543.712 1424.65 546.833 1422.01 548.994C1419.36 551.155 1415.46 552.236 1410.3 552.236H1368.52V578.527H1413.9C1424.35 578.527 1429.57 582.849 1429.57 591.493C1429.57 595.575 1428.25 598.696 1425.61 600.857C1422.97 603.018 1419.06 604.098 1413.9 604.098H1351.59Z" fill="black"/>
</g>
<defs>
<clipPath id="clip0">
<rect width="1599.53" height="752.096" fill="white" transform="translate(0.910156 0.42627)"/>
</clipPath>
<clipPath id="clip1">
<rect width="572.016" height="572.016" fill="white" transform="translate(149.211 85.1694)"/>
</clipPath>
</defs>
</svg>
