<svg width="2045" height="1368" viewBox="0 0 2045 1368" fill="none" xmlns="http://www.w3.org/2000/svg">
<g clip-path="url(#clip0)">
<path d="M169.825 276.046C169.825 217.543 217.251 170.117 275.754 170.117H1769.35C1827.86 170.117 1875.28 217.543 1875.28 276.046V1091.7C1875.28 1150.2 1827.86 1197.63 1769.35 1197.63H275.754C217.251 1197.63 169.825 1150.2 169.825 1091.7V276.046Z" fill="white"/>
<mask id="mask0" mask-type="alpha" maskUnits="userSpaceOnUse" x="169" y="170" width="1707" height="1028">
<rect x="196.307" y="196.599" width="1652.49" height="974.547" rx="79.4467" stroke="black" stroke-width="52.9645"/>
</mask>
<g mask="url(#mask0)">
<path d="M1546.9 170.117H1875.28V1197.63H1546.9V170.117Z" fill="#DF1F1F"/>
<path d="M498.205 1197.63L169.825 1197.63L169.825 170.117L498.205 170.117L498.205 1197.63Z" fill="#1E8F4E"/>
<rect x="1186.74" y="170.117" width="360.158" height="1027.51" fill="#FF6F1E"/>
<rect x="868.956" y="170.117" width="317.787" height="1027.51" fill="#EEAE0E"/>
<rect x="498.205" y="170.117" width="370.751" height="1027.51" fill="#60AC0E"/>
</g>
</g>
<g clip-path="url(#clip1)">
<path d="M906.056 400.203C915.93 399.371 925.078 408.519 924.245 418.393C923.032 432.454 905.52 752.015 803.259 854.276C705.245 952.29 589.755 929.283 514.344 875.071C513.436 874.418 512.411 873.632 511.286 872.728L443.305 940.614C426.879 957.039 400.248 957.039 383.823 940.614C367.397 924.188 367.397 897.557 383.823 881.132L451.721 813.162C450.813 812.032 450.022 811.004 449.366 810.093C395.154 734.682 372.147 619.192 470.161 521.178C572.422 418.916 891.982 401.405 906.056 400.203Z" fill="#FF6F1E"/>
<path d="M573.316 775.586C565.654 775.586 559.743 773.506 555.583 769.347C551.424 765.187 549.344 759.276 549.344 751.614V568.05C549.344 560.388 551.424 554.477 555.583 550.317C559.743 546.158 565.654 544.078 573.316 544.078H639.32C664.496 544.078 686.169 548.675 704.339 557.87C722.51 567.065 736.411 580.309 746.044 597.604C755.676 614.899 760.492 635.587 760.492 659.668C760.492 683.749 755.676 704.546 746.044 722.06C736.63 739.355 722.838 752.599 704.668 761.794C686.497 770.988 664.715 775.586 639.32 775.586H573.316ZM635.708 734.21C684.965 734.21 709.593 709.363 709.593 659.668C709.593 610.192 684.965 585.454 635.708 585.454H600.571V734.21H635.708Z" fill="white"/>
</g>
<path d="M1060.95 704.957C1053.54 704.957 1047.82 702.945 1043.79 698.919C1039.77 694.894 1037.75 689.174 1037.75 681.759V504.116C1037.75 496.701 1039.77 490.981 1043.79 486.956C1047.82 482.93 1053.54 480.918 1060.95 480.918H1173.45C1189.13 480.918 1196.96 487.273 1196.96 499.985C1196.96 512.908 1189.13 519.37 1173.45 519.37H1086.06V571.805H1167.09C1182.77 571.805 1190.61 578.266 1190.61 591.19C1190.61 603.901 1182.77 610.257 1167.09 610.257H1086.06V666.505H1173.45C1189.13 666.505 1196.96 672.967 1196.96 685.89C1196.96 698.602 1189.13 704.957 1173.45 704.957H1060.95ZM1329.09 707.817C1307.06 707.817 1287.78 703.157 1271.26 693.835C1254.73 684.513 1242.02 671.166 1233.12 653.794C1224.22 636.421 1219.77 616.083 1219.77 592.779C1219.77 569.474 1224.22 549.242 1233.12 532.081C1242.02 514.709 1254.73 501.362 1271.26 492.04C1287.78 482.718 1307.06 478.058 1329.09 478.058C1356.85 478.058 1380.79 485.684 1400.91 500.938C1404.09 503.48 1406.31 506.023 1407.59 508.565C1408.86 511.107 1409.49 514.285 1409.49 518.099C1409.49 523.607 1407.9 528.374 1404.73 532.399C1401.76 536.213 1398.05 538.119 1393.6 538.119C1390.64 538.119 1387.99 537.801 1385.66 537.166C1383.54 536.318 1381.1 534.941 1378.35 533.035C1369.87 527.526 1362.04 523.607 1354.83 521.277C1347.63 518.734 1339.9 517.463 1331.63 517.463C1311.3 517.463 1295.94 523.819 1285.56 536.53C1275.39 549.03 1270.3 567.779 1270.3 592.779C1270.3 643.201 1290.75 668.412 1331.63 668.412C1339.47 668.412 1346.89 667.247 1353.88 664.916C1360.87 662.374 1369.03 658.349 1378.35 652.84C1381.53 650.934 1384.18 649.662 1386.29 649.027C1388.41 648.179 1390.85 647.756 1393.6 647.756C1398.05 647.756 1401.76 649.768 1404.73 653.794C1407.9 657.607 1409.49 662.268 1409.49 667.776C1409.49 671.59 1408.75 674.874 1407.27 677.628C1406 680.17 1403.88 682.606 1400.91 684.937C1380.79 700.191 1356.85 707.817 1329.09 707.817ZM1539.81 707.817C1517.57 707.817 1498.18 703.157 1481.66 693.835C1465.34 684.301 1452.74 670.954 1443.84 653.794C1434.94 636.421 1430.49 616.083 1430.49 592.779C1430.49 569.474 1434.94 549.242 1443.84 532.081C1452.74 514.709 1465.34 501.362 1481.66 492.04C1498.18 482.718 1517.57 478.058 1539.81 478.058C1562.06 478.058 1581.34 482.718 1597.65 492.04C1614.17 501.362 1626.89 514.709 1635.78 532.081C1644.68 549.242 1649.13 569.474 1649.13 592.779C1649.13 616.083 1644.68 636.421 1635.78 653.794C1626.89 670.954 1614.17 684.301 1597.65 693.835C1581.34 703.157 1562.06 707.817 1539.81 707.817ZM1539.81 669.365C1558.46 669.365 1573.07 662.798 1583.67 649.662C1594.47 636.527 1599.87 617.566 1599.87 592.779C1599.87 567.991 1594.58 549.136 1583.98 536.213C1573.39 523.077 1558.67 516.51 1539.81 516.51C1520.96 516.51 1506.23 523.077 1495.64 536.213C1485.26 549.136 1480.07 567.991 1480.07 592.779C1480.07 617.566 1485.36 636.527 1495.96 649.662C1506.55 662.798 1521.17 669.365 1539.81 669.365ZM1090.91 907.578C1081.31 907.578 1072.36 906.558 1064.08 904.517C1055.92 902.356 1049.19 899.415 1043.91 895.693C1041.87 894.132 1040.37 892.511 1039.41 890.831C1038.57 889.15 1038.15 886.989 1038.15 884.348C1038.15 880.746 1039.23 877.625 1041.39 874.984C1043.55 872.343 1046.07 871.022 1048.95 871.022C1050.52 871.022 1052.02 871.262 1053.46 871.742C1054.9 872.223 1056.7 873.123 1058.86 874.444C1063.78 877.205 1068.64 879.186 1073.45 880.386C1078.37 881.587 1083.89 882.187 1090.01 882.187C1097.1 882.187 1102.44 881.166 1106.04 879.126C1109.76 876.965 1111.62 873.843 1111.62 869.761C1111.62 867 1109.88 864.659 1106.4 862.738C1103.04 860.697 1096.56 858.717 1086.95 856.796C1075.07 854.275 1065.76 851.273 1059.04 847.792C1052.32 844.31 1047.57 840.228 1044.81 835.546C1042.17 830.744 1040.85 824.982 1040.85 818.259C1040.85 810.575 1043.13 803.612 1047.69 797.37C1052.26 791.127 1058.5 786.265 1066.42 782.783C1074.47 779.182 1083.47 777.381 1093.43 777.381C1102.2 777.381 1110 778.341 1116.84 780.262C1123.69 782.183 1129.93 785.184 1135.57 789.266C1137.73 790.827 1139.23 792.507 1140.07 794.308C1141.04 795.989 1141.52 798.09 1141.52 800.611C1141.52 804.213 1140.43 807.334 1138.27 809.975C1136.23 812.616 1133.77 813.937 1130.89 813.937C1129.33 813.937 1127.89 813.757 1126.57 813.397C1125.25 812.916 1123.39 811.956 1120.99 810.515C1120.39 810.155 1118.65 809.255 1115.76 807.814C1113 806.254 1109.7 805.053 1105.86 804.213C1102.14 803.252 1098.06 802.772 1093.61 802.772C1087.49 802.772 1082.57 803.973 1078.85 806.374C1075.13 808.655 1073.27 811.716 1073.27 815.558C1073.27 817.839 1073.93 819.699 1075.25 821.14C1076.57 822.581 1079.03 824.021 1082.63 825.462C1086.23 826.783 1091.57 828.163 1098.66 829.604C1110.18 832.125 1119.25 835.186 1125.85 838.788C1132.45 842.269 1137.13 846.351 1139.89 851.033C1142.66 855.715 1144.04 861.238 1144.04 867.601C1144.04 875.524 1141.82 882.547 1137.37 888.67C1132.93 894.672 1126.69 899.354 1118.65 902.716C1110.72 905.957 1101.48 907.578 1090.91 907.578ZM1222.92 907.578C1210.2 907.578 1199.03 904.937 1189.43 899.655C1179.94 894.372 1172.56 886.809 1167.28 876.965C1162.12 867.12 1159.53 855.595 1159.53 842.389C1159.53 829.304 1162.12 817.839 1167.28 807.994C1172.56 798.15 1179.94 790.587 1189.43 785.304C1199.03 780.022 1210.2 777.381 1222.92 777.381C1238.17 777.381 1251.55 781.403 1263.08 789.446C1265.12 790.887 1266.56 792.447 1267.4 794.128C1268.36 795.809 1268.84 797.97 1268.84 800.611C1268.84 804.333 1267.76 807.514 1265.6 810.155C1263.56 812.676 1261.04 813.937 1258.04 813.937C1256.24 813.937 1254.62 813.697 1253.18 813.217C1251.73 812.616 1250.05 811.716 1248.13 810.515C1243.93 807.994 1239.97 806.193 1236.25 805.113C1232.53 804.033 1228.68 803.492 1224.72 803.492C1214.04 803.492 1206.05 806.734 1200.77 813.217C1195.61 819.579 1193.03 829.304 1193.03 842.389C1193.03 855.595 1195.61 865.44 1200.77 871.922C1206.05 878.285 1214.04 881.467 1224.72 881.467C1228.32 881.467 1231.81 880.926 1235.17 879.846C1238.53 878.645 1242.85 876.845 1248.13 874.444C1250.65 873.123 1252.52 872.223 1253.72 871.742C1254.92 871.262 1256.36 871.022 1258.04 871.022C1261.04 871.022 1263.56 872.343 1265.6 874.984C1267.76 877.505 1268.84 880.626 1268.84 884.348C1268.84 886.869 1268.36 889.03 1267.4 890.831C1266.56 892.511 1265.12 894.072 1263.08 895.513C1251.55 903.556 1238.17 907.578 1222.92 907.578ZM1342.33 907.578C1329.37 907.578 1318.08 904.937 1308.48 899.655C1299 894.252 1291.67 886.689 1286.51 876.965C1281.35 867.12 1278.77 855.595 1278.77 842.389C1278.77 829.184 1281.35 817.719 1286.51 807.994C1291.67 798.15 1299 790.587 1308.48 785.304C1318.08 780.022 1329.37 777.381 1342.33 777.381C1355.3 777.381 1366.53 780.022 1376.01 785.304C1385.61 790.587 1392.94 798.15 1397.98 807.994C1403.14 817.719 1405.72 829.184 1405.72 842.389C1405.72 855.595 1403.14 867.12 1397.98 876.965C1392.82 886.689 1385.43 894.252 1375.83 899.655C1366.35 904.937 1355.18 907.578 1342.33 907.578ZM1342.33 882.187C1351.94 882.187 1359.44 878.825 1364.84 872.102C1370.25 865.259 1372.95 855.355 1372.95 842.389C1372.95 829.424 1370.19 819.579 1364.66 812.856C1359.26 806.133 1351.82 802.772 1342.33 802.772C1332.73 802.772 1325.23 806.133 1319.82 812.856C1314.42 819.459 1311.72 829.304 1311.72 842.389C1311.72 855.475 1314.42 865.38 1319.82 872.102C1325.23 878.825 1332.73 882.187 1342.33 882.187ZM1532.12 884.888C1534.28 888.13 1535.36 891.191 1535.36 894.072C1535.36 897.914 1533.74 901.155 1530.5 903.796C1527.38 906.318 1523.72 907.578 1519.51 907.578C1516.63 907.578 1513.93 906.918 1511.41 905.597C1508.89 904.277 1506.73 902.296 1504.93 899.655L1481.52 865.44C1479.84 863.039 1478.04 861.298 1476.12 860.217C1474.31 859.017 1472.15 858.416 1469.63 858.416H1457.93V890.651C1457.93 895.693 1456.49 899.715 1453.61 902.716C1450.72 905.597 1446.76 907.038 1441.72 907.038C1436.68 907.038 1432.66 905.597 1429.65 902.716C1426.77 899.715 1425.33 895.693 1425.33 890.651V794.308C1425.33 789.386 1426.65 785.604 1429.29 782.963C1431.94 780.322 1435.72 779.002 1440.64 779.002H1485.84C1501.21 779.002 1512.73 782.363 1520.41 789.086C1528.22 795.689 1532.12 805.293 1532.12 817.899C1532.12 827.503 1529.48 835.666 1524.2 842.389C1518.91 848.992 1511.47 853.434 1501.87 855.715C1505.83 856.316 1509.25 857.636 1512.13 859.677C1515.13 861.718 1518.07 864.779 1520.95 868.861L1532.12 884.888ZM1480.62 833.566C1487.94 833.566 1493.16 832.425 1496.28 830.144C1499.53 827.863 1501.15 824.141 1501.15 818.979C1501.15 813.697 1499.53 809.915 1496.28 807.634C1493.16 805.233 1487.94 804.033 1480.62 804.033H1457.57V833.566H1480.62ZM1567.96 905.957C1563.04 905.957 1559.26 904.637 1556.62 901.996C1553.98 899.354 1552.65 895.573 1552.65 890.651V794.308C1552.65 789.386 1553.98 785.604 1556.62 782.963C1559.26 780.322 1563.04 779.002 1567.96 779.002H1630.27C1635.43 779.002 1639.33 780.082 1641.97 782.243C1644.61 784.404 1645.94 787.525 1645.94 791.607C1645.94 800.251 1640.71 804.573 1630.27 804.573H1584.89V828.703H1626.67C1637.11 828.703 1642.33 832.965 1642.33 841.489C1642.33 845.571 1641.01 848.692 1638.37 850.853C1635.73 853.014 1631.83 854.095 1626.67 854.095H1584.89V880.386H1630.27C1640.71 880.386 1645.94 884.708 1645.94 893.352C1645.94 897.434 1644.61 900.555 1641.97 902.716C1639.33 904.877 1635.43 905.957 1630.27 905.957H1567.96Z" fill="#4A4A4A"/>
<defs>
<clipPath id="clip0">
<path d="M169.825 276.046C169.825 217.543 217.251 170.117 275.754 170.117H1769.35C1827.86 170.117 1875.28 217.543 1875.28 276.046V1091.7C1875.28 1150.2 1827.86 1197.63 1769.35 1197.63H275.754C217.251 1197.63 169.825 1150.2 169.825 1091.7V276.046Z" fill="white"/>
</clipPath>
<clipPath id="clip1">
<rect width="572.016" height="572.016" fill="white" transform="translate(365.576 387.028)"/>
</clipPath>
</defs>
</svg>
