<svg width="2045" height="1367" viewBox="0 0 2045 1367" fill="none" xmlns="http://www.w3.org/2000/svg">
<g clip-path="url(#clip0)">
<path d="M169.967 275.609C169.967 217.106 217.393 169.68 275.896 169.68H1769.49C1828 169.68 1875.42 217.106 1875.42 275.609V1091.26C1875.42 1149.76 1828 1197.19 1769.49 1197.19H275.896C217.393 1197.19 169.967 1149.76 169.967 1091.26V275.609Z" fill="white"/>
<mask id="mask0" mask-type="alpha" maskUnits="userSpaceOnUse" x="169" y="169" width="1707" height="1029">
<rect x="196.449" y="196.162" width="1652.49" height="974.547" rx="79.4467" stroke="black" stroke-width="52.9645"/>
</mask>
<g mask="url(#mask0)">
<path d="M1547.04 169.68H1875.42V1197.19H1547.04V169.68Z" fill="black"/>
<path d="M498.346 1197.19L169.966 1197.19L169.966 169.68L498.346 169.68L498.346 1197.19Z" fill="black"/>
<rect x="1186.88" y="169.68" width="360.158" height="1027.51" fill="#5B5B5B"/>
<rect x="869.098" y="169.68" width="317.787" height="1027.51" fill="#989898"/>
<rect x="498.346" y="169.68" width="370.751" height="1027.51" fill="#5B5B5B"/>
</g>
</g>
<g clip-path="url(#clip1)">
<path d="M906.207 399.766C916.081 398.933 925.229 408.081 924.397 417.955C923.183 432.017 905.672 751.577 803.411 853.838C705.396 951.853 589.906 928.845 514.495 874.633C513.587 873.98 512.562 873.194 511.437 872.291L443.456 940.176C427.031 956.602 400.4 956.602 383.974 940.176C367.549 923.751 367.549 897.12 383.974 880.695L451.872 812.724C450.964 811.595 450.174 810.566 449.517 809.655C395.305 734.244 372.298 618.754 470.312 520.74C572.573 418.479 892.134 400.967 906.207 399.766Z" fill="black"/>
<path d="M710.278 655.29C723.632 659.23 733.921 666.126 741.146 675.978C748.589 685.61 752.311 697.541 752.311 711.771C752.311 731.255 745.086 746.689 730.638 758.073C716.408 769.456 696.705 775.148 671.529 775.148H585.494C577.832 775.148 571.921 773.069 567.761 768.909C563.602 764.75 561.522 758.839 561.522 751.177V567.612C561.522 559.95 563.602 554.039 567.761 549.88C571.921 545.72 577.832 543.641 585.494 543.641H668.246C692.327 543.641 711.373 549.004 725.384 559.731C739.613 570.458 746.728 585.126 746.728 603.734C746.728 615.775 743.444 626.392 736.877 635.587C730.528 644.563 721.662 651.13 710.278 655.29ZM611.436 637.886H659.708C672.843 637.886 682.475 635.696 688.605 631.318C694.954 626.721 698.128 619.825 698.128 610.63C698.128 600.998 694.954 593.992 688.605 589.614C682.475 585.016 672.843 582.718 659.708 582.718H611.436V637.886ZM665.618 736.071C679.192 736.071 689.043 733.772 695.173 729.175C701.302 724.578 704.367 717.135 704.367 706.845C704.367 696.556 701.302 689.003 695.173 684.187C689.043 679.371 679.192 676.963 665.618 676.963H611.436V736.071H665.618Z" fill="white"/>
</g>
<path d="M1061.1 704.52C1053.69 704.52 1047.97 702.507 1043.94 698.482C1039.92 694.457 1037.91 688.736 1037.91 681.321V503.679C1037.91 496.264 1039.92 490.543 1043.94 486.518C1047.97 482.493 1053.69 480.48 1061.1 480.48H1173.6C1189.28 480.48 1197.12 486.836 1197.12 499.547C1197.12 512.471 1189.28 518.932 1173.6 518.932H1086.21V571.367H1167.24C1182.92 571.367 1190.76 577.829 1190.76 590.752C1190.76 603.464 1182.92 609.819 1167.24 609.819H1086.21V666.068H1173.6C1189.28 666.068 1197.12 672.529 1197.12 685.453C1197.12 698.164 1189.28 704.52 1173.6 704.52H1061.1ZM1126.57 461.731C1124.87 462.578 1122.86 463.002 1120.53 463.002C1117.56 463.002 1114.92 462.048 1112.58 460.142C1110.47 458.023 1109.41 455.587 1109.41 452.833C1109.41 450.079 1110.78 447.324 1113.54 444.57L1140.87 417.558C1145.74 412.686 1150.93 410.249 1156.44 410.249C1161.1 410.249 1165.13 412.05 1168.52 415.652C1172.12 419.041 1173.92 423.067 1173.92 427.727C1173.92 430.905 1172.86 433.977 1170.74 436.943C1168.62 439.909 1165.44 442.452 1161.21 444.57L1126.57 461.731ZM1329.24 707.38C1307.21 707.38 1287.93 702.719 1271.41 693.397C1254.88 684.076 1242.17 670.729 1233.27 653.356C1224.37 635.984 1219.92 615.645 1219.92 592.341C1219.92 569.037 1224.37 548.804 1233.27 531.644C1242.17 514.271 1254.88 500.924 1271.41 491.603C1287.93 482.281 1307.21 477.62 1329.24 477.62C1357 477.62 1380.94 485.247 1401.06 500.501C1404.24 503.043 1406.47 505.585 1407.74 508.128C1409.01 510.67 1409.64 513.848 1409.64 517.661C1409.64 523.17 1408.05 527.936 1404.88 531.962C1401.91 535.775 1398.2 537.682 1393.75 537.682C1390.79 537.682 1388.14 537.364 1385.81 536.728C1383.69 535.881 1381.25 534.504 1378.5 532.597C1370.03 527.089 1362.19 523.17 1354.98 520.839C1347.78 518.297 1340.05 517.026 1331.79 517.026C1311.45 517.026 1296.09 523.381 1285.71 536.093C1275.54 548.592 1270.45 567.342 1270.45 592.341C1270.45 642.763 1290.9 667.974 1331.79 667.974C1339.62 667.974 1347.04 666.809 1354.03 664.479C1361.02 661.936 1369.18 657.911 1378.5 652.403C1381.68 650.496 1384.33 649.225 1386.45 648.589C1388.56 647.742 1391 647.318 1393.75 647.318C1398.2 647.318 1401.91 649.331 1404.88 653.356C1408.05 657.17 1409.64 661.831 1409.64 667.339C1409.64 671.152 1408.9 674.436 1407.42 677.19C1406.15 679.733 1404.03 682.169 1401.06 684.499C1380.94 699.753 1357 707.38 1329.24 707.38ZM1539.96 707.38C1517.72 707.38 1498.33 702.719 1481.81 693.397C1465.5 683.864 1452.89 670.517 1443.99 653.356C1435.09 635.984 1430.64 615.645 1430.64 592.341C1430.64 569.037 1435.09 548.804 1443.99 531.644C1452.89 514.271 1465.5 500.924 1481.81 491.603C1498.33 482.281 1517.72 477.62 1539.96 477.62C1562.21 477.62 1581.49 482.281 1597.8 491.603C1614.33 500.924 1627.04 514.271 1635.94 531.644C1644.83 548.804 1649.28 569.037 1649.28 592.341C1649.28 615.645 1644.83 635.984 1635.94 653.356C1627.04 670.517 1614.33 683.864 1597.8 693.397C1581.49 702.719 1562.21 707.38 1539.96 707.38ZM1539.96 668.928C1558.61 668.928 1573.23 662.36 1583.82 649.225C1594.62 636.09 1600.03 617.128 1600.03 592.341C1600.03 567.554 1594.73 548.698 1584.14 535.775C1573.54 522.64 1558.82 516.072 1539.96 516.072C1521.11 516.072 1506.38 522.64 1495.79 535.775C1485.41 548.698 1480.22 567.554 1480.22 592.341C1480.22 617.128 1485.52 636.09 1496.11 649.225C1506.7 662.36 1521.32 668.928 1539.96 668.928ZM1091.06 907.141C1081.46 907.141 1072.52 906.12 1064.23 904.079C1056.07 901.918 1049.35 898.977 1044.06 895.255C1042.02 893.695 1040.52 892.074 1039.56 890.393C1038.72 888.713 1038.3 886.552 1038.3 883.91C1038.3 880.309 1039.38 877.187 1041.54 874.546C1043.7 871.905 1046.22 870.585 1049.11 870.585C1050.67 870.585 1052.17 870.825 1053.61 871.305C1055.05 871.785 1056.85 872.685 1059.01 874.006C1063.93 876.767 1068.79 878.748 1073.6 879.949C1078.52 881.149 1084.04 881.749 1090.16 881.749C1097.25 881.749 1102.59 880.729 1106.19 878.688C1109.91 876.527 1111.77 873.406 1111.77 869.324C1111.77 866.563 1110.03 864.222 1106.55 862.301C1103.19 860.26 1096.71 858.279 1087.1 856.358C1075.22 853.837 1065.91 850.836 1059.19 847.354C1052.47 843.873 1047.73 839.791 1044.96 835.109C1042.32 830.307 1041 824.544 1041 817.821C1041 810.138 1043.28 803.175 1047.85 796.932C1052.41 790.689 1058.65 785.827 1066.57 782.346C1074.62 778.744 1083.62 776.943 1093.59 776.943C1102.35 776.943 1110.15 777.904 1117 779.825C1123.84 781.745 1130.08 784.747 1135.72 788.829C1137.88 790.389 1139.39 792.07 1140.23 793.871C1141.19 795.552 1141.67 797.652 1141.67 800.174C1141.67 803.775 1140.59 806.896 1138.43 809.538C1136.38 812.179 1133.92 813.499 1131.04 813.499C1129.48 813.499 1128.04 813.319 1126.72 812.959C1125.4 812.479 1123.54 811.519 1121.14 810.078C1120.54 809.718 1118.8 808.817 1115.92 807.377C1113.15 805.816 1109.85 804.615 1106.01 803.775C1102.29 802.815 1098.21 802.334 1093.77 802.334C1087.64 802.334 1082.72 803.535 1079 805.936C1075.28 808.217 1073.42 811.278 1073.42 815.12C1073.42 817.401 1074.08 819.262 1075.4 820.703C1076.72 822.143 1079.18 823.584 1082.78 825.024C1086.38 826.345 1091.72 827.726 1098.81 829.166C1110.33 831.687 1119.4 834.749 1126 838.35C1132.6 841.832 1137.28 845.914 1140.05 850.596C1142.81 855.278 1144.19 860.8 1144.19 867.163C1144.19 875.087 1141.97 882.11 1137.52 888.232C1133.08 894.235 1126.84 898.917 1118.8 902.278C1110.87 905.52 1101.63 907.141 1091.06 907.141ZM1223.07 907.141C1210.35 907.141 1199.18 904.499 1189.58 899.217C1180.09 893.935 1172.71 886.371 1167.43 876.527C1162.27 866.683 1159.69 855.158 1159.69 841.952C1159.69 828.866 1162.27 817.401 1167.43 807.557C1172.71 797.712 1180.09 790.149 1189.58 784.867C1199.18 779.584 1210.35 776.943 1223.07 776.943C1238.32 776.943 1251.71 780.965 1263.23 789.009C1265.27 790.449 1266.71 792.01 1267.55 793.691C1268.51 795.371 1268.99 797.532 1268.99 800.174C1268.99 803.895 1267.91 807.077 1265.75 809.718C1263.71 812.239 1261.19 813.499 1258.19 813.499C1256.39 813.499 1254.77 813.259 1253.33 812.779C1251.89 812.179 1250.21 811.278 1248.28 810.078C1244.08 807.557 1240.12 805.756 1236.4 804.676C1232.68 803.595 1228.84 803.055 1224.87 803.055C1214.19 803.055 1206.21 806.296 1200.92 812.779C1195.76 819.142 1193.18 828.866 1193.18 841.952C1193.18 855.158 1195.76 865.002 1200.92 871.485C1206.21 877.848 1214.19 881.029 1224.87 881.029C1228.48 881.029 1231.96 880.489 1235.32 879.408C1238.68 878.208 1243 876.407 1248.28 874.006C1250.81 872.685 1252.67 871.785 1253.87 871.305C1255.07 870.825 1256.51 870.585 1258.19 870.585C1261.19 870.585 1263.71 871.905 1265.75 874.546C1267.91 877.067 1268.99 880.189 1268.99 883.91C1268.99 886.431 1268.51 888.592 1267.55 890.393C1266.71 892.074 1265.27 893.635 1263.23 895.075C1251.71 903.119 1238.32 907.141 1223.07 907.141ZM1342.49 907.141C1329.52 907.141 1318.24 904.499 1308.63 899.217C1299.15 893.815 1291.82 886.251 1286.66 876.527C1281.5 866.683 1278.92 855.158 1278.92 841.952C1278.92 828.746 1281.5 817.281 1286.66 807.557C1291.82 797.712 1299.15 790.149 1308.63 784.867C1318.24 779.584 1329.52 776.943 1342.49 776.943C1355.45 776.943 1366.68 779.584 1376.16 784.867C1385.76 790.149 1393.09 797.712 1398.13 807.557C1403.29 817.281 1405.87 828.746 1405.87 841.952C1405.87 855.158 1403.29 866.683 1398.13 876.527C1392.97 886.251 1385.58 893.815 1375.98 899.217C1366.5 904.499 1355.33 907.141 1342.49 907.141ZM1342.49 881.749C1352.09 881.749 1359.59 878.388 1365 871.665C1370.4 864.822 1373.1 854.918 1373.1 841.952C1373.1 828.986 1370.34 819.142 1364.82 812.419C1359.41 805.696 1351.97 802.334 1342.49 802.334C1332.88 802.334 1325.38 805.696 1319.98 812.419C1314.57 819.022 1311.87 828.866 1311.87 841.952C1311.87 855.038 1314.57 864.942 1319.98 871.665C1325.38 878.388 1332.88 881.749 1342.49 881.749ZM1532.27 884.451C1534.43 887.692 1535.51 890.753 1535.51 893.635C1535.51 897.476 1533.89 900.718 1530.65 903.359C1527.53 905.88 1523.87 907.141 1519.67 907.141C1516.78 907.141 1514.08 906.48 1511.56 905.16C1509.04 903.839 1506.88 901.858 1505.08 899.217L1481.67 865.002C1479.99 862.601 1478.19 860.86 1476.27 859.78C1474.47 858.579 1472.3 857.979 1469.78 857.979H1458.08V890.213C1458.08 895.255 1456.64 899.277 1453.76 902.278C1450.88 905.16 1446.91 906.6 1441.87 906.6C1436.83 906.6 1432.81 905.16 1429.81 902.278C1426.92 899.277 1425.48 895.255 1425.48 890.213V793.871C1425.48 788.949 1426.8 785.167 1429.45 782.526C1432.09 779.885 1435.87 778.564 1440.79 778.564H1485.99C1501.36 778.564 1512.88 781.926 1520.57 788.648C1528.37 795.251 1532.27 804.856 1532.27 817.461C1532.27 827.065 1529.63 835.229 1524.35 841.952C1519.07 848.555 1511.62 852.997 1502.02 855.278C1505.98 855.878 1509.4 857.199 1512.28 859.24C1515.28 861.28 1518.22 864.342 1521.11 868.424L1532.27 884.451ZM1480.77 833.128C1488.09 833.128 1493.31 831.988 1496.44 829.707C1499.68 827.426 1501.3 823.704 1501.3 818.542C1501.3 813.259 1499.68 809.478 1496.44 807.197C1493.31 804.796 1488.09 803.595 1480.77 803.595H1457.72V833.128H1480.77ZM1568.11 905.52C1563.19 905.52 1559.41 904.199 1556.77 901.558C1554.13 898.917 1552.81 895.135 1552.81 890.213V793.871C1552.81 788.949 1554.13 785.167 1556.77 782.526C1559.41 779.885 1563.19 778.564 1568.11 778.564H1630.42C1635.58 778.564 1639.48 779.645 1642.13 781.805C1644.77 783.966 1646.09 787.088 1646.09 791.17C1646.09 799.813 1640.86 804.135 1630.42 804.135H1585.04V828.266H1626.82C1637.26 828.266 1642.49 832.528 1642.49 841.052C1642.49 845.133 1641.16 848.255 1638.52 850.416C1635.88 852.577 1631.98 853.657 1626.82 853.657H1585.04V879.949H1630.42C1640.86 879.949 1646.09 884.271 1646.09 892.914C1646.09 896.996 1644.77 900.118 1642.13 902.278C1639.48 904.439 1635.58 905.52 1630.42 905.52H1568.11Z" fill="black"/>
<defs>
<clipPath id="clip0">
<path d="M169.967 275.609C169.967 217.106 217.393 169.68 275.896 169.68H1769.49C1828 169.68 1875.42 217.106 1875.42 275.609V1091.26C1875.42 1149.76 1828 1197.19 1769.49 1197.19H275.896C217.393 1197.19 169.967 1149.76 169.967 1091.26V275.609Z" fill="white"/>
</clipPath>
<clipPath id="clip1">
<rect width="572.016" height="572.016" fill="white" transform="translate(365.729 386.591)"/>
</clipPath>
</defs>
</svg>
