<svg width="1919" height="1240" viewBox="0 0 1919 1240" fill="none" xmlns="http://www.w3.org/2000/svg">
<g clip-path="url(#clip0)">
<rect x="159.66" y="159.088" width="1599.53" height="921.582" rx="52.9645" fill="white"/>
<g clip-path="url(#clip1)">
<path d="M848.441 341.749C858.315 340.916 867.464 350.064 866.631 359.938C865.418 374 847.906 693.56 745.645 795.821C647.631 893.836 532.141 870.828 456.73 816.616C455.821 815.963 454.797 815.177 453.672 814.274L385.69 882.159C369.265 898.585 342.634 898.585 326.209 882.159C309.783 865.734 309.783 839.103 326.209 822.678L394.106 754.707C393.198 753.578 392.408 752.549 391.752 751.638C337.54 676.227 314.532 560.737 412.546 462.723C514.808 360.462 834.368 342.95 848.441 341.749Z" fill="black"/>
<path d="M543.6 717.131C535.938 717.131 530.027 715.052 525.868 710.892C521.708 706.733 519.628 700.822 519.628 693.16V509.595C519.628 501.933 521.708 496.022 525.868 491.863C530.027 487.703 535.938 485.624 543.6 485.624H659.846C676.047 485.624 684.147 492.191 684.147 505.326C684.147 518.68 676.047 525.358 659.846 525.358H569.542V579.54H653.279C669.479 579.54 677.579 586.217 677.579 599.571C677.579 612.707 669.479 619.274 653.279 619.274H569.542V677.397H659.846C676.047 677.397 684.147 684.074 684.147 697.429C684.147 710.564 676.047 717.131 659.846 717.131H543.6Z" fill="white"/>
</g>
<path d="M1003.34 646.503C995.923 646.503 990.203 644.49 986.177 640.465C982.152 636.44 980.139 630.72 980.139 623.304V445.662C980.139 438.247 982.152 432.526 986.177 428.501C990.203 424.476 995.923 422.463 1003.34 422.463H1115.83C1131.51 422.463 1139.35 428.819 1139.35 441.53C1139.35 454.454 1131.51 460.915 1115.83 460.915H1028.44V513.35H1109.48C1125.16 513.35 1132.99 519.812 1132.99 532.735C1132.99 545.447 1125.16 551.802 1109.48 551.802H1028.44V608.051H1115.83C1131.51 608.051 1139.35 614.512 1139.35 627.436C1139.35 640.147 1131.51 646.503 1115.83 646.503H1003.34ZM1068.8 403.714C1067.11 404.561 1065.09 404.985 1062.76 404.985C1059.8 404.985 1057.15 404.032 1054.82 402.125C1052.7 400.006 1051.64 397.57 1051.64 394.816C1051.64 392.062 1053.02 389.307 1055.77 386.553L1083.1 359.541C1087.98 354.669 1093.17 352.232 1098.67 352.232C1103.33 352.232 1107.36 354.033 1110.75 357.635C1114.35 361.024 1116.15 365.05 1116.15 369.711C1116.15 372.888 1115.09 375.96 1112.97 378.926C1110.86 381.892 1107.68 384.435 1103.44 386.553L1068.8 403.714ZM1271.48 649.363C1249.44 649.363 1230.17 644.702 1213.64 635.38C1197.12 626.059 1184.4 612.712 1175.51 595.339C1166.61 577.967 1162.16 557.629 1162.16 534.324C1162.16 511.02 1166.61 490.787 1175.51 473.627C1184.4 456.254 1197.12 442.907 1213.64 433.586C1230.17 424.264 1249.44 419.603 1271.48 419.603C1299.23 419.603 1323.17 427.23 1343.3 442.484C1346.48 445.026 1348.7 447.568 1349.97 450.111C1351.24 452.653 1351.88 455.831 1351.88 459.644C1351.88 465.153 1350.29 469.919 1347.11 473.945C1344.15 477.758 1340.44 479.665 1335.99 479.665C1333.02 479.665 1330.37 479.347 1328.04 478.711C1325.93 477.864 1323.49 476.487 1320.73 474.58C1312.26 469.072 1304.42 465.153 1297.22 462.822C1290.02 460.28 1282.28 459.009 1274.02 459.009C1253.68 459.009 1238.32 465.364 1227.94 478.076C1217.77 490.575 1212.69 509.325 1212.69 534.324C1212.69 584.746 1233.13 609.957 1274.02 609.957C1281.86 609.957 1289.27 608.792 1296.27 606.462C1303.26 603.919 1311.41 599.894 1320.73 594.386C1323.91 592.479 1326.56 591.208 1328.68 590.572C1330.8 589.725 1333.23 589.301 1335.99 589.301C1340.44 589.301 1344.15 591.314 1347.11 595.339C1350.29 599.153 1351.88 603.814 1351.88 609.322C1351.88 613.135 1351.14 616.419 1349.65 619.173C1348.38 621.716 1346.26 624.152 1343.3 626.482C1323.17 641.736 1299.23 649.363 1271.48 649.363ZM1482.2 649.363C1459.95 649.363 1440.57 644.702 1424.04 635.38C1407.73 625.847 1395.12 612.5 1386.23 595.339C1377.33 577.967 1372.88 557.629 1372.88 534.324C1372.88 511.02 1377.33 490.787 1386.23 473.627C1395.12 456.254 1407.73 442.907 1424.04 433.586C1440.57 424.264 1459.95 419.603 1482.2 419.603C1504.44 419.603 1523.72 424.264 1540.04 433.586C1556.56 442.907 1569.27 456.254 1578.17 473.627C1587.07 490.787 1591.52 511.02 1591.52 534.324C1591.52 557.629 1587.07 577.967 1578.17 595.339C1569.27 612.5 1556.56 625.847 1540.04 635.38C1523.72 644.702 1504.44 649.363 1482.2 649.363ZM1482.2 610.911C1500.84 610.911 1515.46 604.343 1526.05 591.208C1536.86 578.073 1542.26 559.112 1542.26 534.324C1542.26 509.537 1536.96 490.681 1526.37 477.758C1515.78 464.623 1501.05 458.055 1482.2 458.055C1463.34 458.055 1448.62 464.623 1438.03 477.758C1427.64 490.681 1422.45 509.537 1422.45 534.324C1422.45 559.112 1427.75 578.073 1438.34 591.208C1448.94 604.343 1463.55 610.911 1482.2 610.911ZM1033.3 849.124C1023.69 849.124 1014.75 848.103 1006.47 846.062C998.303 843.901 991.58 840.96 986.298 837.238C984.257 835.678 982.756 834.057 981.796 832.376C980.956 830.696 980.535 828.535 980.535 825.893C980.535 822.292 981.616 819.17 983.777 816.529C985.938 813.888 988.459 812.568 991.34 812.568C992.901 812.568 994.402 812.808 995.842 813.288C997.283 813.768 999.084 814.668 1001.24 815.989C1006.17 818.75 1011.03 820.731 1015.83 821.932C1020.75 823.132 1026.28 823.732 1032.4 823.732C1039.48 823.732 1044.82 822.712 1048.43 820.671C1052.15 818.51 1054.01 815.389 1054.01 811.307C1054.01 808.546 1052.27 806.205 1048.79 804.284C1045.42 802.243 1038.94 800.262 1029.34 798.341C1017.45 795.82 1008.15 792.819 1001.42 789.337C994.702 785.856 989.96 781.774 987.198 777.092C984.557 772.29 983.237 766.527 983.237 759.804C983.237 752.121 985.518 745.158 990.08 738.915C994.642 732.672 1000.88 727.81 1008.81 724.329C1016.85 720.727 1025.86 718.926 1035.82 718.926C1044.58 718.926 1052.39 719.887 1059.23 721.808C1066.07 723.728 1072.32 726.73 1077.96 730.812C1080.12 732.372 1081.62 734.053 1082.46 735.854C1083.42 737.535 1083.9 739.635 1083.9 742.157C1083.9 745.758 1082.82 748.88 1080.66 751.521C1078.62 754.162 1076.16 755.482 1073.28 755.482C1071.72 755.482 1070.27 755.302 1068.95 754.942C1067.63 754.462 1065.77 753.502 1063.37 752.061C1062.77 751.701 1061.03 750.8 1058.15 749.36C1055.39 747.799 1052.09 746.599 1048.25 745.758C1044.52 744.798 1040.44 744.318 1036 744.318C1029.88 744.318 1024.96 745.518 1021.23 747.919C1017.51 750.2 1015.65 753.261 1015.65 757.103C1015.65 759.384 1016.31 761.245 1017.63 762.686C1018.95 764.126 1021.41 765.567 1025.02 767.008C1028.62 768.328 1033.96 769.709 1041.04 771.149C1052.57 773.67 1061.63 776.732 1068.23 780.333C1074.84 783.815 1079.52 787.897 1082.28 792.579C1085.04 797.261 1086.42 802.783 1086.42 809.146C1086.42 817.07 1084.2 824.093 1079.76 830.215C1075.32 836.218 1069.07 840.9 1061.03 844.262C1053.11 847.503 1043.86 849.124 1033.3 849.124ZM1165.31 849.124C1152.58 849.124 1141.42 846.482 1131.81 841.2C1122.33 835.918 1114.95 828.355 1109.66 818.51C1104.5 808.666 1101.92 797.141 1101.92 783.935C1101.92 770.849 1104.5 759.384 1109.66 749.54C1114.95 739.695 1122.33 732.132 1131.81 726.85C1141.42 721.568 1152.58 718.926 1165.31 718.926C1180.55 718.926 1193.94 722.948 1205.47 730.992C1207.51 732.432 1208.95 733.993 1209.79 735.674C1210.75 737.354 1211.23 739.515 1211.23 742.157C1211.23 745.878 1210.15 749.06 1207.99 751.701C1205.95 754.222 1203.42 755.482 1200.42 755.482C1198.62 755.482 1197 755.242 1195.56 754.762C1194.12 754.162 1192.44 753.261 1190.52 752.061C1186.32 749.54 1182.36 747.739 1178.63 746.659C1174.91 745.578 1171.07 745.038 1167.11 745.038C1156.42 745.038 1148.44 748.279 1143.16 754.762C1138 761.125 1135.41 770.849 1135.41 783.935C1135.41 797.141 1138 806.985 1143.16 813.468C1148.44 819.831 1156.42 823.012 1167.11 823.012C1170.71 823.012 1174.19 822.472 1177.55 821.391C1180.91 820.191 1185.24 818.39 1190.52 815.989C1193.04 814.668 1194.9 813.768 1196.1 813.288C1197.3 812.808 1198.74 812.568 1200.42 812.568C1203.42 812.568 1205.95 813.888 1207.99 816.529C1210.15 819.05 1211.23 822.172 1211.23 825.893C1211.23 828.415 1210.75 830.575 1209.79 832.376C1208.95 834.057 1207.51 835.618 1205.47 837.058C1193.94 845.102 1180.55 849.124 1165.31 849.124ZM1284.72 849.124C1271.75 849.124 1260.47 846.482 1250.87 841.2C1241.38 835.798 1234.06 828.234 1228.9 818.51C1223.73 808.666 1221.15 797.141 1221.15 783.935C1221.15 770.729 1223.73 759.264 1228.9 749.54C1234.06 739.695 1241.38 732.132 1250.87 726.85C1260.47 721.568 1271.75 718.926 1284.72 718.926C1297.69 718.926 1308.91 721.568 1318.4 726.85C1328 732.132 1335.32 739.695 1340.36 749.54C1345.53 759.264 1348.11 770.729 1348.11 783.935C1348.11 797.141 1345.53 808.666 1340.36 818.51C1335.2 828.234 1327.82 835.798 1318.22 841.2C1308.73 846.482 1297.57 849.124 1284.72 849.124ZM1284.72 823.732C1294.32 823.732 1301.83 820.371 1307.23 813.648C1312.63 806.805 1315.33 796.901 1315.33 783.935C1315.33 770.969 1312.57 761.125 1307.05 754.402C1301.65 747.679 1294.2 744.318 1284.72 744.318C1275.12 744.318 1267.61 747.679 1262.21 754.402C1256.81 761.005 1254.11 770.849 1254.11 783.935C1254.11 797.021 1256.81 806.925 1262.21 813.648C1267.61 820.371 1275.12 823.732 1284.72 823.732ZM1474.51 826.434C1476.67 829.675 1477.75 832.736 1477.75 835.618C1477.75 839.459 1476.13 842.701 1472.88 845.342C1469.76 847.863 1466.1 849.124 1461.9 849.124C1459.02 849.124 1456.32 848.463 1453.8 847.143C1451.28 845.822 1449.11 843.841 1447.31 841.2L1423.9 806.985C1422.22 804.584 1420.42 802.843 1418.5 801.763C1416.7 800.562 1414.54 799.962 1412.02 799.962H1400.31V832.196C1400.31 837.238 1398.87 841.26 1395.99 844.262C1393.11 847.143 1389.15 848.583 1384.11 848.583C1379.06 848.583 1375.04 847.143 1372.04 844.262C1369.16 841.26 1367.72 837.238 1367.72 832.196V735.854C1367.72 730.932 1369.04 727.15 1371.68 724.509C1374.32 721.868 1378.1 720.547 1383.03 720.547H1428.23C1443.59 720.547 1455.12 723.909 1462.8 730.631C1470.6 737.234 1474.51 746.839 1474.51 759.444C1474.51 769.048 1471.86 777.212 1466.58 783.935C1461.3 790.538 1453.86 794.98 1444.25 797.261C1448.21 797.861 1451.64 799.182 1454.52 801.223C1457.52 803.263 1460.46 806.325 1463.34 810.407L1474.51 826.434ZM1423 775.111C1430.33 775.111 1435.55 773.971 1438.67 771.69C1441.91 769.409 1443.53 765.687 1443.53 760.525C1443.53 755.242 1441.91 751.461 1438.67 749.18C1435.55 746.779 1430.33 745.578 1423 745.578H1399.95V775.111H1423ZM1510.35 847.503C1505.42 847.503 1501.64 846.182 1499 843.541C1496.36 840.9 1495.04 837.118 1495.04 832.196V735.854C1495.04 730.932 1496.36 727.15 1499 724.509C1501.64 721.868 1505.42 720.547 1510.35 720.547H1572.65C1577.82 720.547 1581.72 721.628 1584.36 723.788C1587 725.949 1588.32 729.071 1588.32 733.153C1588.32 741.796 1583.1 746.118 1572.65 746.118H1527.27V770.249H1569.05C1579.5 770.249 1584.72 774.511 1584.72 783.035C1584.72 787.116 1583.4 790.238 1580.76 792.399C1578.12 794.56 1574.22 795.64 1569.05 795.64H1527.27V821.932H1572.65C1583.1 821.932 1588.32 826.254 1588.32 834.897C1588.32 838.979 1587 842.101 1584.36 844.262C1581.72 846.422 1577.82 847.503 1572.65 847.503H1510.35Z" fill="black"/>
</g>
<defs>
<clipPath id="clip0">
<rect width="1917.31" height="1239.37" fill="white" transform="translate(0.767578 0.194153)"/>
</clipPath>
<clipPath id="clip1">
<rect width="572.016" height="572.016" fill="white" transform="translate(307.961 328.574)"/>
</clipPath>
</defs>
</svg>
