<svg width="2045" height="1367" viewBox="0 0 2045 1367" fill="none" xmlns="http://www.w3.org/2000/svg">
<g clip-path="url(#clip0)">
<path d="M169.826 275.609C169.826 217.106 217.252 169.68 275.755 169.68H1769.35C1827.86 169.68 1875.28 217.106 1875.28 275.609V1091.26C1875.28 1149.76 1827.86 1197.19 1769.35 1197.19H275.755C217.252 1197.19 169.826 1149.76 169.826 1091.26V275.609Z" fill="white"/>
<mask id="mask0" mask-type="alpha" maskUnits="userSpaceOnUse" x="169" y="169" width="1707" height="1029">
<rect x="196.308" y="196.162" width="1652.49" height="974.547" rx="79.4467" stroke="black" stroke-width="52.9645"/>
</mask>
<g mask="url(#mask0)">
<path d="M1546.9 169.68H1875.28V1197.19H1546.9V169.68Z" fill="black"/>
<path d="M498.205 1197.19L169.825 1197.19L169.825 169.68L498.205 169.68L498.205 1197.19Z" fill="black"/>
<rect x="1186.74" y="169.68" width="360.158" height="1027.51" fill="#5B5B5B"/>
<rect x="868.957" y="169.68" width="317.787" height="1027.51" fill="#989898"/>
<rect x="498.205" y="169.68" width="370.751" height="1027.51" fill="#5B5B5B"/>
</g>
</g>
<g clip-path="url(#clip1)">
<path d="M906.066 399.766C915.94 398.933 925.089 408.081 924.256 417.955C923.043 432.017 905.531 751.577 803.27 853.838C705.256 951.853 589.766 928.845 514.355 874.633C513.446 873.98 512.422 873.194 511.297 872.291L443.315 940.176C426.89 956.602 400.259 956.602 383.834 940.176C367.408 923.751 367.408 897.12 383.834 880.695L451.731 812.724C450.823 811.595 450.033 810.566 449.377 809.655C395.165 734.244 372.157 618.754 470.171 520.74C572.433 418.479 891.993 400.967 906.066 399.766Z" fill="black"/>
<path d="M573.328 775.148C565.665 775.148 559.755 773.069 555.595 768.909C551.436 764.75 549.356 758.839 549.356 751.177V567.612C549.356 559.95 551.436 554.039 555.595 549.88C559.755 545.72 565.665 543.641 573.328 543.641H639.332C664.508 543.641 686.181 548.238 704.351 557.432C722.521 566.627 736.423 579.872 746.055 597.166C755.688 614.461 760.504 635.149 760.504 659.23C760.504 683.311 755.688 704.109 746.055 721.622C736.642 738.917 722.85 752.162 704.679 761.356C686.509 770.551 664.727 775.148 639.332 775.148H573.328ZM635.72 733.772C684.977 733.772 709.605 708.925 709.605 659.23C709.605 609.754 684.977 585.016 635.72 585.016H600.583V733.772H635.72Z" fill="white"/>
</g>
<path d="M1060.96 704.52C1053.55 704.52 1047.83 702.507 1043.8 698.482C1039.78 694.457 1037.76 688.736 1037.76 681.321V503.679C1037.76 496.264 1039.78 490.543 1043.8 486.518C1047.83 482.493 1053.55 480.48 1060.96 480.48H1173.46C1189.14 480.48 1196.98 486.836 1196.98 499.547C1196.98 512.471 1189.14 518.932 1173.46 518.932H1086.07V571.367H1167.1C1182.78 571.367 1190.62 577.829 1190.62 590.752C1190.62 603.464 1182.78 609.819 1167.1 609.819H1086.07V666.068H1173.46C1189.14 666.068 1196.98 672.529 1196.98 685.453C1196.98 698.164 1189.14 704.52 1173.46 704.52H1060.96ZM1126.43 461.731C1124.73 462.578 1122.72 463.002 1120.39 463.002C1117.42 463.002 1114.77 462.048 1112.44 460.142C1110.33 458.023 1109.27 455.587 1109.27 452.833C1109.27 450.079 1110.64 447.324 1113.4 444.57L1140.73 417.558C1145.6 412.686 1150.79 410.249 1156.3 410.249C1160.96 410.249 1164.99 412.05 1168.37 415.652C1171.98 419.041 1173.78 423.067 1173.78 427.727C1173.78 430.905 1172.72 433.977 1170.6 436.943C1168.48 439.909 1165.3 442.452 1161.07 444.57L1126.43 461.731ZM1329.1 707.38C1307.07 707.38 1287.79 702.719 1271.27 693.397C1254.74 684.076 1242.03 670.729 1233.13 653.356C1224.23 635.984 1219.78 615.645 1219.78 592.341C1219.78 569.037 1224.23 548.804 1233.13 531.644C1242.03 514.271 1254.74 500.924 1271.27 491.603C1287.79 482.281 1307.07 477.62 1329.1 477.62C1356.86 477.62 1380.8 485.247 1400.92 500.501C1404.1 503.043 1406.33 505.585 1407.6 508.128C1408.87 510.67 1409.5 513.848 1409.5 517.661C1409.5 523.17 1407.91 527.936 1404.74 531.962C1401.77 535.775 1398.06 537.682 1393.61 537.682C1390.65 537.682 1388 537.364 1385.67 536.728C1383.55 535.881 1381.11 534.504 1378.36 532.597C1369.89 527.089 1362.05 523.17 1354.84 520.839C1347.64 518.297 1339.91 517.026 1331.65 517.026C1311.31 517.026 1295.95 523.381 1285.57 536.093C1275.4 548.592 1270.31 567.342 1270.31 592.341C1270.31 642.763 1290.76 667.974 1331.65 667.974C1339.48 667.974 1346.9 666.809 1353.89 664.479C1360.88 661.936 1369.04 657.911 1378.36 652.403C1381.54 650.496 1384.19 649.225 1386.3 648.589C1388.42 647.742 1390.86 647.318 1393.61 647.318C1398.06 647.318 1401.77 649.331 1404.74 653.356C1407.91 657.17 1409.5 661.831 1409.5 667.339C1409.5 671.152 1408.76 674.436 1407.28 677.19C1406.01 679.733 1403.89 682.169 1400.92 684.499C1380.8 699.753 1356.86 707.38 1329.1 707.38ZM1539.82 707.38C1517.58 707.38 1498.19 702.719 1481.67 693.397C1465.35 683.864 1452.75 670.517 1443.85 653.356C1434.95 635.984 1430.5 615.645 1430.5 592.341C1430.5 569.037 1434.95 548.804 1443.85 531.644C1452.75 514.271 1465.35 500.924 1481.67 491.603C1498.19 482.281 1517.58 477.62 1539.82 477.62C1562.07 477.62 1581.35 482.281 1597.66 491.603C1614.19 500.924 1626.9 514.271 1635.79 531.644C1644.69 548.804 1649.14 569.037 1649.14 592.341C1649.14 615.645 1644.69 635.984 1635.79 653.356C1626.9 670.517 1614.19 683.864 1597.66 693.397C1581.35 702.719 1562.07 707.38 1539.82 707.38ZM1539.82 668.928C1558.47 668.928 1573.08 662.36 1583.68 649.225C1594.48 636.09 1599.88 617.128 1599.88 592.341C1599.88 567.554 1594.59 548.698 1584 535.775C1573.4 522.64 1558.68 516.072 1539.82 516.072C1520.97 516.072 1506.24 522.64 1495.65 535.775C1485.27 548.698 1480.08 567.554 1480.08 592.341C1480.08 617.128 1485.38 636.09 1495.97 649.225C1506.56 662.36 1521.18 668.928 1539.82 668.928ZM1090.92 907.141C1081.32 907.141 1072.38 906.12 1064.09 904.079C1055.93 901.918 1049.21 898.977 1043.92 895.255C1041.88 893.695 1040.38 892.074 1039.42 890.393C1038.58 888.713 1038.16 886.552 1038.16 883.91C1038.16 880.309 1039.24 877.187 1041.4 874.546C1043.56 871.905 1046.08 870.585 1048.97 870.585C1050.53 870.585 1052.03 870.825 1053.47 871.305C1054.91 871.785 1056.71 872.685 1058.87 874.006C1063.79 876.767 1068.65 878.748 1073.46 879.949C1078.38 881.149 1083.9 881.749 1090.02 881.749C1097.11 881.749 1102.45 880.729 1106.05 878.688C1109.77 876.527 1111.63 873.406 1111.63 869.324C1111.63 866.563 1109.89 864.222 1106.41 862.301C1103.05 860.26 1096.57 858.279 1086.96 856.358C1075.08 853.837 1065.77 850.836 1059.05 847.354C1052.33 843.873 1047.58 839.791 1044.82 835.109C1042.18 830.307 1040.86 824.544 1040.86 817.821C1040.86 810.138 1043.14 803.175 1047.7 796.932C1052.27 790.689 1058.51 785.827 1066.43 782.346C1074.48 778.744 1083.48 776.943 1093.44 776.943C1102.21 776.943 1110.01 777.904 1116.86 779.825C1123.7 781.745 1129.94 784.747 1135.58 788.829C1137.74 790.389 1139.24 792.07 1140.09 793.871C1141.05 795.552 1141.53 797.652 1141.53 800.174C1141.53 803.775 1140.45 806.896 1138.28 809.538C1136.24 812.179 1133.78 813.499 1130.9 813.499C1129.34 813.499 1127.9 813.319 1126.58 812.959C1125.26 812.479 1123.4 811.519 1121 810.078C1120.4 809.718 1118.66 808.817 1115.77 807.377C1113.01 805.816 1109.71 804.615 1105.87 803.775C1102.15 802.815 1098.07 802.334 1093.62 802.334C1087.5 802.334 1082.58 803.535 1078.86 805.936C1075.14 808.217 1073.28 811.278 1073.28 815.12C1073.28 817.401 1073.94 819.262 1075.26 820.703C1076.58 822.143 1079.04 823.584 1082.64 825.024C1086.24 826.345 1091.58 827.726 1098.67 829.166C1110.19 831.687 1119.26 834.749 1125.86 838.35C1132.46 841.832 1137.14 845.914 1139.91 850.596C1142.67 855.278 1144.05 860.8 1144.05 867.163C1144.05 875.087 1141.83 882.11 1137.38 888.232C1132.94 894.235 1126.7 898.917 1118.66 902.278C1110.73 905.52 1101.49 907.141 1090.92 907.141ZM1222.93 907.141C1210.21 907.141 1199.04 904.499 1189.44 899.217C1179.95 893.935 1172.57 886.371 1167.29 876.527C1162.13 866.683 1159.55 855.158 1159.55 841.952C1159.55 828.866 1162.13 817.401 1167.29 807.557C1172.57 797.712 1179.95 790.149 1189.44 784.867C1199.04 779.584 1210.21 776.943 1222.93 776.943C1238.18 776.943 1251.57 780.965 1263.09 789.009C1265.13 790.449 1266.57 792.01 1267.41 793.691C1268.37 795.371 1268.85 797.532 1268.85 800.174C1268.85 803.895 1267.77 807.077 1265.61 809.718C1263.57 812.239 1261.05 813.499 1258.05 813.499C1256.25 813.499 1254.63 813.259 1253.19 812.779C1251.75 812.179 1250.06 811.278 1248.14 810.078C1243.94 807.557 1239.98 805.756 1236.26 804.676C1232.54 803.595 1228.7 803.055 1224.73 803.055C1214.05 803.055 1206.07 806.296 1200.78 812.779C1195.62 819.142 1193.04 828.866 1193.04 841.952C1193.04 855.158 1195.62 865.002 1200.78 871.485C1206.07 877.848 1214.05 881.029 1224.73 881.029C1228.34 881.029 1231.82 880.489 1235.18 879.408C1238.54 878.208 1242.86 876.407 1248.14 874.006C1250.67 872.685 1252.53 871.785 1253.73 871.305C1254.93 870.825 1256.37 870.585 1258.05 870.585C1261.05 870.585 1263.57 871.905 1265.61 874.546C1267.77 877.067 1268.85 880.189 1268.85 883.91C1268.85 886.431 1268.37 888.592 1267.41 890.393C1266.57 892.074 1265.13 893.635 1263.09 895.075C1251.57 903.119 1238.18 907.141 1222.93 907.141ZM1342.35 907.141C1329.38 907.141 1318.09 904.499 1308.49 899.217C1299.01 893.815 1291.68 886.251 1286.52 876.527C1281.36 866.683 1278.78 855.158 1278.78 841.952C1278.78 828.746 1281.36 817.281 1286.52 807.557C1291.68 797.712 1299.01 790.149 1308.49 784.867C1318.09 779.584 1329.38 776.943 1342.35 776.943C1355.31 776.943 1366.54 779.584 1376.02 784.867C1385.62 790.149 1392.95 797.712 1397.99 807.557C1403.15 817.281 1405.73 828.746 1405.73 841.952C1405.73 855.158 1403.15 866.683 1397.99 876.527C1392.83 886.251 1385.44 893.815 1375.84 899.217C1366.36 904.499 1355.19 907.141 1342.35 907.141ZM1342.35 881.749C1351.95 881.749 1359.45 878.388 1364.86 871.665C1370.26 864.822 1372.96 854.918 1372.96 841.952C1372.96 828.986 1370.2 819.142 1364.68 812.419C1359.27 805.696 1351.83 802.334 1342.35 802.334C1332.74 802.334 1325.24 805.696 1319.84 812.419C1314.43 819.022 1311.73 828.866 1311.73 841.952C1311.73 855.038 1314.43 864.942 1319.84 871.665C1325.24 878.388 1332.74 881.749 1342.35 881.749ZM1532.13 884.451C1534.29 887.692 1535.37 890.753 1535.37 893.635C1535.37 897.476 1533.75 900.718 1530.51 903.359C1527.39 905.88 1523.73 907.141 1519.52 907.141C1516.64 907.141 1513.94 906.48 1511.42 905.16C1508.9 903.839 1506.74 901.858 1504.94 899.217L1481.53 865.002C1479.85 862.601 1478.05 860.86 1476.13 859.78C1474.33 858.579 1472.16 857.979 1469.64 857.979H1457.94V890.213C1457.94 895.255 1456.5 899.277 1453.62 902.278C1450.73 905.16 1446.77 906.6 1441.73 906.6C1436.69 906.6 1432.67 905.16 1429.67 902.278C1426.78 899.277 1425.34 895.255 1425.34 890.213V793.871C1425.34 788.949 1426.66 785.167 1429.31 782.526C1431.95 779.885 1435.73 778.564 1440.65 778.564H1485.85C1501.22 778.564 1512.74 781.926 1520.43 788.648C1528.23 795.251 1532.13 804.856 1532.13 817.461C1532.13 827.065 1529.49 835.229 1524.21 841.952C1518.92 848.555 1511.48 852.997 1501.88 855.278C1505.84 855.878 1509.26 857.199 1512.14 859.24C1515.14 861.28 1518.08 864.342 1520.97 868.424L1532.13 884.451ZM1480.63 833.128C1487.95 833.128 1493.17 831.988 1496.29 829.707C1499.54 827.426 1501.16 823.704 1501.16 818.542C1501.16 813.259 1499.54 809.478 1496.29 807.197C1493.17 804.796 1487.95 803.595 1480.63 803.595H1457.58V833.128H1480.63ZM1567.97 905.52C1563.05 905.52 1559.27 904.199 1556.63 901.558C1553.99 898.917 1552.67 895.135 1552.67 890.213V793.871C1552.67 788.949 1553.99 785.167 1556.63 782.526C1559.27 779.885 1563.05 778.564 1567.97 778.564H1630.28C1635.44 778.564 1639.34 779.645 1641.98 781.805C1644.63 783.966 1645.95 787.088 1645.95 791.17C1645.95 799.813 1640.72 804.135 1630.28 804.135H1584.9V828.266H1626.68C1637.12 828.266 1642.34 832.528 1642.34 841.052C1642.34 845.133 1641.02 848.255 1638.38 850.416C1635.74 852.577 1631.84 853.657 1626.68 853.657H1584.9V879.949H1630.28C1640.72 879.949 1645.95 884.271 1645.95 892.914C1645.95 896.996 1644.63 900.118 1641.98 902.278C1639.34 904.439 1635.44 905.52 1630.28 905.52H1567.97Z" fill="black"/>
<defs>
<clipPath id="clip0">
<path d="M169.826 275.609C169.826 217.106 217.252 169.68 275.755 169.68H1769.35C1827.86 169.68 1875.28 217.106 1875.28 275.609V1091.26C1875.28 1149.76 1827.86 1197.19 1769.35 1197.19H275.755C217.252 1197.19 169.826 1149.76 169.826 1091.26V275.609Z" fill="white"/>
</clipPath>
<clipPath id="clip1">
<rect width="572.016" height="572.016" fill="white" transform="translate(365.588 386.591)"/>
</clipPath>
</defs>
</svg>
