<svg width="1919" height="1240" viewBox="0 0 1919 1240" fill="none" xmlns="http://www.w3.org/2000/svg">
<g clip-path="url(#clip0)">
<rect x="159.803" y="159.088" width="1599.53" height="921.582" rx="52.9645" fill="white"/>
<g clip-path="url(#clip1)">
<path d="M848.584 341.749C858.458 340.916 867.606 350.064 866.774 359.938C865.56 374 848.049 693.56 745.787 795.821C647.773 893.836 532.283 870.828 456.872 816.616C455.964 815.963 454.939 815.177 453.814 814.274L385.833 882.159C369.408 898.585 342.777 898.585 326.351 882.159C309.926 865.734 309.926 839.103 326.351 822.678L394.249 754.707C393.341 753.578 392.55 752.549 391.894 751.638C337.682 676.227 314.675 560.737 412.689 462.723C514.95 360.462 834.511 342.95 848.584 341.749Z" fill="black"/>
<path d="M612.216 720.087C589.449 720.087 569.527 715.27 552.451 705.638C535.375 696.006 522.24 682.214 513.046 664.262C503.851 646.311 499.254 625.294 499.254 601.213C499.254 577.132 503.851 556.225 513.046 538.493C522.24 520.541 535.375 506.749 552.451 497.117C569.527 487.484 589.449 482.668 612.216 482.668C640.895 482.668 665.633 490.549 686.43 506.311C689.714 508.939 692.013 511.566 693.326 514.193C694.64 516.82 695.296 520.103 695.296 524.044C695.296 529.736 693.654 534.662 690.371 538.821C687.306 542.762 683.475 544.732 678.877 544.732C675.812 544.732 673.076 544.404 670.668 543.747C668.479 542.871 665.961 541.448 663.115 539.478C654.358 533.786 646.258 529.736 638.815 527.328C631.372 524.701 623.381 523.387 614.843 523.387C593.827 523.387 577.955 529.955 567.228 543.09C556.72 556.006 551.466 575.381 551.466 601.213C551.466 653.316 572.592 679.368 614.843 679.368C622.943 679.368 630.606 678.164 637.83 675.755C645.054 673.128 653.483 668.969 663.115 663.277C666.399 661.307 669.135 659.993 671.325 659.336C673.514 658.461 676.031 658.023 678.877 658.023C683.475 658.023 687.306 660.103 690.371 664.262C693.654 668.203 695.296 673.019 695.296 678.711C695.296 682.651 694.53 686.045 692.998 688.891C691.684 691.518 689.495 694.035 686.43 696.443C665.633 712.206 640.895 720.087 612.216 720.087Z" fill="white"/>
</g>
<path d="M1003.48 646.503C996.065 646.503 990.345 644.49 986.32 640.465C982.295 636.44 980.282 630.72 980.282 623.304V445.662C980.282 438.247 982.295 432.526 986.32 428.501C990.345 424.476 996.065 422.463 1003.48 422.463H1115.98C1131.65 422.463 1139.49 428.819 1139.49 441.53C1139.49 454.454 1131.65 460.915 1115.98 460.915H1028.59V513.35H1109.62C1125.3 513.35 1133.14 519.812 1133.14 532.735C1133.14 545.447 1125.3 551.802 1109.62 551.802H1028.59V608.051H1115.98C1131.65 608.051 1139.49 614.512 1139.49 627.436C1139.49 640.147 1131.65 646.503 1115.98 646.503H1003.48ZM1068.94 403.714C1067.25 404.561 1065.24 404.985 1062.91 404.985C1059.94 404.985 1057.29 404.032 1054.96 402.125C1052.84 400.006 1051.78 397.57 1051.78 394.816C1051.78 392.062 1053.16 389.307 1055.92 386.553L1083.24 359.541C1088.12 354.669 1093.31 352.232 1098.82 352.232C1103.48 352.232 1107.5 354.033 1110.89 357.635C1114.49 361.024 1116.29 365.05 1116.29 369.711C1116.29 372.888 1115.24 375.96 1113.12 378.926C1111 381.892 1107.82 384.435 1103.58 386.553L1068.94 403.714ZM1271.62 649.363C1249.59 649.363 1230.31 644.702 1213.78 635.38C1197.26 626.059 1184.55 612.712 1175.65 595.339C1166.75 577.967 1162.3 557.629 1162.3 534.324C1162.3 511.02 1166.75 490.787 1175.65 473.627C1184.55 456.254 1197.26 442.907 1213.78 433.586C1230.31 424.264 1249.59 419.603 1271.62 419.603C1299.37 419.603 1323.31 427.23 1343.44 442.484C1346.62 445.026 1348.84 447.568 1350.11 450.111C1351.39 452.653 1352.02 455.831 1352.02 459.644C1352.02 465.153 1350.43 469.919 1347.25 473.945C1344.29 477.758 1340.58 479.665 1336.13 479.665C1333.17 479.665 1330.52 479.347 1328.19 478.711C1326.07 477.864 1323.63 476.487 1320.88 474.58C1312.4 469.072 1304.56 465.153 1297.36 462.822C1290.16 460.28 1282.43 459.009 1274.16 459.009C1253.82 459.009 1238.46 465.364 1228.08 478.076C1217.91 490.575 1212.83 509.325 1212.83 534.324C1212.83 584.746 1233.27 609.957 1274.16 609.957C1282 609.957 1289.42 608.792 1296.41 606.462C1303.4 603.919 1311.56 599.894 1320.88 594.386C1324.06 592.479 1326.7 591.208 1328.82 590.572C1330.94 589.725 1333.38 589.301 1336.13 589.301C1340.58 589.301 1344.29 591.314 1347.25 595.339C1350.43 599.153 1352.02 603.814 1352.02 609.322C1352.02 613.135 1351.28 616.419 1349.8 619.173C1348.53 621.716 1346.41 624.152 1343.44 626.482C1323.31 641.736 1299.37 649.363 1271.62 649.363ZM1482.34 649.363C1460.1 649.363 1440.71 644.702 1424.19 635.38C1407.87 625.847 1395.27 612.5 1386.37 595.339C1377.47 577.967 1373.02 557.629 1373.02 534.324C1373.02 511.02 1377.47 490.787 1386.37 473.627C1395.27 456.254 1407.87 442.907 1424.19 433.586C1440.71 424.264 1460.1 419.603 1482.34 419.603C1504.59 419.603 1523.86 424.264 1540.18 433.586C1556.7 442.907 1569.41 456.254 1578.31 473.627C1587.21 490.787 1591.66 511.02 1591.66 534.324C1591.66 557.629 1587.21 577.967 1578.31 595.339C1569.41 612.5 1556.7 625.847 1540.18 635.38C1523.86 644.702 1504.59 649.363 1482.34 649.363ZM1482.34 610.911C1500.98 610.911 1515.6 604.343 1526.2 591.208C1537 578.073 1542.4 559.112 1542.4 534.324C1542.4 509.537 1537.11 490.681 1526.51 477.758C1515.92 464.623 1501.2 458.055 1482.34 458.055C1463.49 458.055 1448.76 464.623 1438.17 477.758C1427.79 490.681 1422.6 509.537 1422.6 534.324C1422.6 559.112 1427.89 578.073 1438.49 591.208C1449.08 604.343 1463.7 610.911 1482.34 610.911ZM1033.44 849.124C1023.84 849.124 1014.89 848.103 1006.61 846.062C998.446 843.901 991.723 840.96 986.441 837.238C984.4 835.678 982.899 834.057 981.939 832.376C981.098 830.696 980.678 828.535 980.678 825.893C980.678 822.292 981.759 819.17 983.92 816.529C986.08 813.888 988.602 812.568 991.483 812.568C993.044 812.568 994.544 812.808 995.985 813.288C997.425 813.768 999.226 814.668 1001.39 815.989C1006.31 818.75 1011.17 820.731 1015.97 821.932C1020.9 823.132 1026.42 823.732 1032.54 823.732C1039.62 823.732 1044.97 822.712 1048.57 820.671C1052.29 818.51 1054.15 815.389 1054.15 811.307C1054.15 808.546 1052.41 806.205 1048.93 804.284C1045.57 802.243 1039.08 800.262 1029.48 798.341C1017.59 795.82 1008.29 792.819 1001.57 789.337C994.844 785.856 990.102 781.774 987.341 777.092C984.7 772.29 983.379 766.527 983.379 759.804C983.379 752.121 985.66 745.158 990.222 738.915C994.784 732.672 1001.03 727.81 1008.95 724.329C1016.99 720.727 1026 718.926 1035.96 718.926C1044.73 718.926 1052.53 719.887 1059.37 721.808C1066.22 723.728 1072.46 726.73 1078.1 730.812C1080.26 732.372 1081.76 734.053 1082.6 735.854C1083.56 737.535 1084.04 739.635 1084.04 742.157C1084.04 745.758 1082.96 748.88 1080.8 751.521C1078.76 754.162 1076.3 755.482 1073.42 755.482C1071.86 755.482 1070.42 755.302 1069.1 754.942C1067.78 754.462 1065.92 753.502 1063.51 752.061C1062.91 751.701 1061.17 750.8 1058.29 749.36C1055.53 747.799 1052.23 746.599 1048.39 745.758C1044.67 744.798 1040.58 744.318 1036.14 744.318C1030.02 744.318 1025.1 745.518 1021.38 747.919C1017.65 750.2 1015.79 753.261 1015.79 757.103C1015.79 759.384 1016.45 761.245 1017.77 762.686C1019.09 764.126 1021.56 765.567 1025.16 767.008C1028.76 768.328 1034.1 769.709 1041.18 771.149C1052.71 773.67 1061.77 776.732 1068.38 780.333C1074.98 783.815 1079.66 787.897 1082.42 792.579C1085.18 797.261 1086.56 802.783 1086.56 809.146C1086.56 817.07 1084.34 824.093 1079.9 830.215C1075.46 836.218 1069.22 840.9 1061.17 844.262C1053.25 847.503 1044.01 849.124 1033.44 849.124ZM1165.45 849.124C1152.73 849.124 1141.56 846.482 1131.96 841.2C1122.47 835.918 1115.09 828.355 1109.81 818.51C1104.64 808.666 1102.06 797.141 1102.06 783.935C1102.06 770.849 1104.64 759.384 1109.81 749.54C1115.09 739.695 1122.47 732.132 1131.96 726.85C1141.56 721.568 1152.73 718.926 1165.45 718.926C1180.7 718.926 1194.08 722.948 1205.61 730.992C1207.65 732.432 1209.09 733.993 1209.93 735.674C1210.89 737.354 1211.37 739.515 1211.37 742.157C1211.37 745.878 1210.29 749.06 1208.13 751.701C1206.09 754.222 1203.57 755.482 1200.57 755.482C1198.77 755.482 1197.14 755.242 1195.7 754.762C1194.26 754.162 1192.58 753.261 1190.66 752.061C1186.46 749.54 1182.5 747.739 1178.78 746.659C1175.05 745.578 1171.21 745.038 1167.25 745.038C1156.57 745.038 1148.58 748.279 1143.3 754.762C1138.14 761.125 1135.56 770.849 1135.56 783.935C1135.56 797.141 1138.14 806.985 1143.3 813.468C1148.58 819.831 1156.57 823.012 1167.25 823.012C1170.85 823.012 1174.33 822.472 1177.7 821.391C1181.06 820.191 1185.38 818.39 1190.66 815.989C1193.18 814.668 1195.04 813.768 1196.24 813.288C1197.44 812.808 1198.89 812.568 1200.57 812.568C1203.57 812.568 1206.09 813.888 1208.13 816.529C1210.29 819.05 1211.37 822.172 1211.37 825.893C1211.37 828.415 1210.89 830.575 1209.93 832.376C1209.09 834.057 1207.65 835.618 1205.61 837.058C1194.08 845.102 1180.7 849.124 1165.45 849.124ZM1284.86 849.124C1271.9 849.124 1260.61 846.482 1251.01 841.2C1241.52 835.798 1234.2 828.234 1229.04 818.51C1223.88 808.666 1221.29 797.141 1221.29 783.935C1221.29 770.729 1223.88 759.264 1229.04 749.54C1234.2 739.695 1241.52 732.132 1251.01 726.85C1260.61 721.568 1271.9 718.926 1284.86 718.926C1297.83 718.926 1309.05 721.568 1318.54 726.85C1328.14 732.132 1335.47 739.695 1340.51 749.54C1345.67 759.264 1348.25 770.729 1348.25 783.935C1348.25 797.141 1345.67 808.666 1340.51 818.51C1335.35 828.234 1327.96 835.798 1318.36 841.2C1308.87 846.482 1297.71 849.124 1284.86 849.124ZM1284.86 823.732C1294.47 823.732 1301.97 820.371 1307.37 813.648C1312.78 806.805 1315.48 796.901 1315.48 783.935C1315.48 770.969 1312.72 761.125 1307.19 754.402C1301.79 747.679 1294.35 744.318 1284.86 744.318C1275.26 744.318 1267.76 747.679 1262.35 754.402C1256.95 761.005 1254.25 770.849 1254.25 783.935C1254.25 797.021 1256.95 806.925 1262.35 813.648C1267.76 820.371 1275.26 823.732 1284.86 823.732ZM1474.65 826.434C1476.81 829.675 1477.89 832.736 1477.89 835.618C1477.89 839.459 1476.27 842.701 1473.03 845.342C1469.91 847.863 1466.24 849.124 1462.04 849.124C1459.16 849.124 1456.46 848.463 1453.94 847.143C1451.42 845.822 1449.26 843.841 1447.46 841.2L1424.05 806.985C1422.37 804.584 1420.56 802.843 1418.64 801.763C1416.84 800.562 1414.68 799.962 1412.16 799.962H1400.46V832.196C1400.46 837.238 1399.01 841.26 1396.13 844.262C1393.25 847.143 1389.29 848.583 1384.25 848.583C1379.21 848.583 1375.18 847.143 1372.18 844.262C1369.3 841.26 1367.86 837.238 1367.86 832.196V735.854C1367.86 730.932 1369.18 727.15 1371.82 724.509C1374.46 721.868 1378.25 720.547 1383.17 720.547H1428.37C1443.73 720.547 1455.26 723.909 1462.94 730.631C1470.75 737.234 1474.65 746.839 1474.65 759.444C1474.65 769.048 1472.01 777.212 1466.72 783.935C1461.44 790.538 1454 794.98 1444.39 797.261C1448.36 797.861 1451.78 799.182 1454.66 801.223C1457.66 803.263 1460.6 806.325 1463.48 810.407L1474.65 826.434ZM1423.15 775.111C1430.47 775.111 1435.69 773.971 1438.81 771.69C1442.05 769.409 1443.67 765.687 1443.67 760.525C1443.67 755.242 1442.05 751.461 1438.81 749.18C1435.69 746.779 1430.47 745.578 1423.15 745.578H1400.1V775.111H1423.15ZM1510.49 847.503C1505.57 847.503 1501.79 846.182 1499.14 843.541C1496.5 840.9 1495.18 837.118 1495.18 832.196V735.854C1495.18 730.932 1496.5 727.15 1499.14 724.509C1501.79 721.868 1505.57 720.547 1510.49 720.547H1572.8C1577.96 720.547 1581.86 721.628 1584.5 723.788C1587.14 725.949 1588.46 729.071 1588.46 733.153C1588.46 741.796 1583.24 746.118 1572.8 746.118H1527.42V770.249H1569.2C1579.64 770.249 1584.86 774.511 1584.86 783.035C1584.86 787.116 1583.54 790.238 1580.9 792.399C1578.26 794.56 1574.36 795.64 1569.2 795.64H1527.42V821.932H1572.8C1583.24 821.932 1588.46 826.254 1588.46 834.897C1588.46 838.979 1587.14 842.101 1584.5 844.262C1581.86 846.422 1577.96 847.503 1572.8 847.503H1510.49Z" fill="black"/>
</g>
<defs>
<clipPath id="clip0">
<rect width="1917.31" height="1239.37" fill="white" transform="translate(0.910156 0.194153)"/>
</clipPath>
<clipPath id="clip1">
<rect width="572.016" height="572.016" fill="white" transform="translate(308.104 328.574)"/>
</clipPath>
</defs>
</svg>
