<svg width="2046" height="1368" viewBox="0 0 2046 1368" fill="none" xmlns="http://www.w3.org/2000/svg">
<g clip-path="url(#clip0)">
<path d="M170.396 276.046C170.396 217.543 217.823 170.117 276.325 170.117H1769.92C1828.43 170.117 1875.85 217.543 1875.85 276.046V1091.7C1875.85 1150.2 1828.43 1197.63 1769.92 1197.63H276.325C217.822 1197.63 170.396 1150.2 170.396 1091.7V276.046Z" fill="white"/>
<mask id="mask0" mask-type="alpha" maskUnits="userSpaceOnUse" x="170" y="170" width="1706" height="1028">
<rect x="196.879" y="196.599" width="1652.49" height="974.547" rx="79.4467" stroke="black" stroke-width="52.9645"/>
</mask>
<g mask="url(#mask0)">
<path d="M1547.47 170.117H1875.85V1197.63H1547.47V170.117Z" fill="#DF1F1F"/>
<path d="M498.776 1197.63L170.397 1197.63L170.397 170.117L498.776 170.117L498.776 1197.63Z" fill="#1E8F4E"/>
<rect x="1187.31" y="170.117" width="360.158" height="1027.51" fill="#FF6F1E"/>
<rect x="869.527" y="170.117" width="317.787" height="1027.51" fill="#EEAE0E"/>
<rect x="498.776" y="170.117" width="370.751" height="1027.51" fill="#60AC0E"/>
</g>
</g>
<g clip-path="url(#clip1)">
<path d="M906.627 400.203C916.501 399.371 925.649 408.519 924.817 418.393C923.603 432.454 906.092 752.015 803.83 854.276C705.816 952.29 590.326 929.283 514.915 875.071C514.007 874.418 512.982 873.632 511.857 872.728L443.876 940.614C427.45 957.039 400.82 957.039 384.394 940.614C367.969 924.188 367.969 897.557 384.394 881.132L452.292 813.162C451.384 812.032 450.593 811.004 449.937 810.093C395.725 734.682 372.718 619.192 470.732 521.178C572.993 418.916 892.554 401.405 906.627 400.203Z" fill="#EEAE0E"/>
<path d="M670.26 778.541C647.493 778.541 627.571 773.725 610.495 764.093C593.419 754.46 580.284 740.668 571.089 722.717C561.895 704.765 557.298 683.749 557.298 659.668C557.298 635.587 561.895 614.68 571.089 596.947C580.284 578.996 593.419 565.204 610.495 555.571C627.571 545.939 647.493 541.123 670.26 541.123C698.939 541.123 723.677 549.004 744.474 564.766C747.758 567.393 750.056 570.02 751.37 572.647C752.684 575.274 753.34 578.558 753.34 582.498C753.34 588.19 751.698 593.116 748.415 597.276C745.35 601.216 741.519 603.186 736.921 603.186C733.856 603.186 731.12 602.858 728.712 602.201C726.523 601.326 724.005 599.903 721.159 597.932C712.402 592.24 704.302 588.19 696.859 585.782C689.416 583.155 681.425 581.842 672.887 581.842C651.871 581.842 635.999 588.409 625.272 601.545C614.764 614.461 609.51 633.835 609.51 659.668C609.51 711.771 630.636 737.822 672.887 737.822C680.987 737.822 688.649 736.618 695.874 734.21C703.098 731.583 711.527 727.423 721.159 721.732C724.443 719.761 727.179 718.448 729.369 717.791C731.558 716.915 734.075 716.477 736.921 716.477C741.519 716.477 745.35 718.557 748.415 722.717C751.698 726.657 753.34 731.473 753.34 737.165C753.34 741.106 752.574 744.499 751.042 747.345C749.728 749.972 747.539 752.49 744.474 754.898C723.677 770.66 698.939 778.541 670.26 778.541Z" fill="white"/>
</g>
<path d="M1061.52 704.957C1054.11 704.957 1048.39 702.945 1044.36 698.919C1040.34 694.894 1038.32 689.174 1038.32 681.759V504.116C1038.32 496.701 1040.34 490.981 1044.36 486.956C1048.39 482.93 1054.11 480.918 1061.52 480.918H1174.02C1189.7 480.918 1197.54 487.273 1197.54 499.985C1197.54 512.908 1189.7 519.37 1174.02 519.37H1086.63V571.805H1167.66C1183.34 571.805 1191.18 578.266 1191.18 591.19C1191.18 603.901 1183.34 610.257 1167.66 610.257H1086.63V666.505H1174.02C1189.7 666.505 1197.54 672.967 1197.54 685.89C1197.54 698.602 1189.7 704.957 1174.02 704.957H1061.52ZM1329.66 707.817C1307.63 707.817 1288.35 703.157 1271.83 693.835C1255.3 684.513 1242.59 671.166 1233.69 653.794C1224.79 636.421 1220.34 616.083 1220.34 592.779C1220.34 569.474 1224.79 549.242 1233.69 532.081C1242.59 514.709 1255.3 501.362 1271.83 492.04C1288.35 482.718 1307.63 478.058 1329.66 478.058C1357.42 478.058 1381.36 485.684 1401.48 500.938C1404.66 503.48 1406.89 506.023 1408.16 508.565C1409.43 511.107 1410.06 514.285 1410.06 518.099C1410.06 523.607 1408.47 528.374 1405.3 532.399C1402.33 536.213 1398.62 538.119 1394.17 538.119C1391.21 538.119 1388.56 537.801 1386.23 537.166C1384.11 536.318 1381.67 534.941 1378.92 533.035C1370.45 527.526 1362.61 523.607 1355.4 521.277C1348.2 518.734 1340.47 517.463 1332.21 517.463C1311.87 517.463 1296.51 523.819 1286.13 536.53C1275.96 549.03 1270.87 567.779 1270.87 592.779C1270.87 643.201 1291.32 668.412 1332.21 668.412C1340.04 668.412 1347.46 667.247 1354.45 664.916C1361.44 662.374 1369.6 658.349 1378.92 652.84C1382.1 650.934 1384.75 649.662 1386.87 649.027C1388.98 648.179 1391.42 647.756 1394.17 647.756C1398.62 647.756 1402.33 649.768 1405.3 653.794C1408.47 657.607 1410.06 662.268 1410.06 667.776C1410.06 671.59 1409.32 674.874 1407.84 677.628C1406.57 680.17 1404.45 682.606 1401.48 684.937C1381.36 700.191 1357.42 707.817 1329.66 707.817ZM1540.38 707.817C1518.14 707.817 1498.75 703.157 1482.23 693.835C1465.92 684.301 1453.31 670.954 1444.41 653.794C1435.51 636.421 1431.06 616.083 1431.06 592.779C1431.06 569.474 1435.51 549.242 1444.41 532.081C1453.31 514.709 1465.92 501.362 1482.23 492.04C1498.75 482.718 1518.14 478.058 1540.38 478.058C1562.63 478.058 1581.91 482.718 1598.22 492.04C1614.75 501.362 1627.46 514.709 1636.36 532.081C1645.25 549.242 1649.7 569.474 1649.7 592.779C1649.7 616.083 1645.25 636.421 1636.36 653.794C1627.46 670.954 1614.75 684.301 1598.22 693.835C1581.91 703.157 1562.63 707.817 1540.38 707.817ZM1540.38 669.365C1559.03 669.365 1573.65 662.798 1584.24 649.662C1595.04 636.527 1600.45 617.566 1600.45 592.779C1600.45 567.991 1595.15 549.136 1584.56 536.213C1573.96 523.077 1559.24 516.51 1540.38 516.51C1521.53 516.51 1506.8 523.077 1496.21 536.213C1485.83 549.136 1480.64 567.991 1480.64 592.779C1480.64 617.566 1485.94 636.527 1496.53 649.662C1507.12 662.798 1521.74 669.365 1540.38 669.365ZM1091.48 907.578C1081.88 907.578 1072.94 906.558 1064.65 904.517C1056.49 902.356 1049.77 899.415 1044.48 895.693C1042.44 894.132 1040.94 892.511 1039.98 890.831C1039.14 889.15 1038.72 886.989 1038.72 884.348C1038.72 880.746 1039.8 877.625 1041.96 874.984C1044.12 872.343 1046.64 871.022 1049.53 871.022C1051.09 871.022 1052.59 871.262 1054.03 871.742C1055.47 872.223 1057.27 873.123 1059.43 874.444C1064.35 877.205 1069.21 879.186 1074.02 880.386C1078.94 881.587 1084.46 882.187 1090.58 882.187C1097.67 882.187 1103.01 881.166 1106.61 879.126C1110.33 876.965 1112.19 873.843 1112.19 869.761C1112.19 867 1110.45 864.659 1106.97 862.738C1103.61 860.697 1097.13 858.717 1087.52 856.796C1075.64 854.275 1066.33 851.273 1059.61 847.792C1052.89 844.31 1048.15 840.228 1045.38 835.546C1042.74 830.744 1041.42 824.982 1041.42 818.259C1041.42 810.575 1043.7 803.612 1048.27 797.37C1052.83 791.127 1059.07 786.265 1066.99 782.783C1075.04 779.182 1084.04 777.381 1094.01 777.381C1102.77 777.381 1110.57 778.341 1117.42 780.262C1124.26 782.183 1130.5 785.184 1136.14 789.266C1138.3 790.827 1139.81 792.507 1140.65 794.308C1141.61 795.989 1142.09 798.09 1142.09 800.611C1142.09 804.213 1141.01 807.334 1138.85 809.975C1136.8 812.616 1134.34 813.937 1131.46 813.937C1129.9 813.937 1128.46 813.757 1127.14 813.397C1125.82 812.916 1123.96 811.956 1121.56 810.515C1120.96 810.155 1119.22 809.255 1116.34 807.814C1113.57 806.254 1110.27 805.053 1106.43 804.213C1102.71 803.252 1098.63 802.772 1094.19 802.772C1088.06 802.772 1083.14 803.973 1079.42 806.374C1075.7 808.655 1073.84 811.716 1073.84 815.558C1073.84 817.839 1074.5 819.699 1075.82 821.14C1077.14 822.581 1079.6 824.021 1083.2 825.462C1086.8 826.783 1092.14 828.163 1099.23 829.604C1110.75 832.125 1119.82 835.186 1126.42 838.788C1133.02 842.269 1137.7 846.351 1140.47 851.033C1143.23 855.715 1144.61 861.238 1144.61 867.601C1144.61 875.524 1142.39 882.547 1137.94 888.67C1133.5 894.672 1127.26 899.354 1119.22 902.716C1111.29 905.957 1102.05 907.578 1091.48 907.578ZM1223.49 907.578C1210.77 907.578 1199.6 904.937 1190 899.655C1180.51 894.372 1173.13 886.809 1167.85 876.965C1162.69 867.12 1160.11 855.595 1160.11 842.389C1160.11 829.304 1162.69 817.839 1167.85 807.994C1173.13 798.15 1180.51 790.587 1190 785.304C1199.6 780.022 1210.77 777.381 1223.49 777.381C1238.74 777.381 1252.13 781.403 1263.65 789.446C1265.69 790.887 1267.13 792.447 1267.97 794.128C1268.93 795.809 1269.41 797.97 1269.41 800.611C1269.41 804.333 1268.33 807.514 1266.17 810.155C1264.13 812.676 1261.61 813.937 1258.61 813.937C1256.81 813.937 1255.19 813.697 1253.75 813.217C1252.31 812.616 1250.63 811.716 1248.7 810.515C1244.5 807.994 1240.54 806.193 1236.82 805.113C1233.1 804.033 1229.26 803.492 1225.29 803.492C1214.61 803.492 1206.63 806.734 1201.34 813.217C1196.18 819.579 1193.6 829.304 1193.6 842.389C1193.6 855.595 1196.18 865.44 1201.34 871.922C1206.63 878.285 1214.61 881.467 1225.29 881.467C1228.9 881.467 1232.38 880.926 1235.74 879.846C1239.1 878.645 1243.42 876.845 1248.7 874.444C1251.23 873.123 1253.09 872.223 1254.29 871.742C1255.49 871.262 1256.93 871.022 1258.61 871.022C1261.61 871.022 1264.13 872.343 1266.17 874.984C1268.33 877.505 1269.41 880.626 1269.41 884.348C1269.41 886.869 1268.93 889.03 1267.97 890.831C1267.13 892.511 1265.69 894.072 1263.65 895.513C1252.13 903.556 1238.74 907.578 1223.49 907.578ZM1342.91 907.578C1329.94 907.578 1318.66 904.937 1309.05 899.655C1299.57 894.252 1292.24 886.689 1287.08 876.965C1281.92 867.12 1279.34 855.595 1279.34 842.389C1279.34 829.184 1281.92 817.719 1287.08 807.994C1292.24 798.15 1299.57 790.587 1309.05 785.304C1318.66 780.022 1329.94 777.381 1342.91 777.381C1355.87 777.381 1367.1 780.022 1376.58 785.304C1386.18 790.587 1393.51 798.15 1398.55 807.994C1403.71 817.719 1406.29 829.184 1406.29 842.389C1406.29 855.595 1403.71 867.12 1398.55 876.965C1393.39 886.689 1386 894.252 1376.4 899.655C1366.92 904.937 1355.75 907.578 1342.91 907.578ZM1342.91 882.187C1352.51 882.187 1360.01 878.825 1365.42 872.102C1370.82 865.259 1373.52 855.355 1373.52 842.389C1373.52 829.424 1370.76 819.579 1365.24 812.856C1359.83 806.133 1352.39 802.772 1342.91 802.772C1333.3 802.772 1325.8 806.133 1320.4 812.856C1314.99 819.459 1312.29 829.304 1312.29 842.389C1312.29 855.475 1314.99 865.38 1320.4 872.102C1325.8 878.825 1333.3 882.187 1342.91 882.187ZM1532.69 884.888C1534.85 888.13 1535.93 891.191 1535.93 894.072C1535.93 897.914 1534.31 901.155 1531.07 903.796C1527.95 906.318 1524.29 907.578 1520.09 907.578C1517.2 907.578 1514.5 906.918 1511.98 905.597C1509.46 904.277 1507.3 902.296 1505.5 899.655L1482.09 865.44C1480.41 863.039 1478.61 861.298 1476.69 860.217C1474.89 859.017 1472.72 858.416 1470.2 858.416H1458.5V890.651C1458.5 895.693 1457.06 899.715 1454.18 902.716C1451.3 905.597 1447.33 907.038 1442.29 907.038C1437.25 907.038 1433.23 905.597 1430.23 902.716C1427.34 899.715 1425.9 895.693 1425.9 890.651V794.308C1425.9 789.386 1427.22 785.604 1429.87 782.963C1432.51 780.322 1436.29 779.002 1441.21 779.002H1486.41C1501.78 779.002 1513.3 782.363 1520.99 789.086C1528.79 795.689 1532.69 805.293 1532.69 817.899C1532.69 827.503 1530.05 835.666 1524.77 842.389C1519.49 848.992 1512.04 853.434 1502.44 855.715C1506.4 856.316 1509.82 857.636 1512.7 859.677C1515.7 861.718 1518.64 864.779 1521.53 868.861L1532.69 884.888ZM1481.19 833.566C1488.51 833.566 1493.73 832.425 1496.86 830.144C1500.1 827.863 1501.72 824.141 1501.72 818.979C1501.72 813.697 1500.1 809.915 1496.86 807.634C1493.73 805.233 1488.51 804.033 1481.19 804.033H1458.14V833.566H1481.19ZM1568.53 905.957C1563.61 905.957 1559.83 904.637 1557.19 901.996C1554.55 899.354 1553.23 895.573 1553.23 890.651V794.308C1553.23 789.386 1554.55 785.604 1557.19 782.963C1559.83 780.322 1563.61 779.002 1568.53 779.002H1630.84C1636 779.002 1639.9 780.082 1642.55 782.243C1645.19 784.404 1646.51 787.525 1646.51 791.607C1646.51 800.251 1641.28 804.573 1630.84 804.573H1585.46V828.703H1627.24C1637.68 828.703 1642.91 832.965 1642.91 841.489C1642.91 845.571 1641.58 848.692 1638.94 850.853C1636.3 853.014 1632.4 854.095 1627.24 854.095H1585.46V880.386H1630.84C1641.28 880.386 1646.51 884.708 1646.51 893.352C1646.51 897.434 1645.19 900.555 1642.55 902.716C1639.9 904.877 1636 905.957 1630.84 905.957H1568.53Z" fill="#4A4A4A"/>
<defs>
<clipPath id="clip0">
<path d="M170.396 276.046C170.396 217.543 217.823 170.117 276.325 170.117H1769.92C1828.43 170.117 1875.85 217.543 1875.85 276.046V1091.7C1875.85 1150.2 1828.43 1197.63 1769.92 1197.63H276.325C217.822 1197.63 170.396 1150.2 170.396 1091.7V276.046Z" fill="white"/>
</clipPath>
<clipPath id="clip1">
<rect width="572.016" height="572.016" fill="white" transform="translate(366.147 387.028)"/>
</clipPath>
</defs>
</svg>
