<svg width="1600" height="753" viewBox="0 0 1600 753" fill="none" xmlns="http://www.w3.org/2000/svg">
<g clip-path="url(#clip0)">
<g clip-path="url(#clip1)">
<path d="M689.118 98.3443C698.992 97.5116 708.141 106.66 707.308 116.534C706.094 130.595 688.583 450.156 586.322 552.417C488.307 650.431 372.817 627.424 297.406 573.212C296.498 572.559 295.473 571.773 294.348 570.869L226.367 638.755C209.942 655.18 183.311 655.18 166.885 638.755C150.46 622.329 150.46 595.698 166.885 579.273L234.783 511.303C233.875 510.173 233.085 509.145 232.428 508.234C178.217 432.823 155.209 317.333 253.223 219.319C355.484 117.057 675.045 99.5459 689.118 98.3443Z" fill="#FF6F1E"/>
<path d="M356.379 473.727C348.717 473.727 342.806 471.647 338.647 467.488C334.487 463.328 332.408 457.417 332.408 449.755V266.191C332.408 258.529 334.487 252.618 338.647 248.458C342.806 244.299 348.717 242.219 356.379 242.219H422.384C447.559 242.219 469.232 246.816 487.403 256.011C505.573 265.206 519.475 278.45 529.107 295.745C538.74 313.04 543.556 333.728 543.556 357.809C543.556 381.89 538.74 402.687 529.107 420.201C519.694 437.496 505.902 450.74 487.731 459.935C469.561 469.129 447.778 473.727 422.384 473.727H356.379ZM418.771 432.351C468.028 432.351 492.657 407.504 492.657 357.809C492.657 308.333 468.028 283.595 418.771 283.595H383.635V432.351H418.771Z" fill="white"/>
</g>
<path d="M844.015 403.098C836.6 403.098 830.879 401.086 826.854 397.06C822.829 393.035 820.816 387.315 820.816 379.9V202.257C820.816 194.842 822.829 189.122 826.854 185.097C830.879 181.071 836.6 179.059 844.015 179.059H956.511C972.189 179.059 980.027 185.414 980.027 198.126C980.027 211.049 972.189 217.511 956.511 217.511H869.12V269.946H950.155C965.833 269.946 973.672 276.407 973.672 289.331C973.672 302.042 965.833 308.398 950.155 308.398H869.12V364.646H956.511C972.189 364.646 980.027 371.108 980.027 384.031C980.027 396.743 972.189 403.098 956.511 403.098H844.015ZM1112.15 405.958C1090.12 405.958 1070.84 401.298 1054.32 391.976C1037.79 382.654 1025.08 369.307 1016.18 351.935C1007.29 334.562 1002.84 314.224 1002.84 290.92C1002.84 267.615 1007.29 247.383 1016.18 230.222C1025.08 212.85 1037.79 199.503 1054.32 190.181C1070.84 180.859 1090.12 176.199 1112.15 176.199C1139.91 176.199 1163.85 183.825 1183.97 199.079C1187.15 201.621 1189.38 204.164 1190.65 206.706C1191.92 209.248 1192.55 212.426 1192.55 216.24C1192.55 221.748 1190.97 226.515 1187.79 230.54C1184.82 234.354 1181.11 236.26 1176.67 236.26C1173.7 236.26 1171.05 235.942 1168.72 235.307C1166.6 234.459 1164.17 233.082 1161.41 231.176C1152.94 225.667 1145.1 221.748 1137.9 219.418C1130.69 216.875 1122.96 215.604 1114.7 215.604C1094.36 215.604 1079 221.96 1068.62 234.671C1058.45 247.171 1053.36 265.92 1053.36 290.92C1053.36 341.342 1073.81 366.553 1114.7 366.553C1122.54 366.553 1129.95 365.388 1136.94 363.057C1143.93 360.515 1152.09 356.49 1161.41 350.981C1164.59 349.075 1167.24 347.803 1169.36 347.168C1171.47 346.32 1173.91 345.897 1176.67 345.897C1181.11 345.897 1184.82 347.909 1187.79 351.935C1190.97 355.748 1192.55 360.409 1192.55 365.917C1192.55 369.731 1191.81 373.015 1190.33 375.769C1189.06 378.311 1186.94 380.747 1183.97 383.078C1163.85 398.332 1139.91 405.958 1112.15 405.958ZM1322.87 405.958C1300.63 405.958 1281.24 401.298 1264.72 391.976C1248.41 382.442 1235.8 369.095 1226.9 351.935C1218.01 334.562 1213.56 314.224 1213.56 290.92C1213.56 267.615 1218.01 247.383 1226.9 230.222C1235.8 212.85 1248.41 199.503 1264.72 190.181C1281.24 180.859 1300.63 176.199 1322.87 176.199C1345.12 176.199 1364.4 180.859 1380.71 190.181C1397.24 199.503 1409.95 212.85 1418.85 230.222C1427.74 247.383 1432.19 267.615 1432.19 290.92C1432.19 314.224 1427.74 334.562 1418.85 351.935C1409.95 369.095 1397.24 382.442 1380.71 391.976C1364.4 401.298 1345.12 405.958 1322.87 405.958ZM1322.87 367.506C1341.52 367.506 1356.14 360.939 1366.73 347.803C1377.53 334.668 1382.94 315.707 1382.94 290.92C1382.94 266.132 1377.64 247.277 1367.05 234.354C1356.45 221.218 1341.73 214.651 1322.87 214.651C1304.02 214.651 1289.3 221.218 1278.7 234.354C1268.32 247.277 1263.13 266.132 1263.13 290.92C1263.13 315.707 1268.43 334.668 1279.02 347.803C1289.61 360.939 1304.23 367.506 1322.87 367.506ZM873.975 605.719C864.371 605.719 855.427 604.699 847.144 602.658C838.98 600.497 832.257 597.556 826.975 593.834C824.934 592.273 823.433 590.652 822.473 588.972C821.632 587.291 821.212 585.13 821.212 582.489C821.212 578.887 822.293 575.766 824.454 573.125C826.615 570.484 829.136 569.163 832.017 569.163C833.578 569.163 835.078 569.403 836.519 569.883C837.96 570.364 839.76 571.264 841.921 572.585C846.844 575.346 851.706 577.327 856.508 578.527C861.43 579.728 866.952 580.328 873.075 580.328C880.158 580.328 885.501 579.307 889.102 577.267C892.824 575.106 894.685 571.984 894.685 567.902C894.685 565.141 892.944 562.8 889.462 560.879C886.101 558.838 879.618 556.858 870.014 554.937C858.128 552.416 848.824 549.414 842.101 545.933C835.378 542.451 830.636 538.369 827.875 533.687C825.234 528.885 823.913 523.123 823.913 516.4C823.913 508.716 826.194 501.753 830.756 495.511C835.318 489.268 841.561 484.406 849.485 480.924C857.528 477.323 866.532 475.522 876.497 475.522C885.26 475.522 893.064 476.482 899.907 478.403C906.75 480.324 912.993 483.325 918.635 487.407C920.796 488.968 922.297 490.648 923.137 492.449C924.098 494.13 924.578 496.231 924.578 498.752C924.578 502.354 923.497 505.475 921.336 508.116C919.295 510.757 916.834 512.078 913.953 512.078C912.392 512.078 910.952 511.898 909.631 511.538C908.311 511.057 906.45 510.097 904.049 508.656C903.448 508.296 901.708 507.396 898.826 505.955C896.065 504.395 892.764 503.194 888.922 502.354C885.2 501.393 881.119 500.913 876.677 500.913C870.554 500.913 865.632 502.114 861.91 504.515C858.189 506.796 856.328 509.857 856.328 513.699C856.328 515.98 856.988 517.84 858.309 519.281C859.629 520.722 862.09 522.162 865.692 523.603C869.293 524.924 874.636 526.304 881.719 527.745C893.244 530.266 902.308 533.327 908.911 536.929C915.514 540.41 920.196 544.492 922.957 549.174C925.718 553.856 927.099 559.379 927.099 565.742C927.099 573.665 924.878 580.688 920.436 586.811C915.994 592.813 909.751 597.495 901.708 600.857C893.784 604.098 884.54 605.719 873.975 605.719ZM1005.98 605.719C993.259 605.719 982.094 603.078 972.49 597.796C963.006 592.513 955.623 584.95 950.34 575.106C945.178 565.261 942.597 553.736 942.597 540.53C942.597 527.445 945.178 515.98 950.34 506.135C955.623 496.291 963.006 488.728 972.49 483.445C982.094 478.163 993.259 475.522 1005.98 475.522C1021.23 475.522 1034.62 479.544 1046.14 487.587C1048.18 489.028 1049.62 490.588 1050.46 492.269C1051.42 493.95 1051.91 496.111 1051.91 498.752C1051.91 502.474 1050.82 505.655 1048.66 508.296C1046.62 510.817 1044.1 512.078 1041.1 512.078C1039.3 512.078 1037.68 511.838 1036.24 511.358C1034.8 510.757 1033.12 509.857 1031.2 508.656C1026.99 506.135 1023.03 504.334 1019.31 503.254C1015.59 502.174 1011.75 501.633 1007.79 501.633C997.101 501.633 989.117 504.875 983.835 511.358C978.673 517.72 976.092 527.445 976.092 540.53C976.092 553.736 978.673 563.581 983.835 570.063C989.117 576.426 997.101 579.608 1007.79 579.608C1011.39 579.608 1014.87 579.067 1018.23 577.987C1021.59 576.786 1025.91 574.986 1031.2 572.585C1033.72 571.264 1035.58 570.364 1036.78 569.883C1037.98 569.403 1039.42 569.163 1041.1 569.163C1044.1 569.163 1046.62 570.484 1048.66 573.125C1050.82 575.646 1051.91 578.767 1051.91 582.489C1051.91 585.01 1051.42 587.171 1050.46 588.972C1049.62 590.652 1048.18 592.213 1046.14 593.654C1034.62 601.697 1021.23 605.719 1005.98 605.719ZM1125.4 605.719C1112.43 605.719 1101.15 603.078 1091.54 597.796C1082.06 592.393 1074.73 584.83 1069.57 575.106C1064.41 565.261 1061.83 553.736 1061.83 540.53C1061.83 527.325 1064.41 515.86 1069.57 506.135C1074.73 496.291 1082.06 488.728 1091.54 483.445C1101.15 478.163 1112.43 475.522 1125.4 475.522C1138.36 475.522 1149.59 478.163 1159.07 483.445C1168.68 488.728 1176 496.291 1181.04 506.135C1186.2 515.86 1188.78 527.325 1188.78 540.53C1188.78 553.736 1186.2 565.261 1181.04 575.106C1175.88 584.83 1168.5 592.393 1158.89 597.796C1149.41 603.078 1138.24 605.719 1125.4 605.719ZM1125.4 580.328C1135 580.328 1142.5 576.966 1147.91 570.243C1153.31 563.4 1156.01 553.496 1156.01 540.53C1156.01 527.565 1153.25 517.72 1147.73 510.997C1142.32 504.274 1134.88 500.913 1125.4 500.913C1115.79 500.913 1108.29 504.274 1102.89 510.997C1097.48 517.6 1094.78 527.445 1094.78 540.53C1094.78 553.616 1097.48 563.521 1102.89 570.243C1108.29 576.966 1115.79 580.328 1125.4 580.328ZM1315.18 583.029C1317.34 586.271 1318.42 589.332 1318.42 592.213C1318.42 596.055 1316.8 599.296 1313.56 601.937C1310.44 604.459 1306.78 605.719 1302.58 605.719C1299.7 605.719 1296.99 605.059 1294.47 603.738C1291.95 602.418 1289.79 600.437 1287.99 597.796L1264.58 563.581C1262.9 561.18 1261.1 559.439 1259.18 558.358C1257.38 557.158 1255.22 556.557 1252.69 556.557H1240.99V588.792C1240.99 593.834 1239.55 597.856 1236.67 600.857C1233.79 603.738 1229.82 605.179 1224.78 605.179C1219.74 605.179 1215.72 603.738 1212.72 600.857C1209.84 597.856 1208.4 593.834 1208.4 588.792V492.449C1208.4 487.527 1209.72 483.745 1212.36 481.104C1215 478.463 1218.78 477.143 1223.7 477.143H1268.9C1284.27 477.143 1295.79 480.504 1303.48 487.227C1311.28 493.83 1315.18 503.434 1315.18 516.04C1315.18 525.644 1312.54 533.807 1307.26 540.53C1301.98 547.133 1294.53 551.575 1284.93 553.856C1288.89 554.457 1292.31 555.777 1295.19 557.818C1298.19 559.859 1301.14 562.92 1304.02 567.002L1315.18 583.029ZM1263.68 531.707C1271 531.707 1276.23 530.566 1279.35 528.285C1282.59 526.004 1284.21 522.282 1284.21 517.12C1284.21 511.838 1282.59 508.056 1279.35 505.775C1276.23 503.374 1271 502.174 1263.68 502.174H1240.63V531.707H1263.68ZM1351.02 604.098C1346.1 604.098 1342.32 602.778 1339.68 600.137C1337.04 597.495 1335.72 593.714 1335.72 588.792V492.449C1335.72 487.527 1337.04 483.745 1339.68 481.104C1342.32 478.463 1346.1 477.143 1351.02 477.143H1413.33C1418.49 477.143 1422.4 478.223 1425.04 480.384C1427.68 482.545 1429 485.666 1429 489.748C1429 498.392 1423.78 502.714 1413.33 502.714H1367.95V526.844H1409.73C1420.17 526.844 1425.4 531.106 1425.4 539.63C1425.4 543.712 1424.08 546.833 1421.43 548.994C1418.79 551.155 1414.89 552.236 1409.73 552.236H1367.95V578.527H1413.33C1423.78 578.527 1429 582.849 1429 591.493C1429 595.575 1427.68 598.696 1425.04 600.857C1422.4 603.018 1418.49 604.098 1413.33 604.098H1351.02Z" fill="#4A4A4A"/>
</g>
<defs>
<clipPath id="clip0">
<rect width="1599.53" height="752.096" fill="white" transform="translate(0.338867 0.42627)"/>
</clipPath>
<clipPath id="clip1">
<rect width="572.016" height="572.016" fill="white" transform="translate(148.64 85.1694)"/>
</clipPath>
</defs>
</svg>
